<?xml version="1.0" standalone="no"?>
<!DOCTYPE svg PUBLIC "-//W3C//DTD SVG 1.1//EN" "http://www.w3.org/Graphics/SVG/1.1/DTD/svg11.dtd" >
<svg>
<metadata>
Created by FontForge 20090914 at Tue Mar 27 09:09:53 2018
 By www-data
Copyright (c) Mark Simonson 2009-2010. All rights reserved.
</metadata>
<defs>
<font id="AnonymousPro-BoldItalic" horiz-adv-x="1118" >
  <font-face 
    font-family="Anonymous Pro"
    font-weight="700"
    font-style="italic"
    font-stretch="normal"
    units-per-em="2048"
    panose-1="2 6 8 9 3 2 2 0 5 4"
    ascent="1675"
    descent="-373"
    x-height="932"
    cap-height="1305"
    bbox="-281.001 -395.001 1337 1854"
    underline-thickness="123"
    underline-position="-126"
    slope="-12"
    unicode-range="U+000D-U+FB02"
  />
<missing-glyph 
d="M784 0h-833l276 1305h834zM197 186h419l199 932h-420z" />
    <glyph glyph-name=".notdef" 
d="M784 0h-833l276 1305h834zM197 186h419l199 932h-420z" />
    <glyph glyph-name=".null" 
 />
    <glyph glyph-name=".null" 
 />
    <glyph glyph-name="nonmarkingreturn" unicode="&#xd;" 
 />
    <glyph glyph-name="space" unicode=" " 
 />
    <glyph glyph-name="exclam" unicode="!" 
d="M780 1305l-250 -932h-170l148 932h272zM494 0h-252l53 252h252z" />
    <glyph glyph-name="quotedbl" unicode="&#x22;" 
d="M954 1305l-151 -500h-158l62 500h247zM582 1305l-152 -500h-158l62 500h248z" />
    <glyph glyph-name="numbersign" unicode="#" 
d="M874 187h-186l-41 -186h-186l41 186h-187l-41 -186h-186l41 186h-187l39 186h187l39 187h-187l41 186h187l39 187h186l-39 -187h186l39 187h187l-39 -187h186l-41 -186h-186l-39 -187h186zM540 373l39 187h-186l-39 -187h186z" />
    <glyph glyph-name="dollar" unicode="$" 
d="M270 -16c-113.333 14.667 -196.172 56.8301 -248.505 126.497s-73.166 157.167 -62.499 262.5l199 30c-2.66699 -128 47.666 -205 150.999 -231l94 438c-39.333 18 -78.166 37.167 -116.499 57.5s-70.666 45.5 -96.999 75.5s-45 65.167 -56 105.5s-10.5 88.5 1.5 144.5
c18 84.667 63.833 157 137.5 217s167.834 97 282.501 111l35 170h186l-37 -174c52 -9.33301 96.5 -25.666 133.5 -48.999s67 -51.666 90 -84.999s38.667 -70.833 47 -112.5s9.16602 -85.167 2.49902 -130.5l-199 -22c8 110 -30.333 179.333 -115 208l-77 -374
c40.667 -18 80.834 -38 120.501 -60s73.5 -49 101.5 -81s48.167 -69.833 60.5 -113.5s12.166 -96.167 -0.500977 -157.5c-9.33301 -44 -26.666 -85.667 -51.999 -125s-57.166 -75.166 -95.499 -107.499s-82.666 -59 -132.999 -80s-105.5 -35.5 -165.5 -43.5l-37 -170h-187z
M695.994 339.996c10 48 2.66797 86.6689 -21.999 116.002s-58.334 55.666 -101.001 78.999l-77 -363c52.667 9.33301 96.5 27.666 131.5 54.999s57.833 65 68.5 113zM341.995 994.998c-8 -39.333 -1.5 -72 19.5 -98s50.167 -49.333 87.5 -70l65 306
c-46.667 -8.66699 -85 -24.167 -115 -46.5s-49 -52.833 -57 -91.5z" />
    <glyph glyph-name="percent" unicode="%" 
d="M1122 1257l-1112 -1298l-116 88l1114 1303zM104 1073c7.33301 34 21.168 66.833 41.501 98.5s44.166 58.667 71.499 81s57.666 40.333 90.999 54s68 20.5 104 20.5c34 0 65.333 -6.83301 94 -20.5s51.834 -31.667 69.501 -54s30 -49.333 37 -81s6.83301 -64.5 -0.5 -98.5
c-8 -35.333 -21.833 -68.333 -41.5 -99s-43.167 -57.334 -70.5 -80.001s-58.166 -40.834 -92.499 -54.501s-68.5 -20.5 -102.5 -20.5c-35.333 0 -67 6.83301 -95 20.5s-50.833 31.834 -68.5 54.501s-30.334 49.334 -38.001 80.001s-7.5 63.667 0.5 99zM254.002 1075
c-5.33301 -28.667 -0.166016 -53.167 15.501 -73.5s37.834 -30.5 66.501 -30.5s55.667 10.167 81 30.5s40.666 44.833 45.999 73.5c6.66699 28.667 1.83398 53.334 -14.499 74.001s-38.833 31 -67.5 31s-55.334 -10.333 -80.001 -31s-40.334 -45.334 -47.001 -74.001z
M403.002 231c7.33301 34.667 21.166 67.667 41.499 99s44.166 58.166 71.499 80.499s57.666 40.333 90.999 54s68 20.5 104 20.5c34 0 65.333 -6.83301 94 -20.5s51.834 -31.667 69.501 -54s30 -49.166 37 -80.499s6.83301 -64.333 -0.5 -99
c-8 -35.333 -22.167 -68.333 -42.5 -99s-44.166 -57.334 -71.499 -80.001s-58.166 -40.834 -92.499 -54.501s-68.5 -20.5 -102.5 -20.5c-35.333 0 -67 6.83301 -95 20.5s-50.833 31.834 -68.5 54.501s-30 49.334 -37 80.001s-6.5 63.667 1.5 99zM553.002 233
c-6.66699 -28.667 -1.83398 -53.167 14.499 -73.5s38.833 -30.5 67.5 -30.5s55.334 10.167 80.001 30.5s40.334 44.833 47.001 73.5c5.33301 28.667 0.166016 53.334 -15.501 74.001s-37.834 31 -66.501 31s-55.667 -10.333 -81 -31s-40.666 -45.334 -45.999 -74.001z" />
    <glyph glyph-name="ampersand" unicode="&#x26;" 
d="M977 565c-20.667 -48.667 -46.334 -98.6641 -77.001 -149.997s-67 -101 -109 -149l127 -145l-160 -148l-119 146c-57.333 -44 -117.333 -78.667 -180 -104s-129 -38 -199 -38c-54.667 0 -103.834 9.33301 -147.501 28s-79.5 44 -107.5 76s-47.5 69.5 -58.5 112.5
s-10.833 89.833 0.5 140.5c18.667 87.333 49.834 158.666 93.501 213.999s92.167 102.666 145.5 141.999c-27.333 48 -46 96.167 -56 144.5s-9.66699 100.5 1 156.5c10.667 50.667 29.334 96.834 56.001 138.501s57.834 77.167 93.501 106.5s75 51.833 118 67.5
s86.833 23.5 131.5 23.5c45.333 0 86.5 -6.83301 123.5 -20.5s67.333 -33.167 91 -58.5s40 -56 49 -92s8.83301 -77.333 -0.5 -124c-10 -44.667 -26.5 -84.834 -49.5 -120.501s-50.333 -67.834 -82 -96.501s-65.834 -55 -102.501 -79l-108 -68l227 -269
c23.333 33.333 44.833 68 64.5 104s38.5 72.333 56.5 109zM315 164.003c40 0 78 7.5 114 22.5s71.333 35.5 106 61.5l-248 305h-2c-30 -26 -56.333 -55 -79 -87s-38 -68 -46 -108c-12.667 -57.333 -4 -104 26 -140s73 -54 129 -54zM338 991.003
c-6.66699 -36.667 -10 -69.6621 -10 -98.9951s8.66699 -61 26 -95c28.667 16 55.667 32.167 81 48.5s48.333 34.166 69 53.499s38.167 40.166 52.5 62.499s24.166 47.166 29.499 74.499c6.66699 31.333 1.5 56.666 -15.5 75.999s-40.5 29 -70.5 29
c-40 0 -74.667 -14.333 -104 -43s-48.666 -64.334 -57.999 -107.001z" />
    <glyph glyph-name="quotesingle" unicode="'" 
d="M768 1305l-152 -500h-157l61 500h248z" />
    <glyph glyph-name="parenleft" unicode="(" 
d="M395 567c-16 -76 -23.334 -151.999 -22.001 -227.999s10.833 -148.833 28.5 -218.5s43.834 -135.5 78.501 -197.5s77.334 -117 128.001 -165l-153 -127c-58.667 56 -108.167 119.5 -148.5 190.5s-70.833 146.833 -91.5 227.5s-31.667 164.667 -33 252s7.66699 176 27 266
s48.333 178.833 87 266.5s85.334 171.667 140.001 252s117.167 156 187.5 227s147.166 134.5 230.499 190.5l98 -127c-70.667 -47.333 -136.334 -102.166 -197.001 -164.499s-115 -128.333 -163 -198s-88.667 -142.334 -122 -218.001s-58.333 -151.834 -75 -228.501z" />
    <glyph glyph-name="parenright" unicode=")" 
d="M582 565c16 76.667 23.665 152.833 22.998 228.5s-10.167 148.334 -28.5 218.001s-44.666 135.667 -78.999 198s-77.166 117.166 -128.499 164.499l153 127c60 -56 109.5 -119.5 148.5 -190.5s69.167 -146.667 90.5 -227s32.666 -164.333 33.999 -252
s-7.66699 -176.5 -27 -266.5s-48 -178.667 -86 -266s-84.667 -171.333 -140 -252s-117.833 -156.5 -187.5 -227.5s-146.167 -134.5 -229.5 -190.5l-100 127c72 48 138.333 103 199 165s115 127.833 163 197.5s88.333 142.5 121 218.5s57.334 152 74.001 228z" />
    <glyph glyph-name="asterisk" unicode="*" 
d="M563 591l326 196l61 -174l-342 -147l279 -146l-136 -174l-239 197l-45 -342h-199l103 342l-326 -197l-62 174l340 146l-276 147l135 174l240 -196l45 342h198z" />
    <glyph glyph-name="plus" unicode="+" 
d="M915 385h-372l-80 -372h-187l80 372h-372l38 187h373l80 372h186l-79 -372h372z" />
    <glyph glyph-name="comma" unicode="," 
d="M621 186l-394 -559h-157l305 559h246z" />
    <glyph glyph-name="hyphen" unicode="-" 
d="M915 385h-931l38 187h932z" />
    <glyph glyph-name="period" unicode="." 
d="M494 0h-252l53 252h252z" />
    <glyph glyph-name="slash" unicode="/" 
d="M969 1366l137 -76l-1094 -1542l-135 76z" />
    <glyph glyph-name="zero" unicode="0" 
d="M6 653c19.333 87.333 46.665 171.666 81.998 252.999s79.666 153 132.999 215s115.5 111.833 186.5 149.5s151.5 56.5 241.5 56.5s163 -18.833 219 -56.5s97.333 -87.5 124 -149.5s40.334 -133.667 41.001 -215s-8.33301 -165.666 -27 -252.999
c-18 -87.333 -44.833 -171.5 -80.5 -252.5s-79.667 -153 -132 -216s-114.333 -113.333 -186 -151s-153.5 -56.5 -245.5 -56.5c-91.333 0 -164.666 18.833 -219.999 56.5s-96.166 88 -122.499 151s-39.5 135 -39.5 216s8.66699 165.167 26 252.5zM212.999 653
c-12 -61.333 -20.334 -120.667 -25.001 -178l621 514c-14 45.333 -36.333 82 -67 110s-74.667 42 -132 42c-95.333 0 -177.166 -43 -245.499 -129s-118.833 -205.667 -151.5 -359zM402.998 163.999c59.333 0 110.5 14.332 153.5 42.999s80.5 66.167 112.5 112.5
s58.5 98.833 79.5 157.5s37.833 117.334 50.5 176.001c12 56 19.333 110.667 22 164l-616 -510c14.667 -43.333 37 -78 67 -104s73.667 -39 131 -39z" />
    <glyph glyph-name="one" unicode="1" 
d="M680 0h-626.995l39 186h211l158 742c-16.667 -32.667 -39.334 -61.667 -68.001 -87s-60.667 -46.5 -96 -63.5s-73.833 -30 -115.5 -39s-83.834 -13.5 -126.501 -13.5l43 207c45.333 0 91.166 7.5 137.499 22.5s89.666 37.833 129.999 68.5s76.166 69.167 107.499 115.5
s54 101.833 68 166.5h207l-238 -1119h209z" />
    <glyph glyph-name="two" unicode="2" 
d="M1008 948c-14 -61.333 -44.167 -124.001 -90.5 -188.001s-104.5 -124.667 -174.5 -182l-489 -392h383l37 179h186l-76 -365h-839l41 195l632 503c54.667 46.667 96.667 90.5 126 131.5s48.333 80.5 57 118.5c6.66699 34 6.16699 63.333 -1.5 88s-20 44.834 -37 60.501
s-37.667 27 -62 34s-49.5 10.5 -75.5 10.5c-82 0 -151.667 -24 -209 -72s-96.333 -119 -117 -213h-195c32 147.333 96 262.666 192 345.999s218.667 125 368 125c56 0 107.833 -8.16699 155.5 -24.5s87.5 -40.166 119.5 -71.499s54.5 -71 67.5 -119s13.5 -102.667 1.5 -164z
" />
    <glyph glyph-name="three" unicode="3" 
d="M895 354c-12 -57.333 -34.5049 -109.17 -67.5049 -155.503s-72.333 -85.833 -118 -118.5s-96.167 -58 -151.5 -76s-111 -27 -167 -27c-62.667 0 -119.667 8.66699 -171 26s-94 43.333 -128 78s-58.167 79.334 -72.5 134.001s-16.166 119.667 -5.49902 195l201 32
c-10.667 -86 3.33301 -153.833 42 -203.5s97 -74.5 175 -74.5c65.333 0 121.333 17.333 168 52s76 80.667 88 138c16.667 78 3.5 133.667 -39.5 167s-128.167 50 -255.5 50l39 187c45.333 0 88.166 4.33301 128.499 13s76.5 21.667 108.5 39s58.833 38.166 80.5 62.499
s36.167 52.833 43.5 85.5c10.667 54.667 3.33398 98.834 -21.999 132.501s-69.333 50.5 -132 50.5c-82 0 -149.667 -22.167 -203 -66.5s-90 -115.166 -110 -212.499h-197c16.667 76.667 42 144 76 202s74.833 106.5 122.5 145.5s101.334 68.333 161.001 88
s122.834 29.5 189.501 29.5c56 0 106.5 -8.5 151.5 -25.5s82.167 -41.5 111.5 -73.5s49.5 -70.667 60.5 -116s10.167 -96.666 -2.5 -153.999c-8 -36.667 -21.167 -71.334 -39.5 -104.001s-41.166 -61.667 -68.499 -87s-58.833 -45.833 -94.5 -61.5
s-73.167 -24.834 -112.5 -27.501c44 -4 81.333 -15.667 112 -35s54.834 -43.666 72.501 -72.999s28.5 -62.666 32.5 -99.999s2 -76 -6 -116z" />
    <glyph glyph-name="four" unicode="4" 
d="M834 0h-627l39 186h209l34 162h-514l39 187l641 770h242l-164 -770h213l-39 -187h-213l-35 -162h213zM528 535l113 526l-440 -526h327z" />
    <glyph glyph-name="five" unicode="5" 
d="M936 438c-14 -64 -39.6699 -124.003 -77.0029 -180.003s-82.666 -104.833 -135.999 -146.5s-111.666 -74.5 -174.999 -98.5s-127.333 -36 -192 -36c-62.667 0 -118.5 9.33301 -167.5 28s-90 45.334 -123 80.001s-56.667 77.334 -71 128.001s-16.5 108.667 -6.5 174
l202 29c-9.33301 -75.333 2.33398 -136.166 35.001 -182.499s90 -69.5 172 -69.5c42.667 0 81.667 7.16699 117 21.5s67.333 33.833 96 58.5s52.667 53.667 72 87s33 69 41 107c19.333 87.333 11.5 155.333 -23.5 204s-89.167 73 -162.5 73c-48 0 -94.167 -10 -138.5 -30
s-82.833 -52.333 -115.5 -97h-207l151 717h817l-38 -187h-611l-73 -338c78.667 80.667 176.667 121 294 121c56 0 107 -10.833 153 -32.5s84 -52.334 114 -92.001s50 -88.167 60 -145.5s7.66699 -121.666 -7 -192.999z" />
    <glyph glyph-name="six" unicode="6" 
d="M944 444c-16 -72 -41.834 -136.666 -77.501 -193.999s-78.667 -106.166 -129 -146.499s-106.333 -71.5 -168 -93.5s-124.5 -33 -188.5 -33c-98.667 0 -175.5 18.833 -230.5 56.5s-94.5 87.5 -118.5 149.5s-35 133.667 -33 215s12.667 165.666 32 252.999
c18.667 88.667 47.5 173.667 86.5 255s87.833 153.5 146.5 216.5s125.667 112.833 201 149.5s159.333 55 252 55c65.333 0 125 -9.83301 179 -29.5s98.667 -48.834 134 -87.501l-145 -151c-27.333 30 -57.833 51.167 -91.5 63.5s-72.167 18.5 -115.5 18.5
c-56 0 -108.167 -11.333 -156.5 -34s-91.666 -54.5 -129.999 -95.5s-70.833 -89.5 -97.5 -145.5s-47.667 -117.333 -63 -184c36 69.333 87.333 126 154 170s147.334 66 242.001 66c56 0 106.5 -12 151.5 -36s82.167 -56.833 111.5 -98.5s49.166 -91.5 59.499 -149.5
s8.5 -121.333 -5.5 -190zM736.999 444.001c16.667 82 8.66699 150.668 -24 206.001s-91.334 83 -176.001 83c-82 0 -153.167 -25.5 -213.5 -76.5s-99.166 -118.167 -116.499 -201.5c-9.33301 -41.333 -12.333 -79.333 -9 -114s13.5 -65.334 30.5 -92.001
s41.5 -47.5 73.5 -62.5s72.667 -22.5 122 -22.5c74 0 140 24.5 198 73.5s96.333 117.833 115 206.5z" />
    <glyph glyph-name="seven" unicode="7" 
d="M1071 1118c-100.667 -88.667 -184.832 -172.498 -252.499 -251.498s-124.334 -161.167 -170.001 -246.5s-85 -177.833 -118 -277.5s-63.167 -213.834 -90.5 -342.501h-211c26 121.333 57.5 232.166 94.5 332.499s81 195 132 284s112 174 183 255
s154.5 163.167 250.5 246.5h-516l-47 -219h-185l86 406h883z" />
    <glyph glyph-name="eight" unicode="8" 
d="M920 367c-15.333 -68.667 -40.3359 -127.167 -75.0029 -175.5s-77 -88.5 -127 -120.5s-105.667 -55.667 -167 -71s-125 -23 -191 -23c-66.667 0 -127 7.66699 -181 23s-99 39 -135 71s-61.167 72.167 -75.5 120.5s-14.166 106.833 0.500977 175.5
c7.33301 35.333 21.166 71 41.499 107s46.166 69.5 77.499 100.5s66.5 56.667 105.5 77s80.167 33.166 123.5 38.499c-35.333 4 -65.333 15.667 -90 35s-44.167 42.333 -58.5 69s-23.5 55.334 -27.5 86.001s-3.33301 60.334 2 89.001
c12.667 58.667 35.334 110.5 68.001 155.5s72.167 82.5 118.5 112.5s96.833 52.5 151.5 67.5s110 22.5 166 22.5s108.667 -7.5 158 -22.5s90.333 -37.5 123 -67.5s55.834 -67.5 69.501 -112.5s14.167 -96.833 1.5 -155.5c-5.33301 -28.667 -16.833 -58.334 -34.5 -89.001
s-39.167 -59.334 -64.5 -86.001s-54.666 -49.667 -87.999 -69s-69 -31 -107 -35c40.667 -5.33301 76.334 -18.166 107.001 -38.499s54.834 -46 72.501 -77s29.667 -64.5 36 -100.5s6.16602 -71.667 -0.500977 -107zM790.997 956c12 57.333 2.00098 102.5 -29.999 135.5
s-83 49.5 -153 49.5c-69.333 0 -126.833 -16.5 -172.5 -49.5s-74.834 -78.167 -87.501 -135.5c-12 -54.667 -3.33301 -97.667 26 -129s81.333 -47 156 -47c75.333 0 134.5 15.667 177.5 47s70.833 74.333 83.5 129zM714.998 379c8 39.333 7.49805 72.666 -1.50195 99.999
s-23.667 49.5 -44 66.5s-45.833 29.333 -76.5 37s-64.334 11.5 -101.001 11.5c-37.333 0 -72.666 -3.83301 -105.999 -11.5s-64.333 -20 -93 -37s-53 -39.167 -73 -66.5s-34 -60.666 -42 -99.999c-8 -36.667 -7.5 -68.667 1.5 -96s23.667 -50 44 -68s45.833 -31 76.5 -39
s64.334 -12 101.001 -12c37.333 0 72.666 4 105.999 12s64.333 21 93 39s52.834 40.667 72.501 68s33.834 59.333 42.501 96z" />
    <glyph glyph-name="nine" unicode="9" 
d="M68 860c14.667 72.667 40.1641 137.67 76.4971 195.003s79.333 106.166 129 146.499s105.167 71.333 166.5 93s124.333 32.5 189 32.5c98 0 175 -18.833 231 -56.5s95.667 -87.834 119 -150.501s34 -134.334 32 -215.001s-12.667 -164.667 -32 -252
c-19.333 -88.667 -48.333 -173.667 -87 -255s-87.167 -153.333 -145.5 -216s-125.666 -112.5 -201.999 -149.5s-160.166 -55.5 -251.499 -55.5c-65.333 0 -125 10 -179 30s-98.667 49 -134 87l145 152c27.333 -30 58 -51.167 92 -63.5s73 -18.5 117 -18.5
c56 0 108.167 11.167 156.5 33.5s91.333 54 129 95s70.167 89.5 97.5 145.5s47.666 117.667 60.999 185c-35.333 -70 -86.166 -126.833 -152.499 -170.5s-146.5 -65.5 -240.5 -65.5c-56 0 -106.833 12 -152.5 36s-83.167 56.833 -112.5 98.5s-49.166 91.5 -59.499 149.5
s-7.83301 121 7.5 189zM273.997 860.003c-17.333 -82 -9.33398 -150.666 23.999 -205.999s92.333 -83 177 -83c82 0 153 25.667 213 77s99 118.666 117 201.999c8 40.667 10.333 78.5 7 113.5s-13.5 65.833 -30.5 92.5s-41.167 47.5 -72.5 62.5s-71.666 22.5 -120.999 22.5
c-74 0 -140 -24.667 -198 -74s-96.667 -118.333 -116 -207z" />
    <glyph glyph-name="colon" unicode=":" 
d="M637 680h-252l53 252h252zM494 0h-252l53 252h252z" />
    <glyph glyph-name="semicolon" unicode=";" 
d="M637 680h-252l53 252h252zM621 186l-394 -559h-157l305 559h246z" />
    <glyph glyph-name="less" unicode="&#x3c;" 
d="M749 88l-145 -120l-401 512l620 512l92 -121l-473 -391z" />
    <glyph glyph-name="equal" unicode="=" 
d="M954 572h-932l39 186h932zM874 199h-931l41 186h931z" />
    <glyph glyph-name="greater" unicode="&#x3e;" 
d="M498 480l-310 391l146 121l403 -512l-622 -512l-93 120z" />
    <glyph glyph-name="question" unicode="?" 
d="M1024 1004c-10.667 -49.333 -28.668 -92.499 -54.001 -129.499s-54.333 -71.167 -87 -102.5s-67.834 -61 -105.501 -89s-72.5 -57 -104.5 -87s-61 -63.167 -87 -99.5s-44 -77.5 -54 -123.5h-213c12.667 54.667 32.334 103.5 59.001 146.5s57.334 81.833 92.001 116.5
s70.5 66.667 107.5 96l105.5 87c33.333 28.667 62 58 86 88s40 63 48 99c9.33301 43.333 3.5 76.666 -17.5 99.999s-53.5 35 -97.5 35c-65.333 0 -116.666 -18.167 -153.999 -54.5s-66.333 -86.5 -87 -150.5l-187 29c36 112 93.167 200.333 171.5 265s176.166 97 293.499 97
c110.667 0 191 -29.333 241 -88s64.667 -137 44 -235zM493.999 0.000976562h-252l53 252h252z" />
    <glyph glyph-name="at" unicode="@" 
d="M1013 684c-10 -45.333 -23.6699 -91.333 -41.0029 -138s-39.5 -88.834 -66.5 -126.501s-59.167 -68.5 -96.5 -92.5s-80.666 -36 -129.999 -36c-18 0 -35 3.5 -51 10.5s-29.667 17 -41 30s-19.5 28.5 -24.5 46.5s-5.16699 37.667 -0.5 59l3 10
c-10.667 -22 -23.667 -42.5 -39 -61.5s-32.166 -35.5 -50.499 -49.5s-37.666 -25 -57.999 -33s-41.166 -12 -62.499 -12c-40.667 0 -72.834 9.66699 -96.501 29s-40.5 45 -50.5 77s-14.167 68.333 -12.5 109s7.16699 82.334 16.5 125.001c10 49.333 25.333 96.5 46 141.5
s45.5 84.667 74.5 119s61.333 61.666 97 81.999s73.834 30.5 114.501 30.5c12 0 24 -2 36 -6s22.667 -10.167 32 -18.5s17.166 -18.833 23.499 -31.5s10.166 -27.334 11.499 -44.001l17 81h161l-105 -495c-4.66699 -21.333 -4.5 -36.666 0.5 -45.999s13.167 -14 24.5 -14
c14.667 0 28.5 6.66699 41.5 20s25.333 31.5 37 54.5s22.334 50 32.001 81s18.167 63.833 25.5 98.5c14.667 70 22.167 136.667 22.5 200s-9 119 -28 167s-49 86.167 -90 114.5s-94.833 42.5 -161.5 42.5c-67.333 0 -127.5 -14.5 -180.5 -43.5s-99.333 -68.5 -139 -118.5
s-73.167 -108.833 -100.5 -176.5s-49.333 -140.5 -66 -218.5c-16 -76.667 -24.667 -148.667 -26 -216s7.16699 -126 25.5 -176s47.833 -89.5 88.5 -118.5s94.667 -43.5 162 -43.5c54.667 0 105.667 9.66699 153 29s92.333 45.333 135 78l38 -98
c-103.333 -86 -220.333 -129 -351 -129c-61.333 0 -114.333 8.5 -159 25.5s-82.334 40.833 -113.001 71.5s-54.667 67 -72 109s-29 88 -35 138s-7 103 -3 159s12.333 113 25 171c18.667 88.667 45.667 173.834 81 255.501s79.666 153.667 132.999 216
s115.666 112 186.999 149s152.333 55.5 243 55.5c60 0 112.333 -8.5 157 -25.5s82.334 -40.5 113.001 -70.5s54.834 -65.333 72.501 -106s30 -84.834 37 -132.501s8.83301 -97.667 5.5 -150s-10.666 -105.166 -21.999 -158.499zM623.997 796
c-6.66699 25.333 -17.332 43.333 -31.999 54s-30.334 16 -47.001 16c-20 0 -38.667 -6 -56 -18s-33 -28.5 -47 -49.5s-26.333 -45.833 -37 -74.5s-19.334 -59.334 -26.001 -92.001c-8 -36 -12.333 -66.167 -13 -90.5s1.66602 -43.833 6.99902 -58.5s13.333 -25 24 -31
s23.667 -9 39 -9c16.667 0 33.334 5.83301 50.001 17.5s31.834 26.834 45.501 45.501s25.667 39.5 36 62.5s17.833 46.167 22.5 69.5z" />
    <glyph glyph-name="A" unicode="A" 
d="M678 0l-29 311h-432l-158 -311h-217l684 1305h238l131 -1305h-217zM311 494h322l-45 538z" />
    <glyph glyph-name="B" unicode="B" 
d="M907 358c-26 -118.667 -85.332 -208 -177.999 -268s-213.334 -90 -362.001 -90h-416l276 1305h394c54 0 106.333 -4.5 157 -13.5s94.167 -25.833 130.5 -50.5s63 -59.167 80 -103.5s17.833 -101.833 2.5 -172.5c-14.667 -66 -44.5 -126.333 -89.5 -181
s-103.833 -94 -176.5 -118c78 -26 132.333 -62.333 163 -109s37 -113 19 -199zM780.001 938c8.66699 38 8.16895 69 -1.49805 93s-24.334 42.5 -44.001 55.5s-42.834 21.5 -69.501 25.5s-54.334 6 -83.001 6h-187l-78 -360h187c28.667 0 57.334 2 86.001 6
s55.667 12.5 81 25.5s47.833 31.5 67.5 55.5s33.5 55 41.5 93zM707.003 379c13.333 65.333 0.5 113.667 -38.5 145s-99.5 47 -181.5 47h-208l-82 -385h209c81.333 0 148.333 15.833 201 47.5s86 80.167 100 145.5z" />
    <glyph glyph-name="C" unicode="C" 
d="M938 399c-30 -64 -63.8359 -121.999 -101.503 -173.999s-79.667 -96.333 -126 -133s-97.166 -65 -152.499 -85s-115.666 -30 -180.999 -30c-91.333 0 -164.666 18.833 -219.999 56.5s-96.666 88 -123.999 151s-41 135 -41 216s8.66699 165.167 26 252.5
c19.333 87.333 46.5 171.666 81.5 252.999s79 153 132 215s114 111.833 183 149.5s147.833 56.5 236.5 56.5c28.667 0 57 -3.66699 85 -11s53 -18.5 75 -33.5s40.167 -33.5 54.5 -55.5s22.833 -47.333 25.5 -76l33 154h186l-104 -494h-187c8 40.667 11 80.834 9 120.501
s-10.5 74.834 -25.5 105.501s-37.167 55.667 -66.5 75s-66.333 29 -111 29c-58.667 0 -109.834 -14.333 -153.501 -43s-81.667 -66.334 -114 -113.001s-59.333 -99 -81 -157s-38.834 -116.333 -51.501 -175c-12 -58.667 -19.667 -117.334 -23 -176.001
s0.666992 -111.167 12 -157.5s33.5 -83.833 66.5 -112.5s78.833 -43 137.5 -43c84.667 0 155.334 27 212.001 81s108.667 126.667 156 218z" />
    <glyph glyph-name="D" unicode="D" 
d="M1014 653c-18 -87.333 -44.667 -170.5 -80 -249.5s-79.333 -148.333 -132 -208s-114.5 -107.167 -185.5 -142.5s-151.5 -53 -241.5 -53h-424l276 1305h424c88.667 0 161 -17.833 217 -53.5s97.667 -83.167 125 -142.5s42.333 -128.333 45 -207
s-5.33301 -161.667 -24 -249zM807 653c32.667 150.667 32.001 265.833 -1.99902 345.5s-98.333 119.5 -193 119.5h-217l-198 -932h217c94 0 175.167 40.667 243.5 122s118.166 196.333 149.499 345z" />
    <glyph glyph-name="E" unicode="E" 
d="M784 0h-833l276 1305h834l-39 -187h-627l-78 -360h490l-39 -187h-489l-82 -385h626z" />
    <glyph glyph-name="F" unicode="F" 
d="M1022 1118h-627l-78 -360h490l-39 -187h-489l-121 -571h-207l276 1305h834z" />
    <glyph glyph-name="G" unicode="G" 
d="M1022 649c-19.333 -88.667 -46.334 -173.331 -81.001 -253.998s-78.667 -152 -132 -214s-115.833 -111.5 -187.5 -148.5s-153.167 -55.5 -244.5 -55.5s-164.666 18.833 -219.999 56.5s-96.666 87.5 -123.999 149.5s-41.333 133.667 -42 215s8.33301 165.666 27 252.999
c19.333 87.333 46.5 171.666 81.5 252.999s79.333 153.333 133 216s116 112.834 187 150.501s152.5 56.5 244.5 56.5c25.333 0 51 -3.66699 77 -11s49.667 -18.5 71 -33.5s39.166 -33.5 53.499 -55.5s22.833 -47.333 25.5 -76l33 154h186l-98 -463h-187
c8.66699 40.667 10.5 79.167 5.5 115.5s-16.333 68.166 -34 95.499s-41.167 48.833 -70.5 64.5s-63 23.5 -101 23.5c-58.667 0 -109.834 -14.667 -153.501 -44s-82 -67.333 -115 -114s-60 -99 -81 -157s-37.833 -116.333 -50.5 -175c-12 -58.667 -19.667 -117 -23 -175
s0.666992 -110.167 12 -156.5s33.5 -83.833 66.5 -112.5s78.833 -43 137.5 -43c84.667 0 158.334 27 221.001 81s116 137.667 160 251h-275l39 186h465z" />
    <glyph glyph-name="H" unicode="H" 
d="M784 0h-206l120 571h-419l-121 -571h-207l276 1305h207l-117 -547h420l117 547h207z" />
    <glyph glyph-name="I" unicode="I" 
d="M684 0h-627l39 186h207l199 932h-207l39 187h627l-39 -187h-213l-199 -932h213z" />
    <glyph glyph-name="J" unicode="J" 
d="M889 498c-35.333 -165.333 -97.8301 -293.5 -187.497 -384.5s-206.834 -136.5 -351.501 -136.5c-116 0 -206.667 30.5 -272 91.5s-101 152.167 -107 273.5l201 70c2.66699 -78 21.5 -138.833 56.5 -182.5s89.167 -65.5 162.5 -65.5c45.333 0 84 9.16699 116 27.5
s59.667 42.833 83 73.5s42.166 66.167 56.499 106.5s26.166 82.5 35.499 126.5l172 807h207z" />
    <glyph glyph-name="K" unicode="K" 
d="M827 0h-241l-213 608l-109 -102l-106 -506h-207l276 1305h207l-108 -512l514 512h266l-569 -541z" />
    <glyph glyph-name="L" unicode="L" 
d="M784 0h-833l276 1305h207l-237 -1119h626z" />
    <glyph glyph-name="M" unicode="M" 
d="M784 0h-206l186 883l-232 -469h-159l-29 469l-186 -883h-207l276 1305h246l45 -590l295 590h248z" />
    <glyph glyph-name="N" unicode="N" 
d="M784 0h-239l-187 946l-200 -946h-207l276 1305h260l177 -899l190 899h207z" />
    <glyph glyph-name="O" unicode="O" 
d="M6 653c19.333 87.333 46.665 171.666 81.998 252.999s79.666 153 132.999 215s115.5 111.833 186.5 149.5s151.5 56.5 241.5 56.5s163 -18.833 219 -56.5s97.333 -87.5 124 -149.5s40.334 -133.667 41.001 -215s-8.33301 -165.666 -27 -252.999
c-18 -87.333 -44.833 -171.5 -80.5 -252.5s-79.667 -153 -132 -216s-114.333 -113.333 -186 -151s-153.5 -56.5 -245.5 -56.5c-91.333 0 -164.666 18.833 -219.999 56.5s-96.166 88 -122.499 151s-39.5 135 -39.5 216s8.66699 165.167 26 252.5zM212.999 653
c-12 -58.667 -19.835 -117.335 -23.502 -176.002s0.333008 -111.167 12 -157.5s33.5 -83.833 65.5 -112.5s77.333 -43 136 -43c59.333 0 110.5 14.333 153.5 43s80.5 66.167 112.5 112.5s58.5 98.833 79.5 157.5s37.833 117.334 50.5 176.001c12 58.667 20 117 24 175
s0 110.333 -12 157s-34.167 84.334 -66.5 113.001s-77.166 43 -134.499 43c-95.333 0 -177.166 -43 -245.499 -129s-118.833 -205.667 -151.5 -359z" />
    <glyph glyph-name="P" unicode="P" 
d="M1028 915c-28.667 -130.667 -89.333 -227.832 -182 -291.499s-210 -95.5 -352 -95.5h-226l-110 -528h-207l276 1305h430c143.333 0 247.5 -32.833 312.5 -98.5s84.5 -162.834 58.5 -291.501zM821.001 918.002c14 66.667 2.83105 116.667 -33.502 150
s-91.833 50 -166.5 50h-226l-86 -403h226c74.667 0 137.334 16.667 188.001 50s83.334 84.333 98.001 153z" />
    <glyph glyph-name="Q" unicode="Q" 
d="M6 653c19.333 87.333 46.667 171.666 82 252.999s79.666 153 132.999 215s115.5 111.833 186.5 149.5s151.5 56.5 241.5 56.5s163 -18.833 219 -56.5s97.333 -87.5 124 -149.5s40.334 -133.667 41.001 -215s-8.33301 -165.666 -27 -252.999
c-16.667 -80.667 -40 -158.167 -70 -232.5s-67.833 -141.5 -113.5 -201.5s-98.667 -110.833 -159 -152.5s-128.5 -68.5 -204.5 -80.5c-6.66699 -66 11 -111.167 53 -135.5s107.667 -36.5 197 -36.5c12 0 25.167 0.333008 39.5 1s29.166 1 44.499 1l-39 -185
c-19.333 -1.33301 -37.833 -2.33301 -55.5 -3s-34.834 -1 -51.501 -1c-135.333 0 -238.5 30.833 -309.5 92.5s-101.5 152.5 -91.5 272.5c-66 16 -118.667 44.833 -158 86.5s-67.666 92.167 -84.999 151.5s-25.166 125.333 -23.499 198s10.5 147.667 26.5 225zM213.001 653
c-12 -58.667 -19.835 -117.335 -23.502 -176.002s0.333008 -111.167 12 -157.5s33.5 -83.833 65.5 -112.5s77.333 -43 136 -43c59.333 0 110.5 14.333 153.5 43s80.5 66.167 112.5 112.5s58.5 98.833 79.5 157.5s37.833 117.334 50.5 176.001c12 58.667 20 117 24 175
s0 110.333 -12 157s-34.167 84.334 -66.5 113.001s-77.166 43 -134.499 43c-95.333 0 -177.166 -43 -245.499 -129s-118.833 -205.667 -151.5 -359z" />
    <glyph glyph-name="R" unicode="R" 
d="M852 0h-262l-228 528h-94l-110 -528h-207l276 1305h430c143.333 0 247.5 -32.833 312.5 -98.5s84.5 -162.834 58.5 -291.501c-12 -57.333 -31.667 -107.833 -59 -151.5s-60.5 -81.167 -99.5 -112.5s-82 -56.166 -129 -74.499s-96.5 -30.833 -148.5 -37.5zM821 918
c14 66.667 2.83105 116.667 -33.502 150s-92.833 50 -169.5 50h-223l-86 -403h223c76.667 0 140.334 16.667 191.001 50s83.334 84.333 98.001 153z" />
    <glyph glyph-name="S" unicode="S" 
d="M877 358c-14 -60 -35.999 -113.499 -65.999 -160.499s-66.167 -86.833 -108.5 -119.5s-89.5 -57.667 -141.5 -75s-105.333 -26 -160 -26c-61.333 0 -114.166 11 -158.499 33s-78.833 58.333 -103.5 109l-24 -119h-187l90 426h187
c-10 -42.667 -10.833 -80.334 -2.5 -113.001s22.333 -60.167 42 -82.5s44.667 -39.333 75 -51s63.833 -17.5 100.5 -17.5c61.333 0 114.166 14.333 158.499 43s73.5 74.334 87.5 137.001c6.66699 32.667 6.5 60.667 -0.5 84s-19.333 44.166 -37 62.499
s-40.834 34.333 -69.501 48s-60.667 28.167 -96 43.5c-45.333 16 -89.5 34 -132.5 54s-79.833 44.667 -110.5 74s-53.167 65.5 -67.5 108.5s-14.5 97.167 -0.5 162.5c12 57.333 33 107.5 63 150.5s65.833 79.167 107.5 108.5s87 51.5 136 66.5s99.5 22.5 151.5 22.5
c60 0 108.833 -12.667 146.5 -38s64.167 -59 79.5 -101l24 117h187l-86 -406h-187c16.667 76.667 9.33398 136.5 -21.999 179.5s-81.333 64.5 -150 64.5c-60 0 -112.833 -14 -158.5 -42s-73.5 -67.333 -83.5 -118c-6.66699 -26 -6.5 -48.167 0.5 -66.5s18.667 -35 35 -50
s38.166 -29 65.499 -42s59.333 -27.167 96 -42.5c45.333 -17.333 89.833 -37 133.5 -59s81.5 -49 113.5 -81s55.5 -70.833 70.5 -116.5s15.833 -101.5 2.5 -167.5z" />
    <glyph glyph-name="T" unicode="T" 
d="M1008 829h-185l62 289h-176l-199 -932h207l-39 -186h-621l39 186h207l199 932h-178l-62 -289h-184l100 476h930z" />
    <glyph glyph-name="U" unicode="U" 
d="M883 465c-16.667 -74 -39.3301 -141.001 -67.9971 -201.001s-64.834 -111.167 -108.501 -153.5s-94.167 -75.166 -151.5 -98.499s-122.333 -35 -195 -35c-72 0 -131.5 11.667 -178.5 35s-82.833 56.166 -107.5 98.499s-39 93.833 -43 154.5s2 128 18 202l178 838h207
l-178 -840c-6.66699 -32.667 -11.334 -66.5 -14.001 -101.5s-0.333984 -67.5 6.99902 -97.5s23.333 -54.5 48 -73.5s59.334 -28.5 104.001 -28.5c45.333 0 83.666 9.5 114.999 28.5s58 43.167 80 72.5s39.167 61.833 51.5 97.5s21.833 69.834 28.5 102.501l178 840h207z" />
    <glyph glyph-name="V" unicode="V" 
d="M1169 1305l-684 -1305h-235l-131 1305h217l90 -1033l526 1033h217z" />
    <glyph glyph-name="W" unicode="W" 
d="M1174 1305l-480 -1305h-213l4 563l-231 -563h-213l74 1305h215l-66 -879l201 506h199l-15 -506l309 879h216z" />
    <glyph glyph-name="X" unicode="X" 
d="M854 0h-426l39 186h74l-76 295l-199 -295h74l-39 -186h-422l39 186h113l354 473l-152 459h-94l39 187h414l-39 -187h-84l72 -289l196 289h-82l39 187h416l-39 -187h-100l-348 -459l153 -473h117z" />
    <glyph glyph-name="Y" unicode="Y" 
d="M1092 1118h-95l-413 -586l-74 -346h209l-39 -186h-625l39 186h209l74 346l-164 586h-94l39 187h411l-39 -187h-90l84 -383l246 383h-90l39 187h411z" />
    <glyph glyph-name="Z" unicode="Z" 
d="M784 0h-833l39 184l782 934h-397l-62 -284h-186l100 471h817l-38 -187l-766 -932h401l61 287h183z" />
    <glyph glyph-name="bracketleft" unicode="[" 
d="M629 -373h-434l395 1864h434l-39 -186h-248l-317 -1491h248z" />
    <glyph glyph-name="backslash" unicode="\" 
d="M795 -176l-170 -76l-439 1542l170 76z" />
    <glyph glyph-name="bracketright" unicode="]" 
d="M381 -373h-434l39 187h247l318 1491h-248l39 186h434z" />
    <glyph glyph-name="asciicircum" unicode="^" 
d="M1015 559h-228l-180 562l-418 -562h-228l561 746h248z" />
    <glyph glyph-name="underscore" unicode="_" 
d="M794 -186h-931l39 186h932z" />
    <glyph glyph-name="grave" unicode="`" 
d="M543 1405l344 -287l-119 -137l-379 244z" />
    <glyph glyph-name="a" unicode="a" 
d="M-47 268c12 54.667 37.1719 102.502 75.5049 143.502s84.166 75.167 137.499 102.5s112 47.833 176 61.5s128.333 20.5 193 20.5c35.333 0 65.666 -0.666992 90.999 -2s50.666 -3.33301 75.999 -6l7 37c10.667 48.667 -0.333008 85 -33 109s-79.667 36 -141 36
c-56 0 -114.5 -7.83301 -175.5 -23.5s-120.833 -38.5 -179.5 -68.5l-49 162c68 35.333 139.667 63.166 215 83.499s151.666 30.5 228.999 30.5c50.667 0 99.334 -5.66699 146.001 -17s86.667 -30 120 -56s57.166 -59.833 71.499 -101.5s14.5 -93.167 0.5 -154.5l-131 -625
h-204l28 137c-43.333 -50.667 -99.833 -90 -169.5 -118s-141.5 -42 -215.5 -42c-44.667 0 -85.834 6.16699 -123.501 18.5s-68.5 30.833 -92.5 55.5s-41 55.167 -51 91.5s-10.333 78.166 -1 125.499zM313.005 162.002c41.333 0 80.665 5.16797 117.998 15.501
s71.833 24.666 103.5 42.999s58 40.5 79 66.5s34.833 54.667 41.5 86l9 35c-32 5.33301 -62.333 8.33301 -91 9s-53.667 1 -75 1c-101.333 0 -180.666 -13.333 -237.999 -40s-90.666 -59.667 -99.999 -99c-16.667 -78 34.333 -117 153 -117z" />
    <glyph glyph-name="b" unicode="b" 
d="M227 1305h207.001l-98 -457c48 35.333 94.167 61.833 138.5 79.5s92.166 26.5 143.499 26.5c60.667 0 113.834 -12.167 159.501 -36.5s82.5 -58 110.5 -101s46 -94.667 54 -155s4.66699 -125.833 -10 -196.5c-15.333 -71.333 -40 -137 -74 -197
s-73.833 -111.5 -119.5 -154.5s-96.834 -76.5 -153.501 -100.5s-115 -36 -175 -36c-52 0 -96.167 9.33301 -132.5 28s-70.833 45.667 -103.5 81l-16 -86h-207zM209.001 248c19.333 -27.333 46.6689 -48.168 82.002 -62.501s70.666 -21.5 105.999 -21.5
c78 0 147.333 27.667 208 83s100.667 128 120 218s10.166 163 -27.501 219s-95.5 84 -173.5 84c-35.333 0 -73.5 -7.16699 -114.5 -21.5s-77.167 -35.166 -108.5 -62.499z" />
    <glyph glyph-name="c" unicode="c" 
d="M825 133c-72 -60 -143.496 -100.999 -214.496 -122.999s-145.5 -33 -223.5 -33s-146.333 11.667 -205 35s-105.334 56.166 -140.001 98.499s-57.834 93.5 -69.501 153.5s-9.16699 127 7.5 201c14.667 70.667 40.5 136.167 77.5 196.5s80 112 129 155
s103.5 76.667 163.5 101s120.667 36.5 182 36.5c64.667 0 117.5 -13.333 158.5 -40s66.833 -65.667 77.5 -117l29 135h184l-92 -434h-184c17.333 82 8.66602 147.5 -26.001 196.5s-88.334 73.5 -161.001 73.5c-28.667 0 -59.667 -5.83301 -93 -17.5s-66 -29.834 -98 -54.501
s-60.667 -56 -86 -94s-43.666 -83.667 -54.999 -137c-10.667 -52 -11.834 -96.833 -3.50098 -134.5s23.333 -68.667 45 -93s50 -42.666 85 -54.999s72.167 -18.5 111.5 -18.5c66.667 0 127 10.5 181 31.5s102.333 48.833 145 83.5z" />
    <glyph glyph-name="d" unicode="d" 
d="M784 0h-206.001l16 86c-46.667 -35.333 -92.5 -62.333 -137.5 -81s-93.5 -28 -145.5 -28c-60 0 -112.833 12 -158.5 36s-82.5 57.5 -110.5 100.5s-46.167 94.5 -54.5 154.5s-4.83301 125.667 10.5 197c14.667 70.667 39.167 136.167 73.5 196.5s74.333 112 120 155
s96.834 76.667 153.501 101s115 36.5 175 36.5c52 0 96.5 -8.83301 133.5 -26.5s71.167 -44.167 102.5 -79.5l59 270h-180l39 187h387zM720.999 684c-18 27.333 -45.001 48.168 -81.001 62.501s-72 21.5 -108 21.5c-77.333 0 -146.5 -28 -207.5 -84
s-100.833 -129 -119.5 -219c-19.333 -90 -10.166 -162.667 27.501 -218s95.5 -83 173.5 -83c35.333 0 73.833 7.16699 115.5 21.5s77.5 35.166 107.5 62.499z" />
    <glyph glyph-name="e" unicode="e" 
d="M174 387c-4 -64 15.1709 -117.168 57.5039 -159.501s106.5 -63.5 192.5 -63.5c66.667 0 127 10.5 181 31.5s102.333 48.833 145 83.5l75 -146c-72 -60 -143.833 -101 -215.5 -123s-147.167 -33 -226.5 -33c-72.667 0 -137.334 12 -194.001 36s-103 57.5 -139 100.5
s-60.833 94.167 -74.5 153.5s-12.167 125.333 4.5 198c14.667 70.667 40.167 135.834 76.5 195.501s80.666 111.334 132.999 155.001s111.333 77.667 177 102s134.5 36.5 206.5 36.5c75.333 0 140.666 -12.833 195.999 -38.5s99.666 -62.834 132.999 -111.501
s54.833 -108.167 64.5 -178.5s5.5 -149.833 -12.5 -238.5h-780zM760.004 568.999c1.33301 60 -19.835 108.167 -63.502 144.5s-98.5 54.5 -164.5 54.5c-65.333 0 -127.666 -18.167 -186.999 -54.5s-100.666 -84.5 -123.999 -144.5h539z" />
    <glyph glyph-name="f" unicode="f" 
d="M991 745l-362.003 0.000976562l-119 -559h213l-39 -186h-627l39 186h207l119 559h-207l39 187h207c27.333 128 87.333 225.833 180 293.5s206 101.5 340 101.5c20.667 0 42.167 -1 64.5 -3s44.5 -4.33301 66.5 -7l-39 -182c-38 4 -73.333 6 -106 6
c-53.333 0 -97.166 -3.83301 -131.499 -11.5s-62.666 -20 -84.999 -37s-39.666 -38.833 -51.999 -65.5s-22.5 -58.334 -30.5 -95.001h362z" />
    <glyph glyph-name="g" unicode="g" 
d="M786 10c-13.333 -64 -36.333 -120.998 -69 -170.998s-72.667 -92.333 -120 -127s-100 -61.167 -158 -79.5s-119.667 -27.5 -185 -27.5c-162.667 0 -289.667 49 -381 147l129 160c79.333 -82 177 -123 293 -123c70.667 0 131.334 17.5 182.001 52.5
s84.334 89.833 101.001 164.5l22 100c-50.667 -36.667 -97.834 -63.834 -141.501 -81.501s-91.5 -26.5 -143.5 -26.5c-60 0 -112.833 12.667 -158.5 38s-82.167 59.833 -109.5 103.5s-45.333 94.5 -54 152.5s-6.33398 119.667 6.99902 185s36.833 127.166 70.5 185.499
s73.667 109 120 152s97.833 77 154.5 102s115 37.5 175 37.5c52 0 96.5 -8.83301 133.5 -26.5s71.167 -44.167 102.5 -79.5l18 84h207zM721 684.002c-18 27.333 -45.0029 48.168 -81.0029 62.501s-72.667 21.5 -110 21.5c-77.333 0 -146.166 -27.333 -206.499 -82
s-99.166 -124.334 -116.499 -209.001c-9.33301 -42 -11.333 -80.833 -6 -116.5s16.833 -66.5 34.5 -92.5s41.167 -46.5 70.5 -61.5s63.333 -22.5 102 -22.5c36.667 0 75.834 7.5 117.501 22.5s78.167 36.167 109.5 63.5z" />
    <glyph glyph-name="h" unicode="h" 
d="M784 0h-206.001l120 575c15.333 72.667 12.333 123 -9 151s-57.666 42 -108.999 42c-76.667 0 -145.667 -31 -207 -93s-103.666 -147.667 -126.999 -257l-88 -418h-207l276 1305h207l-129 -607c38 80.667 89.833 143.5 155.5 188.5s139.5 67.5 221.5 67.5
c95.333 0 163.166 -31 203.499 -93s46.833 -157.333 19.5 -286z" />
    <glyph glyph-name="i" unicode="i" 
d="M717 1053h-252l53 252h252zM684 0h-627l39 186h207l119 559h-207l39 187h414l-158 -746h213z" />
    <glyph glyph-name="j" unicode="j" 
d="M160 -395c-142 0 -244.331 53 -306.998 159l149 138c24.667 -37.333 52.667 -65.166 84 -83.499s69.666 -27.5 114.999 -27.5c69.333 0 124.833 19.167 166.5 57.5s69.5 88.833 83.5 151.5l157 745h-211l39 187h418l-197 -932c-13.333 -60 -35 -114.333 -65 -163
s-66.833 -90.334 -110.5 -125.001s-92.834 -61.167 -147.501 -79.5s-112.667 -27.5 -174 -27.5zM903.002 1053h-252l54 252h251z" />
    <glyph glyph-name="k" unicode="k" 
d="M831 0h-268l-231 377l-115 -96l-59 -281h-207l276 1305h207l-164 -768l457 395h285l-520 -428z" />
    <glyph glyph-name="l" unicode="l" 
d="M686 0h-627l39 186h205l199 932h-205l39 187h412l-238 -1119h215z" />
    <glyph glyph-name="m" unicode="m" 
d="M834 0h-206.997l135 639c9.33301 44 11.666 76.5 6.99902 97.5s-18.667 31.5 -42 31.5c-40.667 0 -71.334 -23.167 -92.001 -69.5s-40.667 -113.833 -60 -202.5l-104 -496h-207l135 639c10 44 12.167 76.5 6.5 97.5s-20.167 31.5 -43.5 31.5
c-40.667 0 -70.834 -23.167 -90.501 -69.5s-39.167 -113.833 -58.5 -202.5l-104 -496h-207l196 932h209l-28 -135c25.333 51.333 55.5 90.333 90.5 117s76.5 40 124.5 40c39.333 0 69.833 -12.167 91.5 -36.5s32.5 -57.833 32.5 -100.5c34.667 46.667 67 81.167 97 103.5
s71 33.5 123 33.5c64 0 108 -23.5 132 -70.5s25.667 -118.167 5 -213.5z" />
    <glyph glyph-name="n" unicode="n" 
d="M784 0h-206.001l120 575c15.333 72.667 12.333 123 -9 151s-57.666 42 -108.999 42c-76.667 0 -145.667 -31 -207 -93s-103.666 -147.667 -126.999 -257l-88 -418h-207l196 932h207l-49 -234c38 80.667 89.833 143.5 155.5 188.5s139.5 67.5 221.5 67.5
c95.333 0 163.166 -31 203.499 -93s46.833 -157.333 19.5 -286z" />
    <glyph glyph-name="o" unicode="o" 
d="M956 465c-16 -72.667 -41.832 -138.667 -77.499 -198s-79.334 -110.5 -131.001 -153.5s-110.334 -76.5 -176.001 -100.5s-135.5 -36 -209.5 -36c-72 0 -135.333 12 -190 36s-99 57.5 -133 100.5s-56.5 94.167 -67.5 153.5s-8.16699 125.333 8.5 198
c14.667 70.667 40.167 136.167 76.5 196.5s80.333 112.333 132 156s110.334 77.334 176.001 101.001s134.5 35.5 206.5 35.5c74 0 138.333 -11.833 193 -35.5s99 -57.334 133 -101.001s56.167 -95.667 66.5 -156s7.83301 -125.833 -7.5 -196.5zM750.001 465
c8 42 9.66309 81.833 4.99609 119.5s-16.667 69.834 -36 96.501s-44.666 47.834 -75.999 63.501s-69 23.5 -113 23.5c-43.333 0 -84.166 -7.83301 -122.499 -23.5s-72.166 -36.834 -101.499 -63.501s-54.5 -58.834 -75.5 -96.501s-35.833 -77.5 -44.5 -119.5
c-9.33301 -44 -11.333 -84 -6 -120s17 -67.667 35 -95s43 -48.5 75 -63.5s69.667 -22.5 113 -22.5c44 0 84.833 7.5 122.5 22.5s71.834 36.167 102.501 63.5s56.167 59 76.5 95s35.5 76 45.5 120z" />
    <glyph glyph-name="p" unicode="p" 
d="M147 932h207.001l-18 -84c48 35.333 94.167 61.833 138.5 79.5s92.166 26.5 143.499 26.5c60.667 0 113.834 -12.167 159.501 -36.5s82.5 -58 110.5 -101s46 -94.667 54 -155s4.66699 -125.833 -10 -196.5c-15.333 -71.333 -40 -137 -74 -197
s-73.833 -111.5 -119.5 -154.5s-96.834 -76.5 -153.501 -100.5s-115 -36 -175 -36c-52 0 -96.167 9.33301 -132.5 28s-70.833 45.667 -103.5 81l-96 -459h-205zM209.001 250c19.333 -27.333 46.6689 -48.501 82.002 -63.501s70.666 -22.5 105.999 -22.5
c78 0 147.333 27.667 208 83s100.667 128 120 218s10.166 163 -27.501 219s-95.5 84 -173.5 84c-35.333 0 -73.5 -7.16699 -114.5 -21.5s-77.167 -35.166 -108.5 -62.499z" />
    <glyph glyph-name="q" unicode="q" 
d="M705 -373h-207.001l96 459c-46.667 -35.333 -92.5 -62.333 -137.5 -81s-93.5 -28 -145.5 -28c-60 0 -112.833 12 -158.5 36s-82.5 57.5 -110.5 100.5s-46.167 94.5 -54.5 154.5s-4.83301 125.667 10.5 197c14.667 70.667 39.167 136.167 73.5 196.5s74.333 112 120 155
s96.834 76.667 153.501 101s115 36.5 175 36.5c52 0 96.5 -8.83301 133.5 -26.5s71.167 -44.167 102.5 -79.5l18 84h207zM720.999 684c-18 27.333 -45.001 48.168 -81.001 62.501s-72 21.5 -108 21.5c-77.333 0 -146.5 -28 -207.5 -84s-100.833 -129 -119.5 -219
c-19.333 -90 -10.166 -162.667 27.501 -218s95.5 -83 173.5 -83c35.333 0 73.833 7.16699 115.5 21.5s77.5 35.166 107.5 62.499z" />
    <glyph glyph-name="r" unicode="r" 
d="M961 711c-22 12 -45.332 21.167 -69.999 27.5s-53.334 9.5 -86.001 9.5c-46.667 0 -91.5 -6.83301 -134.5 -20.5s-82.167 -34.167 -117.5 -61.5s-65.333 -61.5 -90 -102.5s-43 -89.5 -55 -145.5l-50 -232h209l-39 -186h-626l39 186h211l118 559h-211l39 187h418l-49 -234
c53.333 93.333 117.5 159.333 192.5 198s158.167 58 249.5 58c28.667 0 58 -3 88 -9s58 -16.667 84 -32z" />
    <glyph glyph-name="s" unicode="s" 
d="M866 279c-12 -60.667 -35.8311 -109.996 -71.498 -147.996s-77.334 -68.667 -125.001 -92s-99.167 -39.5 -154.5 -48.5s-108.333 -13.5 -159 -13.5c-84.667 0 -166.167 12.333 -244.5 37s-144.166 57 -197.499 97l123 170c64 -42.667 124.667 -72.834 182 -90.501
s116.666 -26.5 177.999 -26.5c83.333 0 145.833 8.83301 187.5 26.5s65.834 42.167 72.501 73.5c3.33301 15.333 0.5 28 -8.5 38s-24.833 19.167 -47.5 27.5s-53 16.666 -91 24.999s-86.333 17.166 -145 26.499c-46.667 8 -90.167 17.833 -130.5 29.5
s-74.5 28.167 -102.5 49.5s-48.5 48.333 -61.5 81s-14.5 73.667 -4.5 123c10.667 50 33 93.5 67 130.5s74.333 67.5 121 91.5s97.167 41.333 151.5 52s107.5 16 159.5 16c74 0 143.333 -9.5 208 -28.5s119 -46.167 163 -81.5l-117 -160
c-43.333 32.667 -88.666 54.834 -135.999 66.501s-100.333 17.5 -159 17.5c-24.667 0 -50.5 -1.33301 -77.5 -4s-52.5 -7.83398 -76.5 -15.501s-44.833 -18 -62.5 -31s-28.834 -28.833 -33.501 -47.5c-5.33301 -24.667 12.167 -44.834 52.5 -60.501
s111.833 -31.167 214.5 -46.5c56 -8 106.167 -18.167 150.5 -30.5s81.166 -29 110.499 -50s50.166 -48 62.499 -81s12.833 -73.833 1.5 -122.5z" />
    <glyph glyph-name="t" unicode="t" 
d="M905 297c-31.333 -98 -86.1689 -175.833 -164.502 -233.5s-167.5 -86.5 -267.5 -86.5c-54.667 0 -102.5 9 -143.5 27s-74 43 -99 75s-41.667 70.5 -50 115.5s-7.16602 94.167 3.50098 147.5l86 403h-211l39 187h211l80 373h207l-80 -373h391l-39 -187h-391l-86 -403
c-12 -60 -6.5 -104.667 16.5 -134s58.5 -44 106.5 -44c58.667 0 105.834 17 141.501 51s61.5 75 77.5 123z" />
    <glyph glyph-name="u" unicode="u" 
d="M147 932h207.001l-123 -576c-14.667 -72 -11.167 -122 10.5 -150s58.5 -42 110.5 -42c76.667 0 145.667 31 207 93s103.666 147.667 126.999 257l88 418h207l-197 -932h-206l49 233c-38.667 -80 -90.667 -142.667 -156 -188s-139 -68 -221 -68
c-96 0 -164 31.167 -204 93.5s-47 157.5 -21 285.5z" />
    <glyph glyph-name="v" unicode="v" 
d="M1030 932l-541 -932h-243l-148 932h221l97 -705l393 705h221z" />
    <glyph glyph-name="w" unicode="w" 
d="M1059 932l-336 -932h-256l20 561l-219 -561h-256l58 932h202l-49 -623l232 623h219l-31 -623l213 623h203z" />
    <glyph glyph-name="x" unicode="x" 
d="M856 0h-442l39 186h82l-86 195l-166 -195h75l-39 -186h-438l39 186h135l271 287l-142 272h-125l39 187h420l-39 -187h-65l73 -180l154 180h-74l39 187h424l-39 -187h-121l-256 -272l148 -287h133z" />
    <glyph glyph-name="y" unicode="y" 
d="M1022 932l-637 -1114c-48 -80.667 -103.667 -136 -167 -166s-134.666 -45 -213.999 -45c-27.333 0 -56 2.66699 -86 8s-60.667 14.333 -92 27l82 190c26 -10.667 50.5 -18.167 73.5 -22.5s44.167 -6.5 63.5 -6.5c61.333 0 109.666 27.333 144.999 82l56 90l-154 957h215
l107 -705l387 705h221z" />
    <glyph glyph-name="z" unicode="z" 
d="M784 0h-833l39 184l649 561h-348l-41 -188h-182l79 375h816l-39 -187l-652 -559h369l39 185h182z" />
    <glyph glyph-name="braceleft" unicode="{" 
d="M627 -373l-154.001 0.000976562c-40.667 0 -76.834 6.83301 -108.501 20.5s-57 33.167 -76 58.5s-31.5 55 -37.5 89s-5 71.667 3 113l90 426c12 54.667 4.16699 90.167 -23.5 106.5s-72.5 24.5 -134.5 24.5l39 186c61.333 0 109.5 7.83301 144.5 23.5
s58.5 51.5 70.5 107.5l90 426c8.66699 41.333 23.5 79 44.5 113s46.5 63.667 76.5 89s63.5 45.166 100.5 59.499s75.833 21.5 116.5 21.5h154l-39 -186h-154c-35.333 0 -61.166 -7.16699 -77.499 -21.5s-27.833 -39.5 -34.5 -75.5l-90 -426
c-14 -62.667 -44.167 -113.5 -90.5 -152.5s-95.5 -63.167 -147.5 -72.5c24.667 -4 46.834 -11.833 66.501 -23.5s36 -27.334 49 -47.001s22.333 -42.5 28 -68.5s4.83398 -54 -2.49902 -84l-90 -426c-8 -35.333 -6.83301 -60.166 3.5 -74.499s33.166 -21.5 68.499 -21.5h154z
" />
    <glyph glyph-name="bar" unicode="|" 
d="M420 -186h-187l357 1677h186z" />
    <glyph glyph-name="braceright" unicode="}" 
d="M-12 -188l153.001 0.000976562c36 0 61.833 7.16699 77.5 21.5s27.5 39.166 35.5 74.499l92 430c5.33301 30 16.166 58 32.499 84s35.166 48.833 56.499 68.5s44.666 35.334 69.999 47.001s51 19.5 77 23.5c-48 9.33301 -87 33.5 -117 72.5s-38.333 89.833 -25 152.5
l90 426c8.66699 36 7.83398 60.5 -2.49902 73.5s-33.166 19.5 -68.499 19.5h-154l39 186h154c40.667 0 76.667 -6.83301 108 -20.5s56.666 -32.834 75.999 -57.501s32.333 -54 39 -88s5.33398 -71.667 -3.99902 -113l-90 -426c-12.667 -56 -4.66699 -91.833 24 -107.5
s73.667 -23.5 135 -23.5l-41 -186c-61.333 0 -109.333 -8.16699 -144 -24.5s-57.667 -51.833 -69 -106.5l-92 -430c-8 -41.333 -22.5 -79 -43.5 -113s-46.667 -63.667 -77 -89s-63.833 -44.833 -100.5 -58.5s-75.667 -20.5 -117 -20.5h-153z" />
    <glyph glyph-name="asciitilde" unicode="~" 
d="M614 435c36 0 66.168 18.9971 90.501 56.9971s51.5 101.333 81.5 190l193 -14c-16.667 -60 -37.5 -115.667 -62.5 -167s-54.667 -95.666 -89 -132.999s-72.666 -67 -114.999 -89s-88.833 -33 -139.5 -33c-54.667 0 -94.167 13 -118.5 39s-43 55 -56 87s-24 61 -33 87
s-25.167 39 -48.5 39c-35.333 0 -65 -18.833 -89 -56.5s-51 -100.834 -81 -189.501l-194 15c17.333 58.667 38.666 113.834 63.999 165.501s54.833 96.334 88.5 134.001s71.667 67.334 114 89.001s88.5 32.5 138.5 32.5c54.667 0 94.667 -13.167 120 -39.5
s44.166 -55.333 56.499 -87l33 -87c9.66699 -26.333 25.167 -39.5 46.5 -39.5z" />
    <glyph glyph-name="uni00A0" unicode="&#xa0;" 
 />
    <glyph glyph-name="exclamdown" unicode="&#xa1;" 
d="M418 0l248 932h170l-146 -932h-272zM903 1053h-252l54 252h251z" />
    <glyph glyph-name="cent" unicode="&#xa2;" 
d="M18 653c27.333 128.667 84.835 235 172.502 319s195.5 136.667 323.5 158l37 175h186l-37 -168c63.333 -6 120.166 -20.167 170.499 -42.5s96.166 -58.833 137.499 -109.5l-138 -145c-22.667 27.333 -51.167 50.5 -85.5 69.5s-75.166 31.833 -122.499 38.5l-127 -592
c51.333 7.33301 98.166 20.833 140.499 40.5s80.833 43.167 115.5 70.5l75 -145c-62.667 -52 -124 -89.333 -184 -112s-122 -36.667 -186 -42l-35 -168h-187l37 176c-118.667 22 -204 75 -256 159s-64.333 190 -37 318zM225.002 653c-16 -77.333 -11.5 -139 13.5 -185
s62.833 -78.333 113.5 -97l121 565c-58.667 -19.333 -110.5 -51.833 -155.5 -97.5s-75.833 -107.5 -92.5 -185.5z" />
    <glyph glyph-name="sterling" unicode="&#xa3;" 
d="M59 745l186.998 -0.00292969l49 230c10.667 50.667 29.334 97.834 56.001 141.501s58.834 80.834 96.501 111.501s78.667 54.834 123 72.501s89.166 26.5 134.499 26.5c81.333 0 146 -21.833 194 -65.5s70.667 -105.834 68 -186.501l-197 -45c-4 74 -38.667 111 -104 111
c-38.667 0 -72.667 -12.667 -102 -38s-50 -68 -62 -128l-49 -230h186l-39 -186h-186l-41 -186c-10 -44 -26.833 -82.333 -50.5 -115s-50.5 -56.667 -80.5 -72h172c44.667 0 83.834 2.83301 117.501 8.5s64.167 15.334 91.5 29.001s52.5 32.334 75.5 56.001
s48.167 54.167 75.5 91.5l152 -90c-64.667 -94.667 -145 -165.167 -241 -211.5s-199.333 -69.5 -310 -69.5h-473l39 186h61c23.333 0 43.5 4.16699 60.5 12.5s32 19 45 32s23.667 27.667 32 44s13.833 32.166 16.5 47.499l51 237h-187z" />
    <glyph glyph-name="currency" unicode="&#xa4;" 
d="M973 938c17.333 -39.333 28.168 -83 32.501 -131s0.166016 -100 -12.501 -156c-12 -56 -30.333 -107.833 -55 -155.5s-54 -91.167 -88 -130.5l94 -119l-147 -121l-92 119c-89.333 -53.333 -190.666 -80 -303.999 -80s-203.333 26.667 -270 80l-145 -119l-92 121l141 119
c-18 39.333 -28.667 82.833 -32 130.5s1 99.5 13 155.5c23.333 109.333 70.666 204.333 141.999 285l-95 121l148 121l92 -119c91.333 54.667 193 82 305 82c56 0 106.167 -7.16699 150.5 -21.5s83.833 -34.5 118.5 -60.5l145 119l94 -121zM786.002 651
c10 42.667 12.167 82.667 6.5 120s-17.667 69.333 -36 96s-43.166 47.834 -74.499 63.501s-69 23.5 -113 23.5c-43.333 0 -84.166 -7.83301 -122.499 -23.5s-72.5 -36.834 -102.5 -63.501s-55.167 -58.667 -75.5 -96s-35.5 -77.333 -45.5 -120
c-9.33301 -43.333 -11.333 -83.166 -6 -119.499s17.333 -68.166 36 -95.499s43.667 -48.5 75 -63.5s68.666 -22.5 111.999 -22.5c44 0 85.167 7.5 123.5 22.5s72.5 36.167 102.5 63.5s55.167 59.166 75.5 95.499s35.166 76.166 44.499 119.499z" />
    <glyph glyph-name="yen" unicode="&#xa5;" 
d="M385 559v4l-45 182h-281l39 187h197l-88 373h215l106 -555l342 555h215l-249 -373h194l-39 -187h-278l-121 -182v-4h360l-41 -186h-360l-78 -373h-207l78 373h-364l40 186h365z" />
    <glyph glyph-name="brokenbar" unicode="&#xa6;" 
d="M430 -186h-207l162 764h207zM625 727h-207l162 764h206z" />
    <glyph glyph-name="section" unicode="&#xa7;" 
d="M141 813c11.333 49.333 31.333 96.4961 60 141.496s60.667 81.833 96 110.5c-26 27.333 -44.167 59.833 -54.5 97.5s-9.16602 85.167 3.50098 142.5c13.333 62.667 35.333 117.167 66 163.5s67.5 84.833 110.5 115.5s90.167 53.5 141.5 68.5s104.333 22.5 159 22.5
c53.333 0 103.5 -7.16699 150.5 -21.5s88 -36.166 123 -65.499s61.333 -66.166 79 -110.499s23.834 -97.166 18.501 -158.499l-199 -33c5.33301 76.667 -10 129.667 -46 159s-91 44 -165 44c-49.333 0 -96.5 -13.333 -141.5 -40s-72.833 -66 -83.5 -118
c-10 -44.667 -2 -81 24 -109s60.5 -52.667 103.5 -74s90.5 -42.166 142.5 -62.499s98.833 -45.166 140.5 -74.499s73.667 -66.166 96 -110.499s26.166 -101.5 11.499 -171.5c-14 -64 -35 -117.5 -63 -160.5s-61.667 -83.833 -101 -122.5c26 -26.667 44.167 -59.5 54.5 -98.5
s9.83301 -86.5 -1.5 -142.5c-13.333 -61.333 -36 -116 -68 -164s-70.333 -89 -115 -123s-93.834 -59.833 -147.501 -77.5s-107.834 -26.5 -162.501 -26.5c-57.333 0 -110.666 7.16699 -159.999 21.5s-92.666 36.166 -129.999 65.499s-67.333 66.833 -90 112.5
s-34 100.5 -34 164.5l197 47c4 -69.333 25.833 -124.166 65.5 -164.499s103.834 -60.5 192.501 -60.5c54.667 0 105.167 16 151.5 48s76.166 77.333 89.499 136c11.333 52 4 93 -22 123s-60.833 55.333 -104.5 76s-91.5 40.167 -143.5 58.5s-98.833 42.166 -140.5 71.499
s-73.334 67.166 -95.001 113.499s-24.5 108.5 -8.5 186.5zM352 830.996c-9.33301 -40.667 -5.16699 -74.666 12.5 -101.999s42.5 -50.833 74.5 -70.5s68.833 -37.667 110.5 -54s82.5 -34.833 122.5 -55.5c23.333 17.333 42.5 37 57.5 59s26.5 50.667 34.5 86
c9.33301 45.333 5.5 82 -11.5 110s-41.5 51.5 -73.5 70.5s-68.5 35.667 -109.5 50s-82.833 29.833 -125.5 46.5c-50 -38.667 -80.667 -85.334 -92 -140.001z" />
    <glyph glyph-name="dieresis" unicode="&#xa8;" 
d="M903 1053h-252l54 252h251zM530 1053h-251l53 252h252z" />
    <glyph glyph-name="copyright" unicode="&#xa9;" 
d="M879 532c-86 -98 -197.331 -146.999 -333.998 -146.999c-53.333 0 -100.5 8.83301 -141.5 26.5s-73.833 42.667 -98.5 75s-41 70.666 -49 114.999s-6.66699 93.166 4 146.499c10.667 50 29 96.833 55 140.5s58.167 82 96.5 115s81.666 59 129.999 78
s101.166 28.5 158.499 28.5c136.667 0 226.334 -49 269.001 -147l-162 -99c-18 54.667 -65 82 -141 82c-56 0 -103.833 -18.667 -143.5 -56s-65.834 -84.666 -78.501 -141.999c-12 -57.333 -6.66699 -104.833 16 -142.5s62.667 -56.5 120 -56.5c76 0 135.333 27.333 178 82z
M1178 745.001c-16.667 -73.333 -46.168 -143.834 -88.501 -211.501s-93.5 -127 -153.5 -178s-127.167 -92 -201.5 -123s-151.833 -46.5 -232.5 -46.5c-72.667 0 -140 13.333 -202 40s-113.833 64.667 -155.5 114s-70.667 108 -87 176s-15.833 144.333 1.5 229
c16.667 76.667 46.834 149.167 90.501 217.5s96.167 127.833 157.5 178.5s129.333 90.667 204 120s150.667 44 228 44c75.333 0 143.333 -14 204 -42s111.167 -67.333 151.5 -118s68.333 -110.167 84 -178.5s15.5 -142.166 -0.5 -221.499zM1112 745
c14 67.333 14.832 130.666 2.49902 189.999s-36 111.5 -71 156.5s-79.833 80.833 -134.5 107.5s-116 40 -184 40s-134.833 -12.667 -200.5 -38s-125.834 -60.166 -180.501 -104.499s-101.167 -96.5 -139.5 -156.5s-64.833 -125 -79.5 -195
c-15.333 -69.333 -16.5 -134 -3.5 -194s37.333 -112.167 73 -156.5s80.834 -79.166 135.501 -104.499s116.667 -38 186 -38c66.667 0 132.834 12.667 198.501 38s125.167 60.166 178.5 104.499s99.5 96.5 138.5 156.5s65.833 124.667 80.5 194z" />
    <glyph glyph-name="ordfeminine" unicode="&#xaa;" 
d="M57 780c11.333 46.667 32 86.333 62 119s66.5 58.667 109.5 78s89.667 33.333 140 42s101.5 13 153.5 13h49.5c12.333 0 23.166 -0.666992 32.499 -2s19.5 -2.66602 30.5 -3.99902s24.833 -3.33301 41.5 -6l14 59c6.66699 32.667 -4 57 -32 73s-67 24 -117 24
c-48 0 -99 -5.5 -153 -16.5s-105.667 -28.833 -155 -53.5l-34 129c46 27.333 100.5 48.833 163.5 64.5s132.5 23.5 208.5 23.5c48 0 92.5 -4.5 133.5 -13.5s75.833 -23.333 104.5 -43s49.167 -44.834 61.5 -75.501s14.5 -68 6.5 -112l-111 -520h-186l22 109
c-39.333 -34.667 -84.666 -64.5 -135.999 -89.5s-111.666 -37.5 -180.999 -37.5c-90 0 -153.833 22.5 -191.5 67.5s-49.834 102.167 -36.501 171.5zM360 687.999c27.333 0 56.499 3.83398 87.499 11.501s59.667 17.167 86 28.5s48.833 24.666 67.5 39.999
s29.334 30.333 32.001 45l14 66c-34 5.33301 -62.333 8.33301 -85 9s-46 1 -70 1c-154.667 0 -240 -36.333 -256 -109c-4.66699 -23.333 0.5 -44.5 15.5 -63.5s51.167 -28.5 108.5 -28.5zM687.999 199h-745l39 186h745z" />
    <glyph glyph-name="guillemotleft" unicode="&#xab;" 
d="M453 444l-146 -120l-254 327l393 330l95 -121l-248 -209zM823 444l-145 -120l-254 327l393 330l94 -121l-247 -209z" />
    <glyph glyph-name="logicalnot" unicode="&#xac;" 
d="M835 13h-186l80 372h-745l38 187h932z" />
    <glyph glyph-name="uni00AD" unicode="&#xad;" 
d="M915 385h-931l38 187h932z" />
    <glyph glyph-name="registered" unicode="&#xae;" 
d="M1217 932c-15.333 -74 -44.167 -144.833 -86.5 -212.5s-93.5 -127 -153.5 -178s-127.5 -91.833 -202.5 -122.5s-152.833 -46 -233.5 -46c-72.667 0 -140 13.333 -202 40s-113.5 64.5 -154.5 113.5s-70 107.667 -87 176s-16.833 144.833 0.5 229.5
c16.667 76.667 46.834 149 90.501 217s96.167 127.333 157.5 178s129.333 90.667 204 120s150.667 44 228 44c75.333 0 143.666 -14 204.999 -42s112.166 -67.333 152.499 -118s68.333 -110 84 -178s14.834 -141.667 -2.49902 -221zM1151 932
c15.333 66.667 16.498 129.667 3.49805 189s-37 111.666 -72 156.999s-79.833 81.166 -134.5 107.499s-116 39.5 -184 39.5s-134.5 -12.5 -199.5 -37.5s-124.833 -59.667 -179.5 -104s-101.5 -96.666 -140.5 -156.999s-65.833 -125.166 -80.5 -194.499
c-15.333 -70 -16.166 -135 -2.49902 -195s38 -112.167 73 -156.5s79.833 -79.166 134.5 -104.499s116.667 -38 186 -38c66.667 0 132.834 12.667 198.501 38s125.5 60.166 179.5 104.499s100 96.5 138 156.5s64.667 125 80 195zM892.997 596l-207 0.000976562l-74 227h-34
l-50 -227h-174l144 676h268c34 0 66 -4.5 96 -13.5s55 -22.667 75 -41s33.667 -41.833 41 -70.5s7 -62 -1 -100c-10.667 -53.333 -29.667 -96.833 -57 -130.5s-70.333 -62.834 -129 -87.501zM804.997 1047c6.66699 30 3.83203 51.833 -8.50098 65.5
s-32.166 20.5 -59.499 20.5h-94l-35 -168h94c27.333 0 50.333 8.16699 69 24.5s30 35.5 34 57.5z" />
    <glyph glyph-name="macron" unicode="&#xaf;" 
d="M868 1044h-559l37 175h559z" />
    <glyph glyph-name="degree" unicode="&#xb0;" 
d="M139 1118c10 50.667 29.9971 98.834 59.9971 144.501s65.167 85.334 105.5 119.001s85 60.334 134 80.001s99.5 29.5 151.5 29.5c50.667 0 96.834 -9.83301 138.501 -29.5s75.667 -46.334 102 -80.001s44.333 -73.334 54 -119.001s9.83398 -93.834 0.500977 -144.501
c-12.667 -52 -33.667 -100.5 -63 -145.5s-64.166 -84.167 -104.499 -117.5s-85.333 -60 -135 -80s-99.834 -30 -150.501 -30c-52 0 -98.5 10 -139.5 30s-74.667 46.667 -101 80s-44.666 72.5 -54.999 117.5s-9.5 93.5 2.5 145.5zM278.997 1116
c-7.33301 -31.333 -7.50293 -61 -0.50293 -89s18.333 -52.167 34 -72.5s36.5 -36.666 62.5 -48.999s54.667 -18.5 86 -18.5s62 6.16699 92 18.5s57.667 28.666 83 48.999s46.833 44.5 64.5 72.5s29.834 57.667 36.501 89c7.33301 31.333 7.83301 61 1.5 89
s-17.666 52.333 -33.999 73s-37.166 37.167 -62.499 49.5s-53.666 18.5 -84.999 18.5s-62.333 -6.16699 -93 -18.5s-58.334 -28.833 -83.001 -49.5s-46.167 -45 -64.5 -73s-30.833 -57.667 -37.5 -89z" />
    <glyph glyph-name="plusminus" unicode="&#xb1;" 
d="M915 385h-372l-70 -323h-186l69 323h-372l38 187h373l80 372h186l-79 -372h372zM795 -186h-932l39 186h931z" />
    <glyph glyph-name="twosuperior" unicode="&#xb2;" 
d="M594 1149c-6.66699 -28.667 -18.6689 -55 -36.002 -79s-38 -45.333 -62 -64l-168 -134h204l-26 -127h-404l27 127l260 209c14 11.333 24.333 21.333 31 30s11.334 20 14.001 34c2.66699 12 0 21.5 -8 28.5s-18.333 10.5 -31 10.5c-22 0 -39.333 -7.16699 -52 -21.5
s-23.334 -40.833 -32.001 -79.5h-153c32.667 154.667 121.334 232 266.001 232c24.667 0 48.5 -3.5 71.5 -10.5s43.167 -17.333 60.5 -31s29.333 -30.667 36 -51s7.33398 -44.833 2.00098 -73.5z" />
    <glyph glyph-name="threesuperior" unicode="&#xb3;" 
d="M545 915c-11.333 -44.667 -39.168 -84.501 -83.501 -119.501s-95.833 -52.5 -154.5 -52.5c-135.333 0 -196 65.667 -182 197l156 14c-7.33301 -56 9.66699 -84 51 -84c13.333 0 25.833 4.5 37.5 13.5s18.834 21.167 21.501 36.5
c5.33301 25.333 1.83301 43.166 -10.5 53.499s-34.166 15.5 -65.499 15.5l21 98c53.333 0 84 18.667 92 56c5.33301 27.333 -7 41 -37 41c-14.667 0 -28.5 -6.83301 -41.5 -20.5s-22.167 -34.167 -27.5 -61.5h-150c15.333 69.333 46.666 122 93.999 158
c45.333 32.667 98.666 49 159.999 49c58.667 0 102 -14.667 130 -44s37.333 -67.333 28 -114c-11.333 -49.333 -40 -85.666 -86 -108.999c40.667 -35.333 56.334 -77.666 47.001 -126.999z" />
    <glyph glyph-name="acute" unicode="&#xb4;" 
d="M872 1225l-485 -244l-57 137l463 287z" />
    <glyph glyph-name="mu" unicode="&#xb5;" 
d="M301 -23c-65.333 0 -110.333 18.001 -135 54.001l-86 -404h-207l274 1305h209l-123 -578c-14.667 -72 -11.167 -121.667 10.5 -149s58.5 -41 110.5 -41c76.667 0 145.334 30.667 206.001 92s102.667 146.666 126 255.999l88 420h207l-197 -932h-206l49 231
c-38.667 -80 -88.334 -142.333 -149.001 -187s-119.667 -67 -177 -67z" />
    <glyph glyph-name="paragraph" unicode="&#xb6;" 
d="M96 915c26 128.667 85.834 225.835 179.501 291.502s212.167 98.5 355.5 98.5h479l-276 -1305h-207l110 526h-155l-111 -526h-207l113 532c-106.667 15.333 -186.334 54.666 -239.001 117.999s-66.667 151.666 -42 264.999zM709.001 1118l-88 -405h155l88 405h-155z
M303.001 915.001c-10.667 -48.667 -6.49902 -92.498 12.501 -131.498s52.5 -61.167 100.5 -66.5l84 397c-24.667 -2.66699 -48 -9.83398 -70 -21.501s-41.833 -26.667 -59.5 -45s-32.334 -38.833 -44.001 -61.5s-19.5 -46.334 -23.5 -71.001z" />
    <glyph glyph-name="periodcentered" unicode="&#xb7;" 
d="M567 352h-252l54 252h252z" />
    <glyph glyph-name="cedilla" unicode="&#xb8;" 
d="M481 -41c-9.33301 -46.667 -26.333 -90.001 -51 -130.001s-55 -74.667 -91 -104s-77.333 -52.666 -124 -69.999s-97.334 -26 -152.001 -26l39 178c58.667 0 104.834 13.333 138.501 40s55.167 64 64.5 112l10 41h177z" />
    <glyph glyph-name="onesuperior" unicode="&#xb9;" 
d="M473 745h-338l27 127h90l49 234c-13.333 -12.667 -34.666 -25.667 -63.999 -39s-67.333 -20 -114 -20l29 135c17.333 0 36.333 3 57 9s40.167 14.5 58.5 25.5s34.666 24 48.999 39s23.5 31.5 27.5 49.5h158l-92 -433h90z" />
    <glyph glyph-name="ordmasculine" unicode="&#xba;" 
d="M862 930c-12 -57.333 -32.666 -110.333 -61.999 -159s-64.833 -90 -106.5 -124s-88.834 -60.5 -141.501 -79.5s-107.667 -28.5 -165 -28.5s-108.166 9.16699 -152.499 27.5s-80.166 44.5 -107.499 78.5s-45.5 75 -54.5 123s-7.16699 102 5.5 162
c12 58.667 32.667 112.5 62 161.5s65.166 90.667 107.499 125s89.833 61 142.5 80s107.667 28.5 165 28.5s108.166 -9.5 152.499 -28.5s79.833 -45.667 106.5 -80s44.5 -76 53.5 -125s7.16699 -102.833 -5.5 -161.5zM686.001 930c16.667 76 9.5 135.667 -21.5 179
s-78.5 65 -142.5 65s-120.5 -21.667 -169.5 -65s-81.833 -103 -98.5 -179c-16.667 -76.667 -9.5 -135.834 21.5 -177.501s79.167 -62.5 144.5 -62.5s122 20.833 170 62.5s80 100.834 96 177.501zM688.001 199h-745l39 186h745z" />
    <glyph glyph-name="guillemotright" unicode="&#xbb;" 
d="M719 651l-158 209l144 121l253 -330l-393 -327l-92 120zM348 651l-158 209l144 121l254 -330l-393 -327l-93 120z" />
    <glyph glyph-name="onequarter" unicode="&#xbc;" 
d="M1122 1257l-1112 -1298l-116 88l1114 1303zM473 745h-338l27 127h90l49 234c-13.333 -12.667 -34.666 -25.667 -63.999 -39s-67.333 -20 -114 -20l29 135c17.333 0 36.333 3 57 9s40.167 14.5 58.5 25.5s34.666 24 48.999 39s23.5 31.5 27.5 49.5h158l-92 -433h90zM754 0
h-156l23 113h-199l33 151l276 295h141l-67 -317h90l-29 -129h-90zM649 242l21 104l-101 -104h80z" />
    <glyph glyph-name="onehalf" unicode="&#xbd;" 
d="M930 403c-5.33301 -28.667 -16.998 -54.8311 -34.998 -78.498s-39.333 -45.167 -64 -64.5l-165 -133h204l-26 -127h-404l27 127l258 209c15.333 10.667 26.333 20.5 33 29.5s11.334 20.167 14.001 33.5c2.66699 12.667 0 22.334 -8 29.001s-18.333 10 -31 10
c-22 0 -39.333 -7.16699 -52 -21.5s-23.334 -40.5 -32.001 -78.5h-153c32.667 154 121.334 231 266.001 231c24.667 0 48.167 -3.33301 70.5 -10s42.166 -16.834 59.499 -30.501s29.666 -30.834 36.999 -51.501s7.66602 -45.334 0.999023 -74.001zM1122 1257l-1112 -1298
l-116 88l1114 1303zM473.002 745.003h-338l27 127h90l49 234c-13.333 -12.667 -34.666 -25.667 -63.999 -39s-67.333 -20 -114 -20l29 135c17.333 0 36.333 3 57 9s40.167 14.5 58.5 25.5s34.666 24 48.999 39s23.5 31.5 27.5 49.5h158l-92 -433h90z" />
    <glyph glyph-name="threequarters" unicode="&#xbe;" 
d="M545 915c-11.333 -44.667 -39.168 -84.501 -83.501 -119.501s-95.833 -52.5 -154.5 -52.5c-135.333 0 -196 65.667 -182 197l156 14c-7.33301 -56 9.66699 -84 51 -84c13.333 0 25.833 4.5 37.5 13.5s18.834 21.167 21.501 36.5
c5.33301 25.333 1.83301 43.166 -10.5 53.499s-34.166 15.5 -65.499 15.5l21 98c53.333 0 84 18.667 92 56c5.33301 27.333 -7 41 -37 41c-14.667 0 -28.5 -6.83301 -41.5 -20.5s-22.167 -34.167 -27.5 -61.5h-150c15.333 69.333 46.666 122 93.999 158
c45.333 32.667 98.666 49 159.999 49c58.667 0 102 -14.667 130 -44s37.333 -67.333 28 -114c-11.333 -49.333 -40 -85.666 -86 -108.999c40.667 -35.333 56.334 -77.666 47.001 -126.999zM753.998 -0.000976562h-156l23 113h-199l33 151l276 295h141l-67 -317h90l-29 -129
h-90zM648.998 241.999l21 104l-101 -104h80zM1122 1257l-1112 -1298l-116 88l1114 1303z" />
    <glyph glyph-name="questiondown" unicode="&#xbf;" 
d="M174 301c9.33301 49.333 26.999 92.332 52.999 128.999s55.5 70.834 88.5 102.501s67.833 61.5 104.5 89.5s71.334 57 104.001 87s61.667 63 87 99s43 77.333 53 124h213c-12.667 -56 -32.334 -105.167 -59.001 -147.5s-57.334 -81 -92.001 -116
s-70.5 -67.167 -107.5 -96.5l-105.5 -87c-33.333 -28.667 -62 -58 -86 -88s-39.333 -62.667 -46 -98c-9.33301 -44 -3.5 -77.5 17.5 -100.5s53.5 -34.5 97.5 -34.5c65.333 0 116.833 18 154.5 54s66.5 86.333 86.5 151l187 -29c-37.333 -112 -95.166 -200.5 -173.499 -265.5
s-176.166 -97.5 -293.499 -97.5c-110.667 0 -191 29.5 -241 88.5s-64 137.5 -42 235.5zM704.999 1305h251l-53 -252h-252z" />
    <glyph glyph-name="Agrave" unicode="&#xc0;" 
d="M678 0l-29 311h-432l-158 -311h-217l684 1305h238l131 -1305h-217zM311 494h322l-45 538zM623 1776l344 -287l-119 -137l-379 244z" />
    <glyph glyph-name="Aacute" unicode="&#xc1;" 
d="M678 0l-29 311h-432l-158 -311h-217l684 1305h238l131 -1305h-217zM311 494h322l-45 538zM952 1596l-485 -244l-57 137l463 287z" />
    <glyph glyph-name="Acircumflex" unicode="&#xc2;" 
d="M678 0l-29 311h-432l-158 -311h-217l684 1305h238l131 -1305h-217zM311 494h322l-45 538zM1002 1456l-101 -102l-198 205l-291 -207l-58 100l392 318z" />
    <glyph glyph-name="Atilde" unicode="&#xc3;" 
d="M678 0l-29 311h-432l-158 -311h-217l684 1305h238l131 -1305h-217zM311 494h322l-45 538zM1120 1616c-44.667 -64 -93.6641 -114.167 -146.997 -150.5s-110.666 -54.5 -171.999 -54.5c-32.667 0 -59.334 6.16699 -80.001 18.5s-39.5 25.666 -56.5 39.999
s-34 27.666 -51 39.999s-37.833 18.5 -62.5 18.5c-34 0 -65 -10.5 -93 -31.5s-57 -50.167 -87 -87.5l-107 70c45.333 62.667 94.666 112.167 147.999 148.5s110.666 54.5 171.999 54.5c32.667 0 59.167 -6.16699 79.5 -18.5s39.166 -25.666 56.499 -39.999
s34.5 -27.666 51.5 -39.999s37.833 -18.5 62.5 -18.5c34 0 65 10.5 93 31.5s57 50.833 87 89.5z" />
    <glyph glyph-name="Adieresis" unicode="&#xc4;" 
d="M678 0l-29 311h-432l-158 -311h-217l684 1305h238l131 -1305h-217zM311 494h322l-45 538zM983 1424h-252l54 252h251zM610 1424h-251l53 252h252z" />
    <glyph glyph-name="Aring" unicode="&#xc5;" 
d="M451 1450c6.66699 31.333 18.502 60.666 35.502 87.999s38.167 51.166 63.5 71.499s52.666 36.333 81.999 48s59.666 17.5 90.999 17.5s59.666 -5.83301 84.999 -17.5s45.833 -27.667 61.5 -48s26.5 -44.166 32.5 -71.499s5.66699 -56.666 -1 -87.999
c-8 -38 -24 -73.167 -48 -105.5s-52.333 -58.5 -85 -78.5l127 -1266h-217l-29 311h-432l-158 -311h-217l664 1266c-24.667 20 -42.167 46.167 -52.5 78.5s-11.166 67.5 -2.49902 105.5zM311.002 494h322l-45 538zM584.002 1450c-6 -26 -2.16602 -47.833 11.501 -65.5
s33.5 -26.5 59.5 -26.5s50 8.83301 72 26.5s35.667 39.5 41 65.5s1.16602 47.833 -12.501 65.5s-33.5 26.5 -59.5 26.5s-49.833 -8.83301 -71.5 -26.5s-35.167 -39.5 -40.5 -65.5z" />
    <glyph glyph-name="AE" unicode="&#xc6;" 
d="M297 0l65 311h-169l-142 -311h-213l641 1305h631l-39 -187h-330l-77 -360h280l-39 -187h-280l-82 -385h329l-38 -186h-537zM274 494h127l109 516z" />
    <glyph glyph-name="Ccedilla" unicode="&#xc7;" 
d="M938 399c-52 -108.667 -114.832 -199.664 -188.499 -272.997s-161.167 -119.333 -262.5 -138l-6 -29c-9.33301 -46.667 -26.333 -90 -51 -130s-55 -74.667 -91 -104s-77.333 -52.666 -124 -69.999s-97.334 -26 -152.001 -26l39 178c58.667 0 104.834 13.333 138.501 40
s55.167 64 64.5 112l6 23c-77.333 9.33301 -139 34.166 -185 74.499s-79.833 91.166 -101.5 152.499s-32.167 130.166 -31.5 206.499s9 155.5 25 237.5c19.333 87.333 46.5 171.666 81.5 252.999s79 153 132 215s114 111.833 183 149.5s147.833 56.5 236.5 56.5
c28.667 0 57 -3.66699 85 -11s53 -18.5 75 -33.5s40.167 -33.5 54.5 -55.5s22.833 -47.333 25.5 -76l33 154h186l-104 -494h-187c8 40.667 11 80.834 9 120.501s-10.5 74.834 -25.5 105.501s-37.167 55.667 -66.5 75s-66.333 29 -111 29
c-58.667 0 -109.834 -14.333 -153.501 -43s-81.667 -66.334 -114 -113.001s-59.333 -99 -81 -157s-38.834 -116.333 -51.501 -175c-12 -58.667 -19.667 -117.334 -23 -176.001s0.666992 -111.167 12 -157.5s33.5 -83.833 66.5 -112.5s78.833 -43 137.5 -43
c84.667 0 155.334 27 212.001 81s108.667 126.667 156 218z" />
    <glyph glyph-name="Egrave" unicode="&#xc8;" 
d="M784 0h-833l276 1305h834l-39 -187h-627l-78 -360h490l-39 -187h-489l-82 -385h626zM623 1776l344 -287l-119 -137l-379 244z" />
    <glyph glyph-name="Eacute" unicode="&#xc9;" 
d="M784 0h-833l276 1305h834l-39 -187h-627l-78 -360h490l-39 -187h-489l-82 -385h626zM952 1596l-485 -244l-57 137l463 287z" />
    <glyph glyph-name="Ecircumflex" unicode="&#xca;" 
d="M784 0h-833l276 1305h834l-39 -187h-627l-78 -360h490l-39 -187h-489l-82 -385h626zM1002 1456l-101 -102l-198 205l-291 -207l-58 100l392 318z" />
    <glyph glyph-name="Edieresis" unicode="&#xcb;" 
d="M784 0h-833l276 1305h834l-39 -187h-627l-78 -360h490l-39 -187h-489l-82 -385h626zM983 1424h-252l54 252h251zM610 1424h-251l53 252h252z" />
    <glyph glyph-name="Igrave" unicode="&#xcc;" 
d="M684 0h-627l39 186h207l199 932h-207l39 187h627l-39 -187h-213l-199 -932h213zM623 1776l344 -287l-119 -137l-379 244z" />
    <glyph glyph-name="Iacute" unicode="&#xcd;" 
d="M684 0h-627l39 186h207l199 932h-207l39 187h627l-39 -187h-213l-199 -932h213zM952 1596l-485 -244l-57 137l463 287z" />
    <glyph glyph-name="Icircumflex" unicode="&#xce;" 
d="M684 0h-627l39 186h207l199 932h-207l39 187h627l-39 -187h-213l-199 -932h213zM1002 1456l-101 -102l-198 205l-291 -207l-58 100l392 318z" />
    <glyph glyph-name="Idieresis" unicode="&#xcf;" 
d="M684 0h-627l39 186h207l199 932h-207l39 187h627l-39 -187h-213l-199 -932h213zM983 1424h-252l54 252h251zM610 1424h-251l53 252h252z" />
    <glyph glyph-name="Eth" unicode="&#xd0;" 
d="M-55 758h166l116 547h424c88.667 0 161 -17.833 217 -53.5s97.667 -83.167 125 -142.5s42.333 -128.333 45 -207s-5.33301 -161.667 -24 -249c-18 -87.333 -44.667 -170.5 -80 -249.5s-79.333 -148.333 -132 -208s-114.5 -107.167 -185.5 -142.5s-151.5 -53 -241.5 -53
h-424l121 571h-166zM807 653c32.667 150.667 32.001 265.833 -1.99902 345.5s-98.333 119.5 -193 119.5h-217l-78 -360h185l-39 -187h-184l-82 -385h217c94 0 175.167 40.667 243.5 122s118.166 196.333 149.499 345z" />
    <glyph glyph-name="Ntilde" unicode="&#xd1;" 
d="M784 0h-239l-187 946l-200 -946h-207l276 1305h260l177 -899l190 899h207zM1120 1616c-44.667 -64 -93.6641 -114.167 -146.997 -150.5s-110.666 -54.5 -171.999 -54.5c-32.667 0 -59.334 6.16699 -80.001 18.5s-39.5 25.666 -56.5 39.999s-34 27.666 -51 39.999
s-37.833 18.5 -62.5 18.5c-34 0 -65 -10.5 -93 -31.5s-57 -50.167 -87 -87.5l-107 70c45.333 62.667 94.666 112.167 147.999 148.5s110.666 54.5 171.999 54.5c32.667 0 59.167 -6.16699 79.5 -18.5s39.166 -25.666 56.499 -39.999s34.5 -27.666 51.5 -39.999
s37.833 -18.5 62.5 -18.5c34 0 65 10.5 93 31.5s57 50.833 87 89.5z" />
    <glyph glyph-name="Ograve" unicode="&#xd2;" 
d="M6 653c19.333 87.333 46.665 171.666 81.998 252.999s79.666 153 132.999 215s115.5 111.833 186.5 149.5s151.5 56.5 241.5 56.5s163 -18.833 219 -56.5s97.333 -87.5 124 -149.5s40.334 -133.667 41.001 -215s-8.33301 -165.666 -27 -252.999
c-18 -87.333 -44.833 -171.5 -80.5 -252.5s-79.667 -153 -132 -216s-114.333 -113.333 -186 -151s-153.5 -56.5 -245.5 -56.5c-91.333 0 -164.666 18.833 -219.999 56.5s-96.166 88 -122.499 151s-39.5 135 -39.5 216s8.66699 165.167 26 252.5zM212.999 653
c-12 -58.667 -19.835 -117.335 -23.502 -176.002s0.333008 -111.167 12 -157.5s33.5 -83.833 65.5 -112.5s77.333 -43 136 -43c59.333 0 110.5 14.333 153.5 43s80.5 66.167 112.5 112.5s58.5 98.833 79.5 157.5s37.833 117.334 50.5 176.001c12 58.667 20 117 24 175
s0 110.333 -12 157s-34.167 84.334 -66.5 113.001s-77.166 43 -134.499 43c-95.333 0 -177.166 -43 -245.499 -129s-118.833 -205.667 -151.5 -359zM622.997 1776l344 -287l-119 -137l-379 244z" />
    <glyph glyph-name="Oacute" unicode="&#xd3;" 
d="M6 653c19.333 87.333 46.665 171.666 81.998 252.999s79.666 153 132.999 215s115.5 111.833 186.5 149.5s151.5 56.5 241.5 56.5s163 -18.833 219 -56.5s97.333 -87.5 124 -149.5s40.334 -133.667 41.001 -215s-8.33301 -165.666 -27 -252.999
c-18 -87.333 -44.833 -171.5 -80.5 -252.5s-79.667 -153 -132 -216s-114.333 -113.333 -186 -151s-153.5 -56.5 -245.5 -56.5c-91.333 0 -164.666 18.833 -219.999 56.5s-96.166 88 -122.499 151s-39.5 135 -39.5 216s8.66699 165.167 26 252.5zM212.999 653
c-12 -58.667 -19.835 -117.335 -23.502 -176.002s0.333008 -111.167 12 -157.5s33.5 -83.833 65.5 -112.5s77.333 -43 136 -43c59.333 0 110.5 14.333 153.5 43s80.5 66.167 112.5 112.5s58.5 98.833 79.5 157.5s37.833 117.334 50.5 176.001c12 58.667 20 117 24 175
s0 110.333 -12 157s-34.167 84.334 -66.5 113.001s-77.166 43 -134.499 43c-95.333 0 -177.166 -43 -245.499 -129s-118.833 -205.667 -151.5 -359zM951.997 1596l-485 -244l-57 137l463 287z" />
    <glyph glyph-name="Ocircumflex" unicode="&#xd4;" 
d="M6 653c19.333 87.333 46.665 171.666 81.998 252.999s79.666 153 132.999 215s115.5 111.833 186.5 149.5s151.5 56.5 241.5 56.5s163 -18.833 219 -56.5s97.333 -87.5 124 -149.5s40.334 -133.667 41.001 -215s-8.33301 -165.666 -27 -252.999
c-18 -87.333 -44.833 -171.5 -80.5 -252.5s-79.667 -153 -132 -216s-114.333 -113.333 -186 -151s-153.5 -56.5 -245.5 -56.5c-91.333 0 -164.666 18.833 -219.999 56.5s-96.166 88 -122.499 151s-39.5 135 -39.5 216s8.66699 165.167 26 252.5zM212.999 653
c-12 -58.667 -19.835 -117.335 -23.502 -176.002s0.333008 -111.167 12 -157.5s33.5 -83.833 65.5 -112.5s77.333 -43 136 -43c59.333 0 110.5 14.333 153.5 43s80.5 66.167 112.5 112.5s58.5 98.833 79.5 157.5s37.833 117.334 50.5 176.001c12 58.667 20 117 24 175
s0 110.333 -12 157s-34.167 84.334 -66.5 113.001s-77.166 43 -134.499 43c-95.333 0 -177.166 -43 -245.499 -129s-118.833 -205.667 -151.5 -359zM1002 1456l-101 -102l-198 205l-291 -207l-58 100l392 318z" />
    <glyph glyph-name="Otilde" unicode="&#xd5;" 
d="M6 653c19.333 87.333 46.665 171.666 81.998 252.999s79.666 153 132.999 215s115.5 111.833 186.5 149.5s151.5 56.5 241.5 56.5s163 -18.833 219 -56.5s97.333 -87.5 124 -149.5s40.334 -133.667 41.001 -215s-8.33301 -165.666 -27 -252.999
c-18 -87.333 -44.833 -171.5 -80.5 -252.5s-79.667 -153 -132 -216s-114.333 -113.333 -186 -151s-153.5 -56.5 -245.5 -56.5c-91.333 0 -164.666 18.833 -219.999 56.5s-96.166 88 -122.499 151s-39.5 135 -39.5 216s8.66699 165.167 26 252.5zM212.999 653
c-12 -58.667 -19.835 -117.335 -23.502 -176.002s0.333008 -111.167 12 -157.5s33.5 -83.833 65.5 -112.5s77.333 -43 136 -43c59.333 0 110.5 14.333 153.5 43s80.5 66.167 112.5 112.5s58.5 98.833 79.5 157.5s37.833 117.334 50.5 176.001c12 58.667 20 117 24 175
s0 110.333 -12 157s-34.167 84.334 -66.5 113.001s-77.166 43 -134.499 43c-95.333 0 -177.166 -43 -245.499 -129s-118.833 -205.667 -151.5 -359zM1120 1616c-44.667 -64 -93.6641 -114.167 -146.997 -150.5s-110.666 -54.5 -171.999 -54.5
c-32.667 0 -59.334 6.16699 -80.001 18.5s-39.5 25.666 -56.5 39.999s-34 27.666 -51 39.999s-37.833 18.5 -62.5 18.5c-34 0 -65 -10.5 -93 -31.5s-57 -50.167 -87 -87.5l-107 70c45.333 62.667 94.666 112.167 147.999 148.5s110.666 54.5 171.999 54.5
c32.667 0 59.167 -6.16699 79.5 -18.5s39.166 -25.666 56.499 -39.999s34.5 -27.666 51.5 -39.999s37.833 -18.5 62.5 -18.5c34 0 65 10.5 93 31.5s57 50.833 87 89.5z" />
    <glyph glyph-name="Odieresis" unicode="&#xd6;" 
d="M6 653c19.333 87.333 46.665 171.666 81.998 252.999s79.666 153 132.999 215s115.5 111.833 186.5 149.5s151.5 56.5 241.5 56.5s163 -18.833 219 -56.5s97.333 -87.5 124 -149.5s40.334 -133.667 41.001 -215s-8.33301 -165.666 -27 -252.999
c-18 -87.333 -44.833 -171.5 -80.5 -252.5s-79.667 -153 -132 -216s-114.333 -113.333 -186 -151s-153.5 -56.5 -245.5 -56.5c-91.333 0 -164.666 18.833 -219.999 56.5s-96.166 88 -122.499 151s-39.5 135 -39.5 216s8.66699 165.167 26 252.5zM212.999 653
c-12 -58.667 -19.835 -117.335 -23.502 -176.002s0.333008 -111.167 12 -157.5s33.5 -83.833 65.5 -112.5s77.333 -43 136 -43c59.333 0 110.5 14.333 153.5 43s80.5 66.167 112.5 112.5s58.5 98.833 79.5 157.5s37.833 117.334 50.5 176.001c12 58.667 20 117 24 175
s0 110.333 -12 157s-34.167 84.334 -66.5 113.001s-77.166 43 -134.499 43c-95.333 0 -177.166 -43 -245.499 -129s-118.833 -205.667 -151.5 -359zM982.997 1424h-252l54 252h251zM609.997 1424h-251l53 252h252z" />
    <glyph glyph-name="multiply" unicode="&#xd7;" 
d="M915 748l-327 -270l213 -271l-146 -119l-211 271l-327 -271l-95 119l326 271l-211 270l146 119l213 -271l325 271z" />
    <glyph glyph-name="Oslash" unicode="&#xd8;" 
d="M6 653c19.333 87.333 46.666 171.667 81.999 253s79.666 153 132.999 215s115.5 111.833 186.5 149.5s151.5 56.5 241.5 56.5c88.667 0 160.334 -17.333 215.001 -52s95.667 -82 123 -142l162 133l-47 -222l-74 -61c10.667 -101.333 3.33398 -211.333 -21.999 -330
c-18 -87.333 -44.833 -171.5 -80.5 -252.5s-79.667 -153 -132 -216s-114.333 -113.333 -186 -151s-153.5 -56.5 -245.5 -56.5c-86 0 -155.833 16.167 -209.5 48.5s-94.167 76.5 -121.5 132.5l-164 -138l45 222l74 61c-8.66699 52 -10.5 107.667 -5.5 167
s13.5 120.333 25.5 183zM213 653.001c-6.66699 -31.333 -12.501 -62.001 -17.501 -92.001s-8.16699 -60 -9.5 -90l625 514c-13.333 46.667 -35.833 84.334 -67.5 113.001s-76.167 43 -133.5 43c-95.333 0 -177.166 -43 -245.499 -129s-118.833 -205.667 -151.5 -359z
M402.999 164c59.333 0 110.5 14.332 153.5 42.999s80.5 66.167 112.5 112.5s58.5 98.833 79.5 157.5s37.833 117.334 50.5 176.001c6.66699 27.333 11.667 54 15 80s6.33301 52.667 9 80l-616 -510c13.333 -42 35.333 -75.667 66 -101s74 -38 130 -38z" />
    <glyph glyph-name="Ugrave" unicode="&#xd9;" 
d="M883 465c-16.667 -74 -39.3301 -141.001 -67.9971 -201.001s-64.834 -111.167 -108.501 -153.5s-94.167 -75.166 -151.5 -98.499s-122.333 -35 -195 -35c-72 0 -131.5 11.667 -178.5 35s-82.833 56.166 -107.5 98.499s-39 93.833 -43 154.5s2 128 18 202l178 838h207
l-178 -840c-6.66699 -32.667 -11.334 -66.5 -14.001 -101.5s-0.333984 -67.5 6.99902 -97.5s23.333 -54.5 48 -73.5s59.334 -28.5 104.001 -28.5c45.333 0 83.666 9.5 114.999 28.5s58 43.167 80 72.5s39.167 61.833 51.5 97.5s21.833 69.834 28.5 102.501l178 840h207z
M623.004 1776l344 -287l-119 -137l-379 244z" />
    <glyph glyph-name="Uacute" unicode="&#xda;" 
d="M883 465c-16.667 -74 -39.3301 -141.001 -67.9971 -201.001s-64.834 -111.167 -108.501 -153.5s-94.167 -75.166 -151.5 -98.499s-122.333 -35 -195 -35c-72 0 -131.5 11.667 -178.5 35s-82.833 56.166 -107.5 98.499s-39 93.833 -43 154.5s2 128 18 202l178 838h207
l-178 -840c-6.66699 -32.667 -11.334 -66.5 -14.001 -101.5s-0.333984 -67.5 6.99902 -97.5s23.333 -54.5 48 -73.5s59.334 -28.5 104.001 -28.5c45.333 0 83.666 9.5 114.999 28.5s58 43.167 80 72.5s39.167 61.833 51.5 97.5s21.833 69.834 28.5 102.501l178 840h207z
M952.004 1596l-485 -244l-57 137l463 287z" />
    <glyph glyph-name="Ucircumflex" unicode="&#xdb;" 
d="M883 465c-16.667 -74 -39.3301 -141.001 -67.9971 -201.001s-64.834 -111.167 -108.501 -153.5s-94.167 -75.166 -151.5 -98.499s-122.333 -35 -195 -35c-72 0 -131.5 11.667 -178.5 35s-82.833 56.166 -107.5 98.499s-39 93.833 -43 154.5s2 128 18 202l178 838h207
l-178 -840c-6.66699 -32.667 -11.334 -66.5 -14.001 -101.5s-0.333984 -67.5 6.99902 -97.5s23.333 -54.5 48 -73.5s59.334 -28.5 104.001 -28.5c45.333 0 83.666 9.5 114.999 28.5s58 43.167 80 72.5s39.167 61.833 51.5 97.5s21.833 69.834 28.5 102.501l178 840h207z
M1002 1456l-101 -102l-198 205l-291 -207l-58 100l392 318z" />
    <glyph glyph-name="Udieresis" unicode="&#xdc;" 
d="M883 465c-16.667 -74 -39.3301 -141.001 -67.9971 -201.001s-64.834 -111.167 -108.501 -153.5s-94.167 -75.166 -151.5 -98.499s-122.333 -35 -195 -35c-72 0 -131.5 11.667 -178.5 35s-82.833 56.166 -107.5 98.499s-39 93.833 -43 154.5s2 128 18 202l178 838h207
l-178 -840c-6.66699 -32.667 -11.334 -66.5 -14.001 -101.5s-0.333984 -67.5 6.99902 -97.5s23.333 -54.5 48 -73.5s59.334 -28.5 104.001 -28.5c45.333 0 83.666 9.5 114.999 28.5s58 43.167 80 72.5s39.167 61.833 51.5 97.5s21.833 69.834 28.5 102.501l178 840h207z
M983.004 1424h-252l54 252h251zM610.004 1424h-251l53 252h252z" />
    <glyph glyph-name="Yacute" unicode="&#xdd;" 
d="M1092 1118h-95l-413 -586l-74 -346h209l-39 -186h-625l39 186h209l74 346l-164 586h-94l39 187h411l-39 -187h-90l84 -383l246 383h-90l39 187h411zM952 1596l-485 -244l-57 137l463 287z" />
    <glyph glyph-name="Thorn" unicode="&#xde;" 
d="M973 664c-27.333 -131.333 -87.501 -228.333 -180.501 -291s-210.5 -94 -352.5 -94h-225l-57 -279h-207l276 1305h207l-55 -256h223c143.333 0 247.833 -32.167 313.5 -96.5s84.834 -160.5 57.501 -288.5zM767.999 664c15.333 66.667 4.16895 116.333 -33.498 149
s-94.167 49 -169.5 49h-225l-84 -397h225c75.333 0 138.666 16 189.999 48s83.666 82.333 96.999 151z" />
    <glyph glyph-name="germandbls" unicode="&#xdf;" 
d="M889 268c-8 -40.667 -24.665 -78.833 -49.998 -114.5s-56.5 -66.334 -93.5 -92.001s-78.667 -46.167 -125 -61.5s-94.833 -23 -145.5 -23c-65.333 0 -119.833 9.33301 -163.5 28s-84.167 45.667 -121.5 81l152 162c28.667 -32.667 56.667 -54.834 84 -66.501
s57.333 -17.5 90 -17.5c50.667 0 89.667 10.5 117 31.5s44.333 45.833 51 74.5c5.33301 27.333 0.166016 51 -15.501 71s-36.167 38.833 -61.5 56.5s-53.333 35.334 -84 53.001s-57.834 37.834 -81.501 60.501s-42.334 49 -56.001 79s-15.834 66 -6.50098 108
c10.667 49.333 30 88.666 58 117.999s57.667 55 89 77s60 43.833 86 65.5s42.667 48.834 50 81.501c5.33301 24.667 2.5 47.667 -8.5 69s-39.167 32 -84.5 32c-66.667 0 -117 -25.333 -151 -76s-61.333 -123.667 -82 -219l-178 -846h-207l178 844
c10.667 50.667 26.334 104.334 47.001 161.001s49 108.834 85 156.501s82.333 87.167 139 118.5s126 47 208 47c50.667 0 94.5 -7.5 131.5 -22.5s66.333 -35.167 88 -60.5s36 -55.333 43 -90s5.5 -72.667 -4.5 -114c-10.667 -54.667 -30.334 -98.334 -59.001 -131.001
s-58.667 -59.834 -90 -81.501l-85 -58.5c-25.333 -17.333 -40.666 -37.333 -45.999 -60c-4 -18 2.5 -34.167 19.5 -48.5s38.5 -29.333 64.5 -45l84 -52c30 -19 56.833 -41.833 80.5 -68.5s41.334 -58.5 53.001 -95.5s12.167 -80.833 1.5 -131.5z" />
    <glyph glyph-name="agrave" unicode="&#xe0;" 
d="M-47 268c12 54.667 37.1719 102.502 75.5049 143.502s84.166 75.167 137.499 102.5s112 47.833 176 61.5s128.333 20.5 193 20.5c35.333 0 65.666 -0.666992 90.999 -2s50.666 -3.33301 75.999 -6l7 37c10.667 48.667 -0.333008 85 -33 109s-79.667 36 -141 36
c-56 0 -114.5 -7.83301 -175.5 -23.5s-120.833 -38.5 -179.5 -68.5l-49 162c68 35.333 139.667 63.166 215 83.499s151.666 30.5 228.999 30.5c50.667 0 99.334 -5.66699 146.001 -17s86.667 -30 120 -56s57.166 -59.833 71.499 -101.5s14.5 -93.167 0.5 -154.5l-131 -625
h-204l28 137c-43.333 -50.667 -99.833 -90 -169.5 -118s-141.5 -42 -215.5 -42c-44.667 0 -85.834 6.16699 -123.501 18.5s-68.5 30.833 -92.5 55.5s-41 55.167 -51 91.5s-10.333 78.166 -1 125.499zM313.005 162.002c41.333 0 80.665 5.16797 117.998 15.501
s71.833 24.666 103.5 42.999s58 40.5 79 66.5s34.833 54.667 41.5 86l9 35c-32 5.33301 -62.333 8.33301 -91 9s-53.667 1 -75 1c-101.333 0 -180.666 -13.333 -237.999 -40s-90.666 -59.667 -99.999 -99c-16.667 -78 34.333 -117 153 -117zM543.004 1405l344 -287
l-119 -137l-379 244z" />
    <glyph glyph-name="aacute" unicode="&#xe1;" 
d="M-47 268c12 54.667 37.1719 102.502 75.5049 143.502s84.166 75.167 137.499 102.5s112 47.833 176 61.5s128.333 20.5 193 20.5c35.333 0 65.666 -0.666992 90.999 -2s50.666 -3.33301 75.999 -6l7 37c10.667 48.667 -0.333008 85 -33 109s-79.667 36 -141 36
c-56 0 -114.5 -7.83301 -175.5 -23.5s-120.833 -38.5 -179.5 -68.5l-49 162c68 35.333 139.667 63.166 215 83.499s151.666 30.5 228.999 30.5c50.667 0 99.334 -5.66699 146.001 -17s86.667 -30 120 -56s57.166 -59.833 71.499 -101.5s14.5 -93.167 0.5 -154.5l-131 -625
h-204l28 137c-43.333 -50.667 -99.833 -90 -169.5 -118s-141.5 -42 -215.5 -42c-44.667 0 -85.834 6.16699 -123.501 18.5s-68.5 30.833 -92.5 55.5s-41 55.167 -51 91.5s-10.333 78.166 -1 125.499zM313.005 162.002c41.333 0 80.665 5.16797 117.998 15.501
s71.833 24.666 103.5 42.999s58 40.5 79 66.5s34.833 54.667 41.5 86l9 35c-32 5.33301 -62.333 8.33301 -91 9s-53.667 1 -75 1c-101.333 0 -180.666 -13.333 -237.999 -40s-90.666 -59.667 -99.999 -99c-16.667 -78 34.333 -117 153 -117zM872.004 1225l-485 -244l-57 137
l463 287z" />
    <glyph glyph-name="acircumflex" unicode="&#xe2;" 
d="M-47 268c12 54.667 37.1719 102.502 75.5049 143.502s84.166 75.167 137.499 102.5s112 47.833 176 61.5s128.333 20.5 193 20.5c35.333 0 65.666 -0.666992 90.999 -2s50.666 -3.33301 75.999 -6l7 37c10.667 48.667 -0.333008 85 -33 109s-79.667 36 -141 36
c-56 0 -114.5 -7.83301 -175.5 -23.5s-120.833 -38.5 -179.5 -68.5l-49 162c68 35.333 139.667 63.166 215 83.499s151.666 30.5 228.999 30.5c50.667 0 99.334 -5.66699 146.001 -17s86.667 -30 120 -56s57.166 -59.833 71.499 -101.5s14.5 -93.167 0.5 -154.5l-131 -625
h-204l28 137c-43.333 -50.667 -99.833 -90 -169.5 -118s-141.5 -42 -215.5 -42c-44.667 0 -85.834 6.16699 -123.501 18.5s-68.5 30.833 -92.5 55.5s-41 55.167 -51 91.5s-10.333 78.166 -1 125.499zM313.005 162.002c41.333 0 80.665 5.16797 117.998 15.501
s71.833 24.666 103.5 42.999s58 40.5 79 66.5s34.833 54.667 41.5 86l9 35c-32 5.33301 -62.333 8.33301 -91 9s-53.667 1 -75 1c-101.333 0 -180.666 -13.333 -237.999 -40s-90.666 -59.667 -99.999 -99c-16.667 -78 34.333 -117 153 -117zM922.004 1085l-101 -102
l-198 205l-291 -207l-58 100l392 318z" />
    <glyph glyph-name="atilde" unicode="&#xe3;" 
d="M-47 268c12 54.667 37.1719 102.502 75.5049 143.502s84.166 75.167 137.499 102.5s112 47.833 176 61.5s128.333 20.5 193 20.5c35.333 0 65.666 -0.666992 90.999 -2s50.666 -3.33301 75.999 -6l7 37c10.667 48.667 -0.333008 85 -33 109s-79.667 36 -141 36
c-56 0 -114.5 -7.83301 -175.5 -23.5s-120.833 -38.5 -179.5 -68.5l-49 162c68 35.333 139.667 63.166 215 83.499s151.666 30.5 228.999 30.5c50.667 0 99.334 -5.66699 146.001 -17s86.667 -30 120 -56s57.166 -59.833 71.499 -101.5s14.5 -93.167 0.5 -154.5l-131 -625
h-204l28 137c-43.333 -50.667 -99.833 -90 -169.5 -118s-141.5 -42 -215.5 -42c-44.667 0 -85.834 6.16699 -123.501 18.5s-68.5 30.833 -92.5 55.5s-41 55.167 -51 91.5s-10.333 78.166 -1 125.499zM313.005 162.002c41.333 0 80.665 5.16797 117.998 15.501
s71.833 24.666 103.5 42.999s58 40.5 79 66.5s34.833 54.667 41.5 86l9 35c-32 5.33301 -62.333 8.33301 -91 9s-53.667 1 -75 1c-101.333 0 -180.666 -13.333 -237.999 -40s-90.666 -59.667 -99.999 -99c-16.667 -78 34.333 -117 153 -117zM1040 1245
c-44.667 -64 -93.6641 -114.167 -146.997 -150.5s-110.666 -54.5 -171.999 -54.5c-32.667 0 -59.334 6.16699 -80.001 18.5s-39.5 25.666 -56.5 39.999s-34 27.666 -51 39.999s-37.833 18.5 -62.5 18.5c-34 0 -65 -10.5 -93 -31.5s-57 -50.167 -87 -87.5l-107 70
c45.333 62.667 94.666 112.167 147.999 148.5s110.666 54.5 171.999 54.5c32.667 0 59.167 -6.16699 79.5 -18.5s39.166 -25.666 56.499 -39.999s34.5 -27.666 51.5 -39.999s37.833 -18.5 62.5 -18.5c34 0 65 10.5 93 31.5s57 50.833 87 89.5z" />
    <glyph glyph-name="adieresis" unicode="&#xe4;" 
d="M-47 268c12 54.667 37.1719 102.502 75.5049 143.502s84.166 75.167 137.499 102.5s112 47.833 176 61.5s128.333 20.5 193 20.5c35.333 0 65.666 -0.666992 90.999 -2s50.666 -3.33301 75.999 -6l7 37c10.667 48.667 -0.333008 85 -33 109s-79.667 36 -141 36
c-56 0 -114.5 -7.83301 -175.5 -23.5s-120.833 -38.5 -179.5 -68.5l-49 162c68 35.333 139.667 63.166 215 83.499s151.666 30.5 228.999 30.5c50.667 0 99.334 -5.66699 146.001 -17s86.667 -30 120 -56s57.166 -59.833 71.499 -101.5s14.5 -93.167 0.5 -154.5l-131 -625
h-204l28 137c-43.333 -50.667 -99.833 -90 -169.5 -118s-141.5 -42 -215.5 -42c-44.667 0 -85.834 6.16699 -123.501 18.5s-68.5 30.833 -92.5 55.5s-41 55.167 -51 91.5s-10.333 78.166 -1 125.499zM313.005 162.002c41.333 0 80.665 5.16797 117.998 15.501
s71.833 24.666 103.5 42.999s58 40.5 79 66.5s34.833 54.667 41.5 86l9 35c-32 5.33301 -62.333 8.33301 -91 9s-53.667 1 -75 1c-101.333 0 -180.666 -13.333 -237.999 -40s-90.666 -59.667 -99.999 -99c-16.667 -78 34.333 -117 153 -117zM903.004 1053h-252l54 252h251z
M530.004 1053h-251l53 252h252z" />
    <glyph glyph-name="aring" unicode="&#xe5;" 
d="M-47 268c12 54.667 37.1719 102.502 75.5049 143.502s84.166 75.167 137.499 102.5s112 47.833 176 61.5s128.333 20.5 193 20.5c35.333 0 65.666 -0.666992 90.999 -2s50.666 -3.33301 75.999 -6l7 37c10.667 48.667 -0.333008 85 -33 109s-79.667 36 -141 36
c-56 0 -114.5 -7.83301 -175.5 -23.5s-120.833 -38.5 -179.5 -68.5l-49 162c68 35.333 139.667 63.166 215 83.499s151.666 30.5 228.999 30.5c50.667 0 99.334 -5.66699 146.001 -17s86.667 -30 120 -56s57.166 -59.833 71.499 -101.5s14.5 -93.167 0.5 -154.5l-131 -625
h-204l28 137c-43.333 -50.667 -99.833 -90 -169.5 -118s-141.5 -42 -215.5 -42c-44.667 0 -85.834 6.16699 -123.501 18.5s-68.5 30.833 -92.5 55.5s-41 55.167 -51 91.5s-10.333 78.166 -1 125.499zM313.005 162.002c41.333 0 80.665 5.16797 117.998 15.501
s71.833 24.666 103.5 42.999s58 40.5 79 66.5s34.833 54.667 41.5 86l9 35c-32 5.33301 -62.333 8.33301 -91 9s-53.667 1 -75 1c-101.333 0 -180.666 -13.333 -237.999 -40s-90.666 -59.667 -99.999 -99c-16.667 -78 34.333 -117 153 -117zM410.004 1257
c6.66699 32 18.5 61.5 35.5 88.5s38.167 50.833 63.5 71.5s52.666 36.834 81.999 48.501s59.666 17.5 90.999 17.5s59.666 -5.83301 84.999 -17.5s45.833 -27.834 61.5 -48.501s26.5 -44.5 32.5 -71.5s5.66699 -56.5 -1 -88.5c-6.66699 -31.333 -18.5 -60.666 -35.5 -87.999
s-38.167 -51.166 -63.5 -71.499s-52.666 -36.333 -81.999 -48s-59.666 -17.5 -90.999 -17.5s-59.666 5.83301 -84.999 17.5s-45.833 27.667 -61.5 48s-26.667 44.166 -33 71.499s-5.83301 56.666 1.5 87.999zM543.004 1257c-5.33301 -25.333 -1.33203 -47 12.001 -65
s33 -27 59 -27s50 9 72 27s35.667 39.667 41 65c5.33301 26 1.16602 48 -12.501 66s-33.5 27 -59.5 27s-49.833 -9 -71.5 -27s-35.167 -40 -40.5 -66z" />
    <glyph glyph-name="ae" unicode="&#xe6;" 
d="M379 131c-35.333 -43.333 -73.1729 -79.8379 -113.506 -109.505s-87.166 -44.5 -140.499 -44.5c-41.333 0 -75.166 7.66699 -101.499 23s-47.333 35.5 -63 60.5s-25.667 54.333 -30 88s-2.16602 68.834 6.50098 105.501c10.667 53.333 28.667 100.5 54 141.5
s55.333 75.167 90 102.5s72.834 47.833 114.501 61.5s83.834 20.5 126.501 20.5c14.667 0 26.834 -0.333008 36.501 -1s21.834 -2.66699 36.501 -6l13 60c10.667 49.333 8.83398 84.5 -5.49902 105.5s-36.5 31.5 -66.5 31.5c-23.333 0 -50.333 -6.16699 -81 -18.5
s-62.334 -38.166 -95.001 -77.499l-99 119c49.333 57.333 102.333 98.5 159 123.5s105.667 37.5 147 37.5c47.333 0 87.833 -9.5 121.5 -28.5s53.167 -52.5 58.5 -100.5c32.667 45.333 68.167 78.166 106.5 98.499s80.5 30.5 126.5 30.5c62.667 0 108 -16.667 136 -50
s45.833 -76.666 53.5 -129.999s6.66699 -113.666 -3 -180.999s-21.834 -136 -36.501 -206h-387c-18 -83.333 -18.833 -140.666 -2.5 -171.999s39.5 -47 69.5 -47c22 0 41.833 6.16699 59.5 18.5s32.834 32.833 45.501 61.5l162 -58c-38.667 -72 -82.5 -125.5 -131.5 -160.5
s-107.833 -52.5 -176.5 -52.5c-18.667 0 -38 2.5 -58 7.5s-38.833 13.333 -56.5 25s-33.334 27.334 -47.001 47.001s-23.167 44.5 -28.5 74.5zM761.993 568.995c13.333 79.333 15.667 132.667 7 160s-26 41 -52 41c-28.667 0 -54 -15 -76 -45s-41.667 -82 -59 -156h180z
M355.994 390.996c-8 1.33301 -16.498 2.33301 -25.498 3s-20.833 1 -35.5 1c-32.667 0 -64.334 -11.5 -95.001 -34.5s-50.334 -55.167 -59.001 -96.5c-6.66699 -34 -4.83398 -58.833 5.49902 -74.5s26.5 -23.5 48.5 -23.5c36.667 0 68.334 16.333 95.001 49
s44.667 71 54 115z" />
    <glyph glyph-name="ccedilla" unicode="&#xe7;" 
d="M825 133c-57.333 -48 -113.33 -83.168 -167.997 -105.501s-111.334 -36.833 -170.001 -43.5l-6 -25c-9.33301 -46.667 -26.333 -90 -51 -130s-55 -74.667 -91 -104s-77.333 -52.666 -124 -69.999s-97.334 -26 -152.001 -26l39 178c58.667 0 104.834 13.333 138.501 40
s55.167 64 64.5 112l6 23c-132 14.667 -227.833 64.667 -287.5 150s-74.167 196.333 -43.5 333c14.667 70.667 40.5 136.167 77.5 196.5s80 112 129 155s103.5 76.667 163.5 101s120.667 36.5 182 36.5c64.667 0 117.5 -13.333 158.5 -40s66.833 -65.667 77.5 -117l29 135
h184l-92 -434h-184c17.333 82 8.66602 147.5 -26.001 196.5s-88.334 73.5 -161.001 73.5c-28.667 0 -59.667 -5.83301 -93 -17.5s-66 -29.834 -98 -54.501s-60.667 -56 -86 -94s-43.666 -83.667 -54.999 -137c-10.667 -52 -11.834 -96.833 -3.50098 -134.5
s23.333 -68.667 45 -93s50 -42.666 85 -54.999s72.167 -18.5 111.5 -18.5c66.667 0 127 10.5 181 31.5s102.333 48.833 145 83.5z" />
    <glyph glyph-name="egrave" unicode="&#xe8;" 
d="M174 387c-4 -64 15.1709 -117.168 57.5039 -159.501s106.5 -63.5 192.5 -63.5c66.667 0 127 10.5 181 31.5s102.333 48.833 145 83.5l75 -146c-72 -60 -143.833 -101 -215.5 -123s-147.167 -33 -226.5 -33c-72.667 0 -137.334 12 -194.001 36s-103 57.5 -139 100.5
s-60.833 94.167 -74.5 153.5s-12.167 125.333 4.5 198c14.667 70.667 40.167 135.834 76.5 195.501s80.666 111.334 132.999 155.001s111.333 77.667 177 102s134.5 36.5 206.5 36.5c75.333 0 140.666 -12.833 195.999 -38.5s99.666 -62.834 132.999 -111.501
s54.833 -108.167 64.5 -178.5s5.5 -149.833 -12.5 -238.5h-780zM760.004 568.999c1.33301 60 -19.835 108.167 -63.502 144.5s-98.5 54.5 -164.5 54.5c-65.333 0 -127.666 -18.167 -186.999 -54.5s-100.666 -84.5 -123.999 -144.5h539zM543.003 1405l344 -287l-119 -137
l-379 244z" />
    <glyph glyph-name="eacute" unicode="&#xe9;" 
d="M174 387c-4 -64 15.1709 -117.168 57.5039 -159.501s106.5 -63.5 192.5 -63.5c66.667 0 127 10.5 181 31.5s102.333 48.833 145 83.5l75 -146c-72 -60 -143.833 -101 -215.5 -123s-147.167 -33 -226.5 -33c-72.667 0 -137.334 12 -194.001 36s-103 57.5 -139 100.5
s-60.833 94.167 -74.5 153.5s-12.167 125.333 4.5 198c14.667 70.667 40.167 135.834 76.5 195.501s80.666 111.334 132.999 155.001s111.333 77.667 177 102s134.5 36.5 206.5 36.5c75.333 0 140.666 -12.833 195.999 -38.5s99.666 -62.834 132.999 -111.501
s54.833 -108.167 64.5 -178.5s5.5 -149.833 -12.5 -238.5h-780zM760.004 568.999c1.33301 60 -19.835 108.167 -63.502 144.5s-98.5 54.5 -164.5 54.5c-65.333 0 -127.666 -18.167 -186.999 -54.5s-100.666 -84.5 -123.999 -144.5h539zM872.003 1225l-485 -244l-57 137
l463 287z" />
    <glyph glyph-name="ecircumflex" unicode="&#xea;" 
d="M174 387c-4 -64 15.1709 -117.168 57.5039 -159.501s106.5 -63.5 192.5 -63.5c66.667 0 127 10.5 181 31.5s102.333 48.833 145 83.5l75 -146c-72 -60 -143.833 -101 -215.5 -123s-147.167 -33 -226.5 -33c-72.667 0 -137.334 12 -194.001 36s-103 57.5 -139 100.5
s-60.833 94.167 -74.5 153.5s-12.167 125.333 4.5 198c14.667 70.667 40.167 135.834 76.5 195.501s80.666 111.334 132.999 155.001s111.333 77.667 177 102s134.5 36.5 206.5 36.5c75.333 0 140.666 -12.833 195.999 -38.5s99.666 -62.834 132.999 -111.501
s54.833 -108.167 64.5 -178.5s5.5 -149.833 -12.5 -238.5h-780zM760.004 568.999c1.33301 60 -19.835 108.167 -63.502 144.5s-98.5 54.5 -164.5 54.5c-65.333 0 -127.666 -18.167 -186.999 -54.5s-100.666 -84.5 -123.999 -144.5h539zM922.003 1085l-101 -102l-198 205
l-291 -207l-58 100l392 318z" />
    <glyph glyph-name="edieresis" unicode="&#xeb;" 
d="M174 387c-4 -64 15.1709 -117.168 57.5039 -159.501s106.5 -63.5 192.5 -63.5c66.667 0 127 10.5 181 31.5s102.333 48.833 145 83.5l75 -146c-72 -60 -143.833 -101 -215.5 -123s-147.167 -33 -226.5 -33c-72.667 0 -137.334 12 -194.001 36s-103 57.5 -139 100.5
s-60.833 94.167 -74.5 153.5s-12.167 125.333 4.5 198c14.667 70.667 40.167 135.834 76.5 195.501s80.666 111.334 132.999 155.001s111.333 77.667 177 102s134.5 36.5 206.5 36.5c75.333 0 140.666 -12.833 195.999 -38.5s99.666 -62.834 132.999 -111.501
s54.833 -108.167 64.5 -178.5s5.5 -149.833 -12.5 -238.5h-780zM760.004 568.999c1.33301 60 -19.835 108.167 -63.502 144.5s-98.5 54.5 -164.5 54.5c-65.333 0 -127.666 -18.167 -186.999 -54.5s-100.666 -84.5 -123.999 -144.5h539zM903.003 1053h-252l54 252h251z
M530.003 1053h-251l53 252h252z" />
    <glyph glyph-name="igrave" unicode="&#xec;" 
d="M684 0h-627l39 186h207l119 559h-207l39 187h414l-158 -746h213zM543 1405l344 -287l-119 -137l-379 244z" />
    <glyph glyph-name="iacute" unicode="&#xed;" 
d="M684 0h-627l39 186h207l119 559h-207l39 187h414l-158 -746h213zM872 1225l-485 -244l-57 137l463 287z" />
    <glyph glyph-name="icircumflex" unicode="&#xee;" 
d="M684 0h-627l39 186h207l119 559h-207l39 187h414l-158 -746h213zM922 1085l-101 -102l-198 205l-291 -207l-58 100l392 318z" />
    <glyph glyph-name="idieresis" unicode="&#xef;" 
d="M684 0h-627l39 186h207l119 559h-207l39 187h414l-158 -746h213zM903 1053h-252l54 252h251zM530 1053h-251l53 252h252z" />
    <glyph glyph-name="eth" unicode="&#xf0;" 
d="M342 977l133.002 110.002c-20.667 11.333 -41.5 21.833 -62.5 31.5s-43.167 19.167 -66.5 28.5l100 180c36 -14.667 70.333 -30.334 103 -47.001s64.667 -34.334 96 -53.001l176 145l92 -121l-139 -114c40 -34.667 75 -72.334 105 -113.001s53.833 -85.667 71.5 -135
s28.167 -103 31.5 -161s-2.33398 -121.667 -17.001 -191c-18 -86 -46.5 -163.5 -85.5 -232.5s-86.167 -127.833 -141.5 -176.5s-117.833 -86 -187.5 -112s-144.5 -39 -224.5 -39c-136.667 0 -239.167 32.167 -307.5 96.5s-89.5 157.833 -63.5 280.5
c14.667 68.667 44 129.834 88 183.501s99.667 101 167 142s145.833 75.5 235.5 103.5s187.5 50.333 293.5 67c-28.667 58.667 -70.334 110 -125.001 154l-180 -148zM758.002 537.002c10.667 47.333 16.001 91.667 16.001 133c-173.333 -15.333 -314 -50.333 -422 -105
s-171.333 -125 -190 -211c-12.667 -61.333 -0.833984 -108.333 35.499 -141s92.833 -49 169.5 -49c92.667 0 174.5 32 245.5 96s119.5 156.333 145.5 277z" />
    <glyph glyph-name="ntilde" unicode="&#xf1;" 
d="M784 0h-206.001l120 575c15.333 72.667 12.333 123 -9 151s-57.666 42 -108.999 42c-76.667 0 -145.667 -31 -207 -93s-103.666 -147.667 -126.999 -257l-88 -418h-207l196 932h207l-49 -234c38 80.667 89.833 143.5 155.5 188.5s139.5 67.5 221.5 67.5
c95.333 0 163.166 -31 203.499 -93s46.833 -157.333 19.5 -286zM1040 1245c-44.667 -64 -93.6641 -114.167 -146.997 -150.5s-110.666 -54.5 -171.999 -54.5c-32.667 0 -59.334 6.16699 -80.001 18.5s-39.5 25.666 -56.5 39.999s-34 27.666 -51 39.999
s-37.833 18.5 -62.5 18.5c-34 0 -65 -10.5 -93 -31.5s-57 -50.167 -87 -87.5l-107 70c45.333 62.667 94.666 112.167 147.999 148.5s110.666 54.5 171.999 54.5c32.667 0 59.167 -6.16699 79.5 -18.5s39.166 -25.666 56.499 -39.999s34.5 -27.666 51.5 -39.999
s37.833 -18.5 62.5 -18.5c34 0 65 10.5 93 31.5s57 50.833 87 89.5z" />
    <glyph glyph-name="ograve" unicode="&#xf2;" 
d="M956 465c-16 -72.667 -41.832 -138.667 -77.499 -198s-79.334 -110.5 -131.001 -153.5s-110.334 -76.5 -176.001 -100.5s-135.5 -36 -209.5 -36c-72 0 -135.333 12 -190 36s-99 57.5 -133 100.5s-56.5 94.167 -67.5 153.5s-8.16699 125.333 8.5 198
c14.667 70.667 40.167 136.167 76.5 196.5s80.333 112.333 132 156s110.334 77.334 176.001 101.001s134.5 35.5 206.5 35.5c74 0 138.333 -11.833 193 -35.5s99 -57.334 133 -101.001s56.167 -95.667 66.5 -156s7.83301 -125.833 -7.5 -196.5zM750.001 465
c8 42 9.66309 81.833 4.99609 119.5s-16.667 69.834 -36 96.501s-44.666 47.834 -75.999 63.501s-69 23.5 -113 23.5c-43.333 0 -84.166 -7.83301 -122.499 -23.5s-72.166 -36.834 -101.499 -63.501s-54.5 -58.834 -75.5 -96.501s-35.833 -77.5 -44.5 -119.5
c-9.33301 -44 -11.333 -84 -6 -120s17 -67.667 35 -95s43 -48.5 75 -63.5s69.667 -22.5 113 -22.5c44 0 84.833 7.5 122.5 22.5s71.834 36.167 102.501 63.5s56.167 59 76.5 95s35.5 76 45.5 120zM542.997 1405l344 -287l-119 -137l-379 244z" />
    <glyph glyph-name="oacute" unicode="&#xf3;" 
d="M956 465c-16 -72.667 -41.832 -138.667 -77.499 -198s-79.334 -110.5 -131.001 -153.5s-110.334 -76.5 -176.001 -100.5s-135.5 -36 -209.5 -36c-72 0 -135.333 12 -190 36s-99 57.5 -133 100.5s-56.5 94.167 -67.5 153.5s-8.16699 125.333 8.5 198
c14.667 70.667 40.167 136.167 76.5 196.5s80.333 112.333 132 156s110.334 77.334 176.001 101.001s134.5 35.5 206.5 35.5c74 0 138.333 -11.833 193 -35.5s99 -57.334 133 -101.001s56.167 -95.667 66.5 -156s7.83301 -125.833 -7.5 -196.5zM750.001 465
c8 42 9.66309 81.833 4.99609 119.5s-16.667 69.834 -36 96.501s-44.666 47.834 -75.999 63.501s-69 23.5 -113 23.5c-43.333 0 -84.166 -7.83301 -122.499 -23.5s-72.166 -36.834 -101.499 -63.501s-54.5 -58.834 -75.5 -96.501s-35.833 -77.5 -44.5 -119.5
c-9.33301 -44 -11.333 -84 -6 -120s17 -67.667 35 -95s43 -48.5 75 -63.5s69.667 -22.5 113 -22.5c44 0 84.833 7.5 122.5 22.5s71.834 36.167 102.501 63.5s56.167 59 76.5 95s35.5 76 45.5 120zM871.997 1225l-485 -244l-57 137l463 287z" />
    <glyph glyph-name="ocircumflex" unicode="&#xf4;" 
d="M956 465c-16 -72.667 -41.832 -138.667 -77.499 -198s-79.334 -110.5 -131.001 -153.5s-110.334 -76.5 -176.001 -100.5s-135.5 -36 -209.5 -36c-72 0 -135.333 12 -190 36s-99 57.5 -133 100.5s-56.5 94.167 -67.5 153.5s-8.16699 125.333 8.5 198
c14.667 70.667 40.167 136.167 76.5 196.5s80.333 112.333 132 156s110.334 77.334 176.001 101.001s134.5 35.5 206.5 35.5c74 0 138.333 -11.833 193 -35.5s99 -57.334 133 -101.001s56.167 -95.667 66.5 -156s7.83301 -125.833 -7.5 -196.5zM750.001 465
c8 42 9.66309 81.833 4.99609 119.5s-16.667 69.834 -36 96.501s-44.666 47.834 -75.999 63.501s-69 23.5 -113 23.5c-43.333 0 -84.166 -7.83301 -122.499 -23.5s-72.166 -36.834 -101.499 -63.501s-54.5 -58.834 -75.5 -96.501s-35.833 -77.5 -44.5 -119.5
c-9.33301 -44 -11.333 -84 -6 -120s17 -67.667 35 -95s43 -48.5 75 -63.5s69.667 -22.5 113 -22.5c44 0 84.833 7.5 122.5 22.5s71.834 36.167 102.501 63.5s56.167 59 76.5 95s35.5 76 45.5 120zM921.997 1085l-101 -102l-198 205l-291 -207l-58 100l392 318z" />
    <glyph glyph-name="otilde" unicode="&#xf5;" 
d="M956 465c-16 -72.667 -41.832 -138.667 -77.499 -198s-79.334 -110.5 -131.001 -153.5s-110.334 -76.5 -176.001 -100.5s-135.5 -36 -209.5 -36c-72 0 -135.333 12 -190 36s-99 57.5 -133 100.5s-56.5 94.167 -67.5 153.5s-8.16699 125.333 8.5 198
c14.667 70.667 40.167 136.167 76.5 196.5s80.333 112.333 132 156s110.334 77.334 176.001 101.001s134.5 35.5 206.5 35.5c74 0 138.333 -11.833 193 -35.5s99 -57.334 133 -101.001s56.167 -95.667 66.5 -156s7.83301 -125.833 -7.5 -196.5zM750.001 465
c8 42 9.66309 81.833 4.99609 119.5s-16.667 69.834 -36 96.501s-44.666 47.834 -75.999 63.501s-69 23.5 -113 23.5c-43.333 0 -84.166 -7.83301 -122.499 -23.5s-72.166 -36.834 -101.499 -63.501s-54.5 -58.834 -75.5 -96.501s-35.833 -77.5 -44.5 -119.5
c-9.33301 -44 -11.333 -84 -6 -120s17 -67.667 35 -95s43 -48.5 75 -63.5s69.667 -22.5 113 -22.5c44 0 84.833 7.5 122.5 22.5s71.834 36.167 102.501 63.5s56.167 59 76.5 95s35.5 76 45.5 120zM1040 1245c-44.667 -64 -93.6641 -114.167 -146.997 -150.5
s-110.666 -54.5 -171.999 -54.5c-32.667 0 -59.334 6.16699 -80.001 18.5s-39.5 25.666 -56.5 39.999s-34 27.666 -51 39.999s-37.833 18.5 -62.5 18.5c-34 0 -65 -10.5 -93 -31.5s-57 -50.167 -87 -87.5l-107 70c45.333 62.667 94.666 112.167 147.999 148.5
s110.666 54.5 171.999 54.5c32.667 0 59.167 -6.16699 79.5 -18.5s39.166 -25.666 56.499 -39.999s34.5 -27.666 51.5 -39.999s37.833 -18.5 62.5 -18.5c34 0 65 10.5 93 31.5s57 50.833 87 89.5z" />
    <glyph glyph-name="odieresis" unicode="&#xf6;" 
d="M956 465c-16 -72.667 -41.832 -138.667 -77.499 -198s-79.334 -110.5 -131.001 -153.5s-110.334 -76.5 -176.001 -100.5s-135.5 -36 -209.5 -36c-72 0 -135.333 12 -190 36s-99 57.5 -133 100.5s-56.5 94.167 -67.5 153.5s-8.16699 125.333 8.5 198
c14.667 70.667 40.167 136.167 76.5 196.5s80.333 112.333 132 156s110.334 77.334 176.001 101.001s134.5 35.5 206.5 35.5c74 0 138.333 -11.833 193 -35.5s99 -57.334 133 -101.001s56.167 -95.667 66.5 -156s7.83301 -125.833 -7.5 -196.5zM750.001 465
c8 42 9.66309 81.833 4.99609 119.5s-16.667 69.834 -36 96.501s-44.666 47.834 -75.999 63.501s-69 23.5 -113 23.5c-43.333 0 -84.166 -7.83301 -122.499 -23.5s-72.166 -36.834 -101.499 -63.501s-54.5 -58.834 -75.5 -96.501s-35.833 -77.5 -44.5 -119.5
c-9.33301 -44 -11.333 -84 -6 -120s17 -67.667 35 -95s43 -48.5 75 -63.5s69.667 -22.5 113 -22.5c44 0 84.833 7.5 122.5 22.5s71.834 36.167 102.501 63.5s56.167 59 76.5 95s35.5 76 45.5 120zM902.997 1053h-252l54 252h251zM529.997 1053h-251l53 252h252z" />
    <glyph glyph-name="divide" unicode="&#xf7;" 
d="M647 725h-252l53 252h252zM489 -20h-252l54 252h252zM915 385h-931l38 187h932z" />
    <glyph glyph-name="oslash" unicode="&#xf8;" 
d="M-61 180l47.001 32.999c-12.667 35.333 -20 74.166 -22 116.499s2.33301 87.5 13 135.5c15.333 70.667 41.5 136.167 78.5 196.5s81.333 112.333 133 156s110.334 77.334 176.001 101.001s134.5 35.5 206.5 35.5c66 0 124.167 -10.167 174.5 -30.5
s93.166 -48.166 128.499 -83.499l162 114l-43 -202l-47 -33c11.333 -36.667 18 -76.167 20 -118.5s-2 -87.5 -12 -135.5c-16 -72.667 -41.833 -138.667 -77.5 -198s-79.334 -110.5 -131.001 -153.5s-110 -76.5 -175 -100.5s-134.5 -36 -208.5 -36
c-66.667 0 -125.5 10 -176.5 30s-93.833 47.667 -128.5 83l-159 -113zM748.001 464.999c8 42 10 81.667 6 119l-516 -365c18.667 -17.333 42 -30.833 70 -40.5s59.667 -14.5 95 -14.5c44 0 84.833 7.5 122.5 22.5s71.5 36.167 101.5 63.5s55.167 59 75.5 95
s35.5 76 45.5 120zM184.001 464.999c-9.33301 -44 -11.334 -82.998 -6.00098 -116.998l512 363c-38 38 -91.333 57 -160 57c-43.333 0 -84.166 -7.83301 -122.499 -23.5s-72.5 -36.834 -102.5 -63.501s-55.5 -58.834 -76.5 -96.501s-35.833 -77.5 -44.5 -119.5z" />
    <glyph glyph-name="ugrave" unicode="&#xf9;" 
d="M147 932h207.001l-123 -576c-14.667 -72 -11.167 -122 10.5 -150s58.5 -42 110.5 -42c76.667 0 145.667 31 207 93s103.666 147.667 126.999 257l88 418h207l-197 -932h-206l49 233c-38.667 -80 -90.667 -142.667 -156 -188s-139 -68 -221 -68
c-96 0 -164 31.167 -204 93.5s-47 157.5 -21 285.5zM543.001 1405l344 -287l-119 -137l-379 244z" />
    <glyph glyph-name="uacute" unicode="&#xfa;" 
d="M147 932h207.001l-123 -576c-14.667 -72 -11.167 -122 10.5 -150s58.5 -42 110.5 -42c76.667 0 145.667 31 207 93s103.666 147.667 126.999 257l88 418h207l-197 -932h-206l49 233c-38.667 -80 -90.667 -142.667 -156 -188s-139 -68 -221 -68
c-96 0 -164 31.167 -204 93.5s-47 157.5 -21 285.5zM872.001 1225l-485 -244l-57 137l463 287z" />
    <glyph glyph-name="ucircumflex" unicode="&#xfb;" 
d="M147 932h207.001l-123 -576c-14.667 -72 -11.167 -122 10.5 -150s58.5 -42 110.5 -42c76.667 0 145.667 31 207 93s103.666 147.667 126.999 257l88 418h207l-197 -932h-206l49 233c-38.667 -80 -90.667 -142.667 -156 -188s-139 -68 -221 -68
c-96 0 -164 31.167 -204 93.5s-47 157.5 -21 285.5zM922.001 1085l-101 -102l-198 205l-291 -207l-58 100l392 318z" />
    <glyph glyph-name="udieresis" unicode="&#xfc;" 
d="M147 932h207.001l-123 -576c-14.667 -72 -11.167 -122 10.5 -150s58.5 -42 110.5 -42c76.667 0 145.667 31 207 93s103.666 147.667 126.999 257l88 418h207l-197 -932h-206l49 233c-38.667 -80 -90.667 -142.667 -156 -188s-139 -68 -221 -68
c-96 0 -164 31.167 -204 93.5s-47 157.5 -21 285.5zM903.001 1053h-252l54 252h251zM530.001 1053h-251l53 252h252z" />
    <glyph glyph-name="yacute" unicode="&#xfd;" 
d="M1022 932l-637 -1114c-48 -80.667 -103.667 -136 -167 -166s-134.666 -45 -213.999 -45c-27.333 0 -56 2.66699 -86 8s-60.667 14.333 -92 27l82 190c26 -10.667 50.5 -18.167 73.5 -22.5s44.167 -6.5 63.5 -6.5c61.333 0 109.666 27.333 144.999 82l56 90l-154 957h215
l107 -705l387 705h221zM872 1225l-485 -244l-57 137l463 287z" />
    <glyph glyph-name="thorn" unicode="&#xfe;" 
d="M227 1305h207.001l-98 -457c48 35.333 94.167 61.833 138.5 79.5s92.166 26.5 143.499 26.5c60.667 0 113.834 -12.167 159.501 -36.5s82.5 -58 110.5 -101s46 -94.667 54 -155s4.66699 -125.833 -10 -196.5c-15.333 -71.333 -40 -137 -74 -197
s-73.833 -111.5 -119.5 -154.5s-96.834 -76.5 -153.501 -100.5s-115 -36 -175 -36c-52 0 -96.167 9.33301 -132.5 28s-70.833 45.667 -103.5 81l-96 -459h-205zM209.001 248c19.333 -27.333 46.6689 -48.168 82.002 -62.501s70.666 -21.5 105.999 -21.5
c78 0 147.333 27.667 208 83s100.667 128 120 218s10.166 163 -27.501 219s-95.5 84 -173.5 84c-35.333 0 -73.5 -7.16699 -114.5 -21.5s-77.167 -35.166 -108.5 -62.499z" />
    <glyph glyph-name="ydieresis" unicode="&#xff;" 
d="M1022 932l-637 -1114c-48 -80.667 -103.667 -136 -167 -166s-134.666 -45 -213.999 -45c-27.333 0 -56 2.66699 -86 8s-60.667 14.333 -92 27l82 190c26 -10.667 50.5 -18.167 73.5 -22.5s44.167 -6.5 63.5 -6.5c61.333 0 109.666 27.333 144.999 82l56 90l-154 957h215
l107 -705l387 705h221zM903 1053h-252l54 252h251zM530 1053h-251l53 252h252z" />
    <glyph glyph-name="Amacron" unicode="&#x100;" 
d="M678 0l-29 311h-432l-158 -311h-217l684 1305h238l131 -1305h-217zM311 494h322l-45 538zM948 1415h-559l37 175h559z" />
    <glyph glyph-name="amacron" unicode="&#x101;" 
d="M-47 268c12 54.667 37.1719 102.502 75.5049 143.502s84.166 75.167 137.499 102.5s112 47.833 176 61.5s128.333 20.5 193 20.5c35.333 0 65.666 -0.666992 90.999 -2s50.666 -3.33301 75.999 -6l7 37c10.667 48.667 -0.333008 85 -33 109s-79.667 36 -141 36
c-56 0 -114.5 -7.83301 -175.5 -23.5s-120.833 -38.5 -179.5 -68.5l-49 162c68 35.333 139.667 63.166 215 83.499s151.666 30.5 228.999 30.5c50.667 0 99.334 -5.66699 146.001 -17s86.667 -30 120 -56s57.166 -59.833 71.499 -101.5s14.5 -93.167 0.5 -154.5l-131 -625
h-204l28 137c-43.333 -50.667 -99.833 -90 -169.5 -118s-141.5 -42 -215.5 -42c-44.667 0 -85.834 6.16699 -123.501 18.5s-68.5 30.833 -92.5 55.5s-41 55.167 -51 91.5s-10.333 78.166 -1 125.499zM313.005 162.002c41.333 0 80.665 5.16797 117.998 15.501
s71.833 24.666 103.5 42.999s58 40.5 79 66.5s34.833 54.667 41.5 86l9 35c-32 5.33301 -62.333 8.33301 -91 9s-53.667 1 -75 1c-101.333 0 -180.666 -13.333 -237.999 -40s-90.666 -59.667 -99.999 -99c-16.667 -78 34.333 -117 153 -117zM868.004 1044h-559l37 175h559z
" />
    <glyph glyph-name="Abreve" unicode="&#x102;" 
d="M678 0l-29 311h-432l-158 -311h-217l684 1305h238l131 -1305h-217zM311 494h322l-45 538zM1024 1538c-109.333 -90 -227.999 -135 -355.999 -135c-128.667 0 -228.334 45 -299.001 135l145 119c49.333 -62.667 111.666 -94 186.999 -94
c74.667 0 150.334 31.333 227.001 94z" />
    <glyph glyph-name="abreve" unicode="&#x103;" 
d="M-47 268c12 54.667 37.1719 102.502 75.5049 143.502s84.166 75.167 137.499 102.5s112 47.833 176 61.5s128.333 20.5 193 20.5c35.333 0 65.666 -0.666992 90.999 -2s50.666 -3.33301 75.999 -6l7 37c10.667 48.667 -0.333008 85 -33 109s-79.667 36 -141 36
c-56 0 -114.5 -7.83301 -175.5 -23.5s-120.833 -38.5 -179.5 -68.5l-49 162c68 35.333 139.667 63.166 215 83.499s151.666 30.5 228.999 30.5c50.667 0 99.334 -5.66699 146.001 -17s86.667 -30 120 -56s57.166 -59.833 71.499 -101.5s14.5 -93.167 0.5 -154.5l-131 -625
h-204l28 137c-43.333 -50.667 -99.833 -90 -169.5 -118s-141.5 -42 -215.5 -42c-44.667 0 -85.834 6.16699 -123.501 18.5s-68.5 30.833 -92.5 55.5s-41 55.167 -51 91.5s-10.333 78.166 -1 125.499zM313.005 162.002c41.333 0 80.665 5.16797 117.998 15.501
s71.833 24.666 103.5 42.999s58 40.5 79 66.5s34.833 54.667 41.5 86l9 35c-32 5.33301 -62.333 8.33301 -91 9s-53.667 1 -75 1c-101.333 0 -180.666 -13.333 -237.999 -40s-90.666 -59.667 -99.999 -99c-16.667 -78 34.333 -117 153 -117zM944.004 1167
c-109.333 -90 -227.999 -135 -355.999 -135c-128.667 0 -228.334 45 -299.001 135l145 119c49.333 -62.667 111.666 -94 186.999 -94c74.667 0 150.334 31.333 227.001 94z" />
    <glyph glyph-name="Aogonek" unicode="&#x104;" 
d="M926 -379c-90 0 -157 19.834 -201 59.501s-57.667 99.167 -41 178.5c5.33301 27.333 15.5 52.833 30.5 76.5s32.833 45.167 53.5 64.5h-90l-29 311h-432l-158 -311h-217l684 1305h238l131 -1305c-32.667 -28.667 -53 -63.334 -61 -104.001
c-10 -42.667 -2.66699 -74.5 22 -95.5s58 -31.5 100 -31.5zM311 494.001h322l-45 538z" />
    <glyph glyph-name="aogonek" unicode="&#x105;" 
d="M578 0l28.0049 137.003c-43.333 -50.667 -99.833 -90 -169.5 -118s-141.5 -42 -215.5 -42c-44.667 0 -85.834 6.16699 -123.501 18.5s-68.5 30.833 -92.5 55.5s-41 55.167 -51 91.5s-10.333 78.166 -1 125.499c12 54.667 37.167 102.5 75.5 143.5
s84.166 75.167 137.499 102.5s112 47.833 176 61.5s128.333 20.5 193 20.5c35.333 0 65.666 -0.666992 90.999 -2s50.666 -3.33301 75.999 -6l7 37c10.667 48.667 -0.333008 85 -33 109s-79.667 36 -141 36c-56 0 -114.5 -7.83301 -175.5 -23.5s-120.833 -38.5 -179.5 -68.5
l-49 162c68 35.333 139.667 63.166 215 83.499s151.666 30.5 228.999 30.5c50.667 0 99.334 -5.66699 146.001 -17s86.667 -30 120 -56s57.166 -59.833 71.499 -101.5s14.5 -93.167 0.5 -154.5l-131 -625c-32.667 -28.667 -53 -63.334 -61 -104.001
c-9.33301 -42.667 -1.83301 -74.5 22.5 -95.5s57.833 -31.5 100.5 -31.5l-31 -148c-90 0 -156.833 19.833 -200.5 59.5s-57.5 99.167 -41.5 178.5c6 27.333 16.5 52.833 31.5 76.5s32.5 45.167 52.5 64.5h-77zM313.005 162.003c41.333 0 80.665 5.16797 117.998 15.501
s71.833 24.666 103.5 42.999s58 40.5 79 66.5s34.833 54.667 41.5 86l9 35c-32 5.33301 -62.333 8.33301 -91 9s-53.667 1 -75 1c-101.333 0 -180.666 -13.333 -237.999 -40s-90.666 -59.667 -99.999 -99c-16.667 -78 34.333 -117 153 -117z" />
    <glyph glyph-name="Cacute" unicode="&#x106;" 
d="M938 399c-30 -64 -63.8359 -121.999 -101.503 -173.999s-79.667 -96.333 -126 -133s-97.166 -65 -152.499 -85s-115.666 -30 -180.999 -30c-91.333 0 -164.666 18.833 -219.999 56.5s-96.666 88 -123.999 151s-41 135 -41 216s8.66699 165.167 26 252.5
c19.333 87.333 46.5 171.666 81.5 252.999s79 153 132 215s114 111.833 183 149.5s147.833 56.5 236.5 56.5c28.667 0 57 -3.66699 85 -11s53 -18.5 75 -33.5s40.167 -33.5 54.5 -55.5s22.833 -47.333 25.5 -76l33 154h186l-104 -494h-187c8 40.667 11 80.834 9 120.501
s-10.5 74.834 -25.5 105.501s-37.167 55.667 -66.5 75s-66.333 29 -111 29c-58.667 0 -109.834 -14.333 -153.501 -43s-81.667 -66.334 -114 -113.001s-59.333 -99 -81 -157s-38.834 -116.333 -51.501 -175c-12 -58.667 -19.667 -117.334 -23 -176.001
s0.666992 -111.167 12 -157.5s33.5 -83.833 66.5 -112.5s78.833 -43 137.5 -43c84.667 0 155.334 27 212.001 81s108.667 126.667 156 218zM951.997 1600l-485 -244l-57 137l463 287z" />
    <glyph glyph-name="cacute" unicode="&#x107;" 
d="M825 133c-72 -60 -143.496 -100.999 -214.496 -122.999s-145.5 -33 -223.5 -33s-146.333 11.667 -205 35s-105.334 56.166 -140.001 98.499s-57.834 93.5 -69.501 153.5s-9.16699 127 7.5 201c14.667 70.667 40.5 136.167 77.5 196.5s80 112 129 155
s103.5 76.667 163.5 101s120.667 36.5 182 36.5c64.667 0 117.5 -13.333 158.5 -40s66.833 -65.667 77.5 -117l29 135h184l-92 -434h-184c17.333 82 8.66602 147.5 -26.001 196.5s-88.334 73.5 -161.001 73.5c-28.667 0 -59.667 -5.83301 -93 -17.5s-66 -29.834 -98 -54.501
s-60.667 -56 -86 -94s-43.666 -83.667 -54.999 -137c-10.667 -52 -11.834 -96.833 -3.50098 -134.5s23.333 -68.667 45 -93s50 -42.666 85 -54.999s72.167 -18.5 111.5 -18.5c66.667 0 127 10.5 181 31.5s102.333 48.833 145 83.5zM872.004 1227l-485 -244l-57 137l463 287z
" />
    <glyph glyph-name="Ccircumflex" unicode="&#x108;" 
d="M938 399c-30 -64 -63.8359 -121.999 -101.503 -173.999s-79.667 -96.333 -126 -133s-97.166 -65 -152.499 -85s-115.666 -30 -180.999 -30c-91.333 0 -164.666 18.833 -219.999 56.5s-96.666 88 -123.999 151s-41 135 -41 216s8.66699 165.167 26 252.5
c19.333 87.333 46.5 171.666 81.5 252.999s79 153 132 215s114 111.833 183 149.5s147.833 56.5 236.5 56.5c28.667 0 57 -3.66699 85 -11s53 -18.5 75 -33.5s40.167 -33.5 54.5 -55.5s22.833 -47.333 25.5 -76l33 154h186l-104 -494h-187c8 40.667 11 80.834 9 120.501
s-10.5 74.834 -25.5 105.501s-37.167 55.667 -66.5 75s-66.333 29 -111 29c-58.667 0 -109.834 -14.333 -153.501 -43s-81.667 -66.334 -114 -113.001s-59.333 -99 -81 -157s-38.834 -116.333 -51.501 -175c-12 -58.667 -19.667 -117.334 -23 -176.001
s0.666992 -111.167 12 -157.5s33.5 -83.833 66.5 -112.5s78.833 -43 137.5 -43c84.667 0 155.334 27 212.001 81s108.667 126.667 156 218zM1002 1460l-101 -102l-198 205l-291 -207l-58 100l392 318z" />
    <glyph glyph-name="ccircumflex" unicode="&#x109;" 
d="M825 133c-72 -60 -143.496 -100.999 -214.496 -122.999s-145.5 -33 -223.5 -33s-146.333 11.667 -205 35s-105.334 56.166 -140.001 98.499s-57.834 93.5 -69.501 153.5s-9.16699 127 7.5 201c14.667 70.667 40.5 136.167 77.5 196.5s80 112 129 155
s103.5 76.667 163.5 101s120.667 36.5 182 36.5c64.667 0 117.5 -13.333 158.5 -40s66.833 -65.667 77.5 -117l29 135h184l-92 -434h-184c17.333 82 8.66602 147.5 -26.001 196.5s-88.334 73.5 -161.001 73.5c-28.667 0 -59.667 -5.83301 -93 -17.5s-66 -29.834 -98 -54.501
s-60.667 -56 -86 -94s-43.666 -83.667 -54.999 -137c-10.667 -52 -11.834 -96.833 -3.50098 -134.5s23.333 -68.667 45 -93s50 -42.666 85 -54.999s72.167 -18.5 111.5 -18.5c66.667 0 127 10.5 181 31.5s102.333 48.833 145 83.5zM922.004 1087l-101 -102l-198 205
l-291 -207l-58 100l392 318z" />
    <glyph glyph-name="Cdotaccent" unicode="&#x10a;" 
d="M938 399c-30 -64 -63.8359 -121.999 -101.503 -173.999s-79.667 -96.333 -126 -133s-97.166 -65 -152.499 -85s-115.666 -30 -180.999 -30c-91.333 0 -164.666 18.833 -219.999 56.5s-96.666 88 -123.999 151s-41 135 -41 216s8.66699 165.167 26 252.5
c19.333 87.333 46.5 171.666 81.5 252.999s79 153 132 215s114 111.833 183 149.5s147.833 56.5 236.5 56.5c28.667 0 57 -3.66699 85 -11s53 -18.5 75 -33.5s40.167 -33.5 54.5 -55.5s22.833 -47.333 25.5 -76l33 154h186l-104 -494h-187c8 40.667 11 80.834 9 120.501
s-10.5 74.834 -25.5 105.501s-37.167 55.667 -66.5 75s-66.333 29 -111 29c-58.667 0 -109.834 -14.333 -153.501 -43s-81.667 -66.334 -114 -113.001s-59.333 -99 -81 -157s-38.834 -116.333 -51.501 -175c-12 -58.667 -19.667 -117.334 -23 -176.001
s0.666992 -111.167 12 -157.5s33.5 -83.833 66.5 -112.5s78.833 -43 137.5 -43c84.667 0 155.334 27 212.001 81s108.667 126.667 156 218zM796.997 1424h-252l53 252h252z" />
    <glyph glyph-name="cdotaccent" unicode="&#x10b;" 
d="M825 133c-72 -60 -143.496 -100.999 -214.496 -122.999s-145.5 -33 -223.5 -33s-146.333 11.667 -205 35s-105.334 56.166 -140.001 98.499s-57.834 93.5 -69.501 153.5s-9.16699 127 7.5 201c14.667 70.667 40.5 136.167 77.5 196.5s80 112 129 155
s103.5 76.667 163.5 101s120.667 36.5 182 36.5c64.667 0 117.5 -13.333 158.5 -40s66.833 -65.667 77.5 -117l29 135h184l-92 -434h-184c17.333 82 8.66602 147.5 -26.001 196.5s-88.334 73.5 -161.001 73.5c-28.667 0 -59.667 -5.83301 -93 -17.5s-66 -29.834 -98 -54.501
s-60.667 -56 -86 -94s-43.666 -83.667 -54.999 -137c-10.667 -52 -11.834 -96.833 -3.50098 -134.5s23.333 -68.667 45 -93s50 -42.666 85 -54.999s72.167 -18.5 111.5 -18.5c66.667 0 127 10.5 181 31.5s102.333 48.833 145 83.5zM717.004 1053h-252l53 252h252z" />
    <glyph glyph-name="Ccaron" unicode="&#x10c;" 
d="M938 399c-30 -64 -63.8359 -121.999 -101.503 -173.999s-79.667 -96.333 -126 -133s-97.166 -65 -152.499 -85s-115.666 -30 -180.999 -30c-91.333 0 -164.666 18.833 -219.999 56.5s-96.666 88 -123.999 151s-41 135 -41 216s8.66699 165.167 26 252.5
c19.333 87.333 46.5 171.666 81.5 252.999s79 153 132 215s114 111.833 183 149.5s147.833 56.5 236.5 56.5c28.667 0 57 -3.66699 85 -11s53 -18.5 75 -33.5s40.167 -33.5 54.5 -55.5s22.833 -47.333 25.5 -76l33 154h186l-104 -494h-187c8 40.667 11 80.834 9 120.501
s-10.5 74.834 -25.5 105.501s-37.167 55.667 -66.5 75s-66.333 29 -111 29c-58.667 0 -109.834 -14.333 -153.501 -43s-81.667 -66.334 -114 -113.001s-59.333 -99 -81 -157s-38.834 -116.333 -51.501 -175c-12 -58.667 -19.667 -117.334 -23 -176.001
s0.666992 -111.167 12 -157.5s33.5 -83.833 66.5 -112.5s78.833 -43 137.5 -43c84.667 0 155.334 27 212.001 81s108.667 126.667 156 218zM654.997 1356l-256 317l103 101l201 -207l284 205l60 -103z" />
    <glyph glyph-name="ccaron" unicode="&#x10d;" 
d="M825 133c-72 -60 -143.496 -100.999 -214.496 -122.999s-145.5 -33 -223.5 -33s-146.333 11.667 -205 35s-105.334 56.166 -140.001 98.499s-57.834 93.5 -69.501 153.5s-9.16699 127 7.5 201c14.667 70.667 40.5 136.167 77.5 196.5s80 112 129 155
s103.5 76.667 163.5 101s120.667 36.5 182 36.5c64.667 0 117.5 -13.333 158.5 -40s66.833 -65.667 77.5 -117l29 135h184l-92 -434h-184c17.333 82 8.66602 147.5 -26.001 196.5s-88.334 73.5 -161.001 73.5c-28.667 0 -59.667 -5.83301 -93 -17.5s-66 -29.834 -98 -54.501
s-60.667 -56 -86 -94s-43.666 -83.667 -54.999 -137c-10.667 -52 -11.834 -96.833 -3.50098 -134.5s23.333 -68.667 45 -93s50 -42.666 85 -54.999s72.167 -18.5 111.5 -18.5c66.667 0 127 10.5 181 31.5s102.333 48.833 145 83.5zM575.004 983.001l-256 317l103 101
l201 -207l284 205l60 -103z" />
    <glyph glyph-name="Dcaron" unicode="&#x10e;" 
d="M1014 653c-18 -87.333 -44.667 -170.5 -80 -249.5s-79.333 -148.333 -132 -208s-114.5 -107.167 -185.5 -142.5s-151.5 -53 -241.5 -53h-424l276 1305h424c88.667 0 161 -17.833 217 -53.5s97.667 -83.167 125 -142.5s42.333 -128.333 45 -207
s-5.33301 -161.667 -24 -249zM807 653c32.667 150.667 32.001 265.833 -1.99902 345.5s-98.333 119.5 -193 119.5h-217l-198 -932h217c94 0 175.167 40.667 243.5 122s118.166 196.333 149.499 345zM655.001 1356l-256 317l103 101l201 -207l284 205l60 -103z" />
    <glyph glyph-name="dcaron" unicode="&#x10f;" 
d="M668 0h-206.999l16 86c-40.667 -35.333 -80.834 -62.333 -120.501 -81s-81.5 -28 -125.5 -28c-51.333 0 -95.833 12 -133.5 36s-68.167 57.5 -91.5 100.5s-37.333 94.5 -42 154.5s0.666016 125.667 15.999 197c14.667 70.667 37.334 136.167 68.001 196.5
s66.5 112 107.5 155s85.667 76.667 134 101s98.5 36.5 150.5 36.5c44 0 81.667 -8.83301 113 -26.5s60 -44.167 86 -79.5l59 270h-186l39 187h393zM604.001 684c-12 27.333 -31.998 48.168 -59.998 62.501s-56.333 21.5 -85 21.5c-61.333 0 -117.333 -28 -168 -84
s-85.667 -129 -105 -219c-18.667 -90 -14.334 -162.667 12.999 -218s71.666 -83 132.999 -83c28.667 0 59.667 7.16699 93 21.5s62.333 35.166 87 62.499zM1294 1304l-200 -557h-162l117 557h245z" />
    <glyph glyph-name="Dcroat" unicode="&#x110;" 
d="M-55 758h166l116 547h424c88.667 0 161 -17.833 217 -53.5s97.667 -83.167 125 -142.5s42.333 -128.333 45 -207s-5.33301 -161.667 -24 -249c-18 -87.333 -44.667 -170.5 -80 -249.5s-79.333 -148.333 -132 -208s-114.5 -107.167 -185.5 -142.5s-151.5 -53 -241.5 -53
h-424l121 571h-166zM807 653c32.667 150.667 32.001 265.833 -1.99902 345.5s-98.333 119.5 -193 119.5h-217l-78 -360h185l-39 -187h-184l-82 -385h217c94 0 175.167 40.667 243.5 122s118.166 196.333 149.499 345z" />
    <glyph glyph-name="dcroat" unicode="&#x111;" 
d="M1165 989h-172.001l-209 -989h-206l16 86c-46.667 -35.333 -92.5 -62.333 -137.5 -81s-93.5 -28 -145.5 -28c-60 0 -112.833 12 -158.5 36s-82.5 57.5 -110.5 100.5s-46.167 94.5 -54.5 154.5s-4.83301 125.667 10.5 197c14.667 70.667 39.167 136.167 73.5 196.5
s74.333 112 120 155s96.834 76.667 153.501 101s115 36.5 175 36.5c52 0 96.5 -8.83301 133.5 -26.5s71.167 -44.167 102.5 -79.5l30 141h-180l37 174h180l31 142h207l-31 -142h172zM720.999 684c-18 27.333 -45.001 48.168 -81.001 62.501s-72 21.5 -108 21.5
c-77.333 0 -146.5 -28 -207.5 -84s-100.833 -129 -119.5 -219c-19.333 -90 -10.166 -162.667 27.501 -218s95.5 -83 173.5 -83c35.333 0 73.833 7.16699 115.5 21.5s77.5 35.166 107.5 62.499z" />
    <glyph glyph-name="Emacron" unicode="&#x112;" 
d="M784 0h-833l276 1305h834l-39 -187h-627l-78 -360h490l-39 -187h-489l-82 -385h626zM948 1415h-559l37 175h559z" />
    <glyph glyph-name="emacron" unicode="&#x113;" 
d="M174 387c-4 -64 15.1709 -117.168 57.5039 -159.501s106.5 -63.5 192.5 -63.5c66.667 0 127 10.5 181 31.5s102.333 48.833 145 83.5l75 -146c-72 -60 -143.833 -101 -215.5 -123s-147.167 -33 -226.5 -33c-72.667 0 -137.334 12 -194.001 36s-103 57.5 -139 100.5
s-60.833 94.167 -74.5 153.5s-12.167 125.333 4.5 198c14.667 70.667 40.167 135.834 76.5 195.501s80.666 111.334 132.999 155.001s111.333 77.667 177 102s134.5 36.5 206.5 36.5c75.333 0 140.666 -12.833 195.999 -38.5s99.666 -62.834 132.999 -111.501
s54.833 -108.167 64.5 -178.5s5.5 -149.833 -12.5 -238.5h-780zM760.004 568.999c1.33301 60 -19.835 108.167 -63.502 144.5s-98.5 54.5 -164.5 54.5c-65.333 0 -127.666 -18.167 -186.999 -54.5s-100.666 -84.5 -123.999 -144.5h539zM868.003 1044h-559l37 175h559z" />
    <glyph glyph-name="Ebreve" unicode="&#x114;" 
d="M784 0h-833l276 1305h834l-39 -187h-627l-78 -360h490l-39 -187h-489l-82 -385h626zM1024 1538c-109.333 -90 -227.999 -135 -355.999 -135c-128.667 0 -228.334 45 -299.001 135l145 119c49.333 -62.667 111.666 -94 186.999 -94c74.667 0 150.334 31.333 227.001 94z
" />
    <glyph glyph-name="ebreve" unicode="&#x115;" 
d="M174 387c-4 -64 15.1709 -117.168 57.5039 -159.501s106.5 -63.5 192.5 -63.5c66.667 0 127 10.5 181 31.5s102.333 48.833 145 83.5l75 -146c-72 -60 -143.833 -101 -215.5 -123s-147.167 -33 -226.5 -33c-72.667 0 -137.334 12 -194.001 36s-103 57.5 -139 100.5
s-60.833 94.167 -74.5 153.5s-12.167 125.333 4.5 198c14.667 70.667 40.167 135.834 76.5 195.501s80.666 111.334 132.999 155.001s111.333 77.667 177 102s134.5 36.5 206.5 36.5c75.333 0 140.666 -12.833 195.999 -38.5s99.666 -62.834 132.999 -111.501
s54.833 -108.167 64.5 -178.5s5.5 -149.833 -12.5 -238.5h-780zM760.004 568.999c1.33301 60 -19.835 108.167 -63.502 144.5s-98.5 54.5 -164.5 54.5c-65.333 0 -127.666 -18.167 -186.999 -54.5s-100.666 -84.5 -123.999 -144.5h539zM944.003 1167
c-109.333 -90 -227.999 -135 -355.999 -135c-128.667 0 -228.334 45 -299.001 135l145 119c49.333 -62.667 111.666 -94 186.999 -94c74.667 0 150.334 31.333 227.001 94z" />
    <glyph glyph-name="Edotaccent" unicode="&#x116;" 
d="M784 0h-833l276 1305h834l-39 -187h-627l-78 -360h490l-39 -187h-489l-82 -385h626zM797 1424h-252l53 252h252z" />
    <glyph glyph-name="edotaccent" unicode="&#x117;" 
d="M174 387c-4 -64 15.1709 -117.168 57.5039 -159.501s106.5 -63.5 192.5 -63.5c66.667 0 127 10.5 181 31.5s102.333 48.833 145 83.5l75 -146c-72 -60 -143.833 -101 -215.5 -123s-147.167 -33 -226.5 -33c-72.667 0 -137.334 12 -194.001 36s-103 57.5 -139 100.5
s-60.833 94.167 -74.5 153.5s-12.167 125.333 4.5 198c14.667 70.667 40.167 135.834 76.5 195.501s80.666 111.334 132.999 155.001s111.333 77.667 177 102s134.5 36.5 206.5 36.5c75.333 0 140.666 -12.833 195.999 -38.5s99.666 -62.834 132.999 -111.501
s54.833 -108.167 64.5 -178.5s5.5 -149.833 -12.5 -238.5h-780zM760.004 568.999c1.33301 60 -19.835 108.167 -63.502 144.5s-98.5 54.5 -164.5 54.5c-65.333 0 -127.666 -18.167 -186.999 -54.5s-100.666 -84.5 -123.999 -144.5h539zM717.003 1053h-252l53 252h252z" />
    <glyph glyph-name="Eogonek" unicode="&#x118;" 
d="M815 -379c-90 0 -156.833 19.834 -200.5 59.501s-57.5 99.167 -41.5 178.5c6 27.333 16.5 52.833 31.5 76.5s32.5 45.167 52.5 64.5h-706l276 1305h834l-39 -187h-627l-78 -360h490l-39 -187h-489l-82 -385h626l-39 -186c-32.667 -28.667 -53 -63.334 -61 -104.001
c-9.33301 -42.667 -1.83301 -74.5 22.5 -95.5s57.833 -31.5 100.5 -31.5z" />
    <glyph glyph-name="eogonek" unicode="&#x119;" 
d="M604 -379c-90 0 -156.83 19.832 -200.497 59.499s-57.5 99.167 -41.5 178.5c4.66699 23.333 12.667 44.833 24 64.5s24 38.5 38 56.5c-6.66699 -2 -13.5 -3 -20.5 -3h-20.5c-72.667 0 -137.334 12 -194.001 36s-103 57.5 -139 100.5s-60.833 94.167 -74.5 153.5
s-12.167 125.333 4.5 198c14.667 70.667 40.167 135.834 76.5 195.501s80.666 111.334 132.999 155.001s111.333 77.667 177 102s134.5 36.5 206.5 36.5c75.333 0 140.666 -12.833 195.999 -38.5s99.666 -62.834 132.999 -111.501s54.833 -108.167 64.5 -178.5
s5.5 -149.833 -12.5 -238.5h-780c-4 -64 15.167 -117.167 57.5 -159.5s106.5 -63.5 192.5 -63.5c66.667 0 127 10.5 181 31.5s102.333 48.833 145 83.5l75 -146c-42 -35.333 -84.167 -63.666 -126.5 -84.999s-84.166 -37.333 -125.499 -48
c-32.667 -28.667 -53 -63.334 -61 -104.001c-9.33301 -42.667 -1.83301 -74.5 22.5 -95.5s57.833 -31.5 100.5 -31.5zM760.003 568.999c1.33301 60 -19.835 108.167 -63.502 144.5s-98.5 54.5 -164.5 54.5c-65.333 0 -127.666 -18.167 -186.999 -54.5
s-100.666 -84.5 -123.999 -144.5h539z" />
    <glyph glyph-name="Ecaron" unicode="&#x11a;" 
d="M784 0h-833l276 1305h834l-39 -187h-627l-78 -360h490l-39 -187h-489l-82 -385h626zM655 1352l-256 317l103 101l201 -207l284 205l60 -103z" />
    <glyph glyph-name="ecaron" unicode="&#x11b;" 
d="M174 387c-4 -64 15.1709 -117.168 57.5039 -159.501s106.5 -63.5 192.5 -63.5c66.667 0 127 10.5 181 31.5s102.333 48.833 145 83.5l75 -146c-72 -60 -143.833 -101 -215.5 -123s-147.167 -33 -226.5 -33c-72.667 0 -137.334 12 -194.001 36s-103 57.5 -139 100.5
s-60.833 94.167 -74.5 153.5s-12.167 125.333 4.5 198c14.667 70.667 40.167 135.834 76.5 195.501s80.666 111.334 132.999 155.001s111.333 77.667 177 102s134.5 36.5 206.5 36.5c75.333 0 140.666 -12.833 195.999 -38.5s99.666 -62.834 132.999 -111.501
s54.833 -108.167 64.5 -178.5s5.5 -149.833 -12.5 -238.5h-780zM760.004 568.999c1.33301 60 -19.835 108.167 -63.502 144.5s-98.5 54.5 -164.5 54.5c-65.333 0 -127.666 -18.167 -186.999 -54.5s-100.666 -84.5 -123.999 -144.5h539zM575.003 980.999l-256 317l103 101
l201 -207l284 205l60 -103z" />
    <glyph glyph-name="Gcircumflex" unicode="&#x11c;" 
d="M1022 649c-19.333 -88.667 -46.334 -173.331 -81.001 -253.998s-78.667 -152 -132 -214s-115.833 -111.5 -187.5 -148.5s-153.167 -55.5 -244.5 -55.5s-164.666 18.833 -219.999 56.5s-96.666 87.5 -123.999 149.5s-41.333 133.667 -42 215s8.33301 165.666 27 252.999
c19.333 87.333 46.5 171.666 81.5 252.999s79.333 153.333 133 216s116 112.834 187 150.501s152.5 56.5 244.5 56.5c25.333 0 51 -3.66699 77 -11s49.667 -18.5 71 -33.5s39.166 -33.5 53.499 -55.5s22.833 -47.333 25.5 -76l33 154h186l-98 -463h-187
c8.66699 40.667 10.5 79.167 5.5 115.5s-16.333 68.166 -34 95.499s-41.167 48.833 -70.5 64.5s-63 23.5 -101 23.5c-58.667 0 -109.834 -14.667 -153.501 -44s-82 -67.333 -115 -114s-60 -99 -81 -157s-37.833 -116.333 -50.5 -175c-12 -58.667 -19.667 -117 -23 -175
s0.666992 -110.167 12 -156.5s33.5 -83.833 66.5 -112.5s78.833 -43 137.5 -43c84.667 0 158.334 27 221.001 81s116 137.667 160 251h-275l39 186h465zM1002 1456l-101 -102l-198 205l-291 -207l-58 100l392 318z" />
    <glyph glyph-name="gcircumflex" unicode="&#x11d;" 
d="M786 10c-13.333 -64 -36.333 -120.998 -69 -170.998s-72.667 -92.333 -120 -127s-100 -61.167 -158 -79.5s-119.667 -27.5 -185 -27.5c-162.667 0 -289.667 49 -381 147l129 160c79.333 -82 177 -123 293 -123c70.667 0 131.334 17.5 182.001 52.5
s84.334 89.833 101.001 164.5l22 100c-50.667 -36.667 -97.834 -63.834 -141.501 -81.501s-91.5 -26.5 -143.5 -26.5c-60 0 -112.833 12.667 -158.5 38s-82.167 59.833 -109.5 103.5s-45.333 94.5 -54 152.5s-6.33398 119.667 6.99902 185s36.833 127.166 70.5 185.499
s73.667 109 120 152s97.833 77 154.5 102s115 37.5 175 37.5c52 0 96.5 -8.83301 133.5 -26.5s71.167 -44.167 102.5 -79.5l18 84h207zM721 684.002c-18 27.333 -45.0029 48.168 -81.0029 62.501s-72.667 21.5 -110 21.5c-77.333 0 -146.166 -27.333 -206.499 -82
s-99.166 -124.334 -116.499 -209.001c-9.33301 -42 -11.333 -80.833 -6 -116.5s16.833 -66.5 34.5 -92.5s41.167 -46.5 70.5 -61.5s63.333 -22.5 102 -22.5c36.667 0 75.834 7.5 117.501 22.5s78.167 36.167 109.5 63.5zM921.997 1085l-101 -102l-198 205l-291 -207l-58 100
l392 318z" />
    <glyph glyph-name="Gbreve" unicode="&#x11e;" 
d="M1022 649c-19.333 -88.667 -46.334 -173.331 -81.001 -253.998s-78.667 -152 -132 -214s-115.833 -111.5 -187.5 -148.5s-153.167 -55.5 -244.5 -55.5s-164.666 18.833 -219.999 56.5s-96.666 87.5 -123.999 149.5s-41.333 133.667 -42 215s8.33301 165.666 27 252.999
c19.333 87.333 46.5 171.666 81.5 252.999s79.333 153.333 133 216s116 112.834 187 150.501s152.5 56.5 244.5 56.5c25.333 0 51 -3.66699 77 -11s49.667 -18.5 71 -33.5s39.166 -33.5 53.499 -55.5s22.833 -47.333 25.5 -76l33 154h186l-98 -463h-187
c8.66699 40.667 10.5 79.167 5.5 115.5s-16.333 68.166 -34 95.499s-41.167 48.833 -70.5 64.5s-63 23.5 -101 23.5c-58.667 0 -109.834 -14.667 -153.501 -44s-82 -67.333 -115 -114s-60 -99 -81 -157s-37.833 -116.333 -50.5 -175c-12 -58.667 -19.667 -117 -23 -175
s0.666992 -110.167 12 -156.5s33.5 -83.833 66.5 -112.5s78.833 -43 137.5 -43c84.667 0 158.334 27 221.001 81s116 137.667 160 251h-275l39 186h465zM1024 1538c-109.333 -90 -227.999 -135 -355.999 -135c-128.667 0 -228.334 45 -299.001 135l145 119
c49.333 -62.667 111.666 -94 186.999 -94c74.667 0 150.334 31.333 227.001 94z" />
    <glyph glyph-name="gbreve" unicode="&#x11f;" 
d="M786 10c-13.333 -64 -36.333 -120.998 -69 -170.998s-72.667 -92.333 -120 -127s-100 -61.167 -158 -79.5s-119.667 -27.5 -185 -27.5c-162.667 0 -289.667 49 -381 147l129 160c79.333 -82 177 -123 293 -123c70.667 0 131.334 17.5 182.001 52.5
s84.334 89.833 101.001 164.5l22 100c-50.667 -36.667 -97.834 -63.834 -141.501 -81.501s-91.5 -26.5 -143.5 -26.5c-60 0 -112.833 12.667 -158.5 38s-82.167 59.833 -109.5 103.5s-45.333 94.5 -54 152.5s-6.33398 119.667 6.99902 185s36.833 127.166 70.5 185.499
s73.667 109 120 152s97.833 77 154.5 102s115 37.5 175 37.5c52 0 96.5 -8.83301 133.5 -26.5s71.167 -44.167 102.5 -79.5l18 84h207zM721 684.002c-18 27.333 -45.0029 48.168 -81.0029 62.501s-72.667 21.5 -110 21.5c-77.333 0 -146.166 -27.333 -206.499 -82
s-99.166 -124.334 -116.499 -209.001c-9.33301 -42 -11.333 -80.833 -6 -116.5s16.833 -66.5 34.5 -92.5s41.167 -46.5 70.5 -61.5s63.333 -22.5 102 -22.5c36.667 0 75.834 7.5 117.501 22.5s78.167 36.167 109.5 63.5zM943.997 1167
c-109.333 -90 -227.999 -135 -355.999 -135c-128.667 0 -228.334 45 -299.001 135l145 119c49.333 -62.667 111.666 -94 186.999 -94c74.667 0 150.334 31.333 227.001 94z" />
    <glyph glyph-name="Gdotaccent" unicode="&#x120;" 
d="M1022 649c-19.333 -88.667 -46.334 -173.331 -81.001 -253.998s-78.667 -152 -132 -214s-115.833 -111.5 -187.5 -148.5s-153.167 -55.5 -244.5 -55.5s-164.666 18.833 -219.999 56.5s-96.666 87.5 -123.999 149.5s-41.333 133.667 -42 215s8.33301 165.666 27 252.999
c19.333 87.333 46.5 171.666 81.5 252.999s79.333 153.333 133 216s116 112.834 187 150.501s152.5 56.5 244.5 56.5c25.333 0 51 -3.66699 77 -11s49.667 -18.5 71 -33.5s39.166 -33.5 53.499 -55.5s22.833 -47.333 25.5 -76l33 154h186l-98 -463h-187
c8.66699 40.667 10.5 79.167 5.5 115.5s-16.333 68.166 -34 95.499s-41.167 48.833 -70.5 64.5s-63 23.5 -101 23.5c-58.667 0 -109.834 -14.667 -153.501 -44s-82 -67.333 -115 -114s-60 -99 -81 -157s-37.833 -116.333 -50.5 -175c-12 -58.667 -19.667 -117 -23 -175
s0.666992 -110.167 12 -156.5s33.5 -83.833 66.5 -112.5s78.833 -43 137.5 -43c84.667 0 158.334 27 221.001 81s116 137.667 160 251h-275l39 186h465zM796.999 1424h-252l53 252h252z" />
    <glyph glyph-name="gdotaccent" unicode="&#x121;" 
d="M786 10c-13.333 -64 -36.333 -120.998 -69 -170.998s-72.667 -92.333 -120 -127s-100 -61.167 -158 -79.5s-119.667 -27.5 -185 -27.5c-162.667 0 -289.667 49 -381 147l129 160c79.333 -82 177 -123 293 -123c70.667 0 131.334 17.5 182.001 52.5
s84.334 89.833 101.001 164.5l22 100c-50.667 -36.667 -97.834 -63.834 -141.501 -81.501s-91.5 -26.5 -143.5 -26.5c-60 0 -112.833 12.667 -158.5 38s-82.167 59.833 -109.5 103.5s-45.333 94.5 -54 152.5s-6.33398 119.667 6.99902 185s36.833 127.166 70.5 185.499
s73.667 109 120 152s97.833 77 154.5 102s115 37.5 175 37.5c52 0 96.5 -8.83301 133.5 -26.5s71.167 -44.167 102.5 -79.5l18 84h207zM721 684.002c-18 27.333 -45.0029 48.168 -81.0029 62.501s-72.667 21.5 -110 21.5c-77.333 0 -146.166 -27.333 -206.499 -82
s-99.166 -124.334 -116.499 -209.001c-9.33301 -42 -11.333 -80.833 -6 -116.5s16.833 -66.5 34.5 -92.5s41.167 -46.5 70.5 -61.5s63.333 -22.5 102 -22.5c36.667 0 75.834 7.5 117.501 22.5s78.167 36.167 109.5 63.5zM716.997 1053h-252l53 252h252z" />
    <glyph glyph-name="Gcommaaccent" unicode="&#x122;" 
d="M1022 649c-19.333 -88.667 -46.334 -173.331 -81.001 -253.998s-78.667 -152 -132 -214s-115.833 -111.5 -187.5 -148.5s-153.167 -55.5 -244.5 -55.5s-164.666 18.833 -219.999 56.5s-96.666 87.5 -123.999 149.5s-41.333 133.667 -42 215s8.33301 165.666 27 252.999
c19.333 87.333 46.5 171.666 81.5 252.999s79.333 153.333 133 216s116 112.834 187 150.501s152.5 56.5 244.5 56.5c25.333 0 51 -3.66699 77 -11s49.667 -18.5 71 -33.5s39.166 -33.5 53.499 -55.5s22.833 -47.333 25.5 -76l33 154h186l-98 -463h-187
c8.66699 40.667 10.5 79.167 5.5 115.5s-16.333 68.166 -34 95.499s-41.167 48.833 -70.5 64.5s-63 23.5 -101 23.5c-58.667 0 -109.834 -14.667 -153.501 -44s-82 -67.333 -115 -114s-60 -99 -81 -157s-37.833 -116.333 -50.5 -175c-12 -58.667 -19.667 -117 -23 -175
s0.666992 -110.167 12 -156.5s33.5 -83.833 66.5 -112.5s78.833 -43 137.5 -43c84.667 0 158.334 27 221.001 81s116 137.667 160 251h-275l39 186h465zM560.999 -108.997l-248 -264h-190l160 264h278z" />
    <glyph glyph-name="gcommaaccent" unicode="&#x123;" 
d="M508 1118l250 373h157l-161 -373h-246zM786 10c-13.333 -64 -36.333 -120.998 -69 -170.998s-72.667 -92.333 -120 -127s-100 -61.167 -158 -79.5s-119.667 -27.5 -185 -27.5c-162.667 0 -289.667 49 -381 147l129 160c79.333 -82 177 -123 293 -123
c70.667 0 131.334 17.5 182.001 52.5s84.334 89.833 101.001 164.5l22 100c-50.667 -36.667 -97.834 -63.834 -141.501 -81.501s-91.5 -26.5 -143.5 -26.5c-60 0 -112.833 12.667 -158.5 38s-82.167 59.833 -109.5 103.5s-45.333 94.5 -54 152.5
s-6.33398 119.667 6.99902 185s36.833 127.166 70.5 185.499s73.667 109 120 152s97.833 77 154.5 102s115 37.5 175 37.5c52 0 96.5 -8.83301 133.5 -26.5s71.167 -44.167 102.5 -79.5l18 84h207zM721 684.002c-18 27.333 -45.0029 48.168 -81.0029 62.501
s-72.667 21.5 -110 21.5c-77.333 0 -146.166 -27.333 -206.499 -82s-99.166 -124.334 -116.499 -209.001c-9.33301 -42 -11.333 -80.833 -6 -116.5s16.833 -66.5 34.5 -92.5s41.167 -46.5 70.5 -61.5s63.333 -22.5 102 -22.5c36.667 0 75.834 7.5 117.501 22.5
s78.167 36.167 109.5 63.5z" />
    <glyph glyph-name="Hcircumflex" unicode="&#x124;" 
d="M784 0h-206l120 571h-419l-121 -571h-207l276 1305h207l-117 -547h420l117 547h207zM1002 1456l-101 -102l-198 205l-291 -207l-58 100l392 318z" />
    <glyph glyph-name="hcircumflex" unicode="&#x125;" 
d="M784 0h-206.001l120 575c15.333 72.667 12.333 123 -9 151s-57.666 42 -108.999 42c-76.667 0 -145.667 -31 -207 -93s-103.666 -147.667 -126.999 -257l-88 -418h-207l276 1305h207l-129 -607c38 80.667 89.833 143.5 155.5 188.5s139.5 67.5 221.5 67.5
c95.333 0 163.166 -31 203.499 -93s46.833 -157.333 19.5 -286zM1002 1456l-101 -102l-198 205l-291 -207l-58 100l392 318z" />
    <glyph glyph-name="Hbar" unicode="&#x126;" 
d="M1022 1118h186l-39 -174h-186l-199 -944h-206l120 571h-419l-121 -571h-207l199 944h-187l39 174h186l39 187h207l-39 -187h420l39 187h207zM737 758l39 186h-420l-39 -186h420z" />
    <glyph glyph-name="hbar" unicode="&#x127;" 
d="M784 0h-206.001l120 575c15.333 72.667 12.333 123 -9 151s-57.666 42 -108.999 42c-76.667 0 -145.667 -31 -207 -93s-103.666 -147.667 -126.999 -257l-88 -418h-207l209 989h-172l37 174h172l30 142h207l-31 -142h181l-37 -174h-180l-62 -291
c38 80.667 89.833 143.5 155.5 188.5s139.5 67.5 221.5 67.5c95.333 0 163.166 -31 203.499 -93s46.833 -157.333 19.5 -286z" />
    <glyph glyph-name="Itilde" unicode="&#x128;" 
d="M684 0h-627l39 186h207l199 932h-207l39 187h627l-39 -187h-213l-199 -932h213zM1120 1616c-44.667 -64 -93.6641 -114.167 -146.997 -150.5s-110.666 -54.5 -171.999 -54.5c-32.667 0 -59.334 6.16699 -80.001 18.5s-39.5 25.666 -56.5 39.999s-34 27.666 -51 39.999
s-37.833 18.5 -62.5 18.5c-34 0 -65 -10.5 -93 -31.5s-57 -50.167 -87 -87.5l-107 70c45.333 62.667 94.666 112.167 147.999 148.5s110.666 54.5 171.999 54.5c32.667 0 59.167 -6.16699 79.5 -18.5s39.166 -25.666 56.499 -39.999s34.5 -27.666 51.5 -39.999
s37.833 -18.5 62.5 -18.5c34 0 65 10.5 93 31.5s57 50.833 87 89.5z" />
    <glyph glyph-name="itilde" unicode="&#x129;" 
d="M684 0h-627l39 186h207l119 559h-207l39 187h414l-158 -746h213zM1040 1245c-44.667 -64 -93.6641 -114.167 -146.997 -150.5s-110.666 -54.5 -171.999 -54.5c-32.667 0 -59.334 6.16699 -80.001 18.5s-39.5 25.666 -56.5 39.999s-34 27.666 -51 39.999
s-37.833 18.5 -62.5 18.5c-34 0 -65 -10.5 -93 -31.5s-57 -50.167 -87 -87.5l-107 70c45.333 62.667 94.666 112.167 147.999 148.5s110.666 54.5 171.999 54.5c32.667 0 59.167 -6.16699 79.5 -18.5s39.166 -25.666 56.499 -39.999s34.5 -27.666 51.5 -39.999
s37.833 -18.5 62.5 -18.5c34 0 65 10.5 93 31.5s57 50.833 87 89.5z" />
    <glyph glyph-name="Imacron" unicode="&#x12a;" 
d="M684 0h-627l39 186h207l199 932h-207l39 187h627l-39 -187h-213l-199 -932h213zM948 1415h-559l37 175h559z" />
    <glyph glyph-name="imacron" unicode="&#x12b;" 
d="M684 0h-627l39 186h207l119 559h-207l39 187h414l-158 -746h213zM868 1044h-559l37 175h559z" />
    <glyph glyph-name="Ibreve" unicode="&#x12c;" 
d="M684 0h-627l39 186h207l199 932h-207l39 187h627l-39 -187h-213l-199 -932h213zM1024 1538c-109.333 -90 -227.999 -135 -355.999 -135c-128.667 0 -228.334 45 -299.001 135l145 119c49.333 -62.667 111.666 -94 186.999 -94c74.667 0 150.334 31.333 227.001 94z" />
    <glyph glyph-name="ibreve" unicode="&#x12d;" 
d="M684 0h-627l39 186h207l119 559h-207l39 187h414l-158 -746h213zM944 1167c-109.333 -90 -227.999 -135 -355.999 -135c-128.667 0 -228.334 45 -299.001 135l145 119c49.333 -62.667 111.666 -94 186.999 -94c74.667 0 150.334 31.333 227.001 94z" />
    <glyph glyph-name="Iogonek" unicode="&#x12e;" 
d="M715 -379c-90 0 -156.833 19.834 -200.5 59.501s-57.5 99.167 -41.5 178.5c5.33301 27.333 15.5 52.833 30.5 76.5s32.833 45.167 53.5 64.5h-500l39 186h207l199 932h-207l39 187h627l-39 -187h-213l-199 -932h213l-39 -186c-32.667 -28.667 -53 -63.334 -61 -104.001
c-10 -42.667 -2.66699 -74.5 22 -95.5s58 -31.5 100 -31.5z" />
    <glyph glyph-name="iogonek" unicode="&#x12f;" 
d="M715 -379c-90 0 -156.833 19.834 -200.5 59.501s-57.5 99.167 -41.5 178.5c5.33301 27.333 15.5 52.833 30.5 76.5s32.833 45.167 53.5 64.5h-500l39 186h207l119 559h-207l39 187h414l-158 -746h213l-39 -186c-32.667 -28.667 -53 -63.334 -61 -104.001
c-10 -42.667 -2.66699 -74.5 22 -95.5s58 -31.5 100 -31.5zM717 1053h-252l53 252h252z" />
    <glyph glyph-name="Idotaccent" unicode="&#x130;" 
d="M684 0h-627l39 186h207l199 932h-207l39 187h627l-39 -187h-213l-199 -932h213zM797 1424h-252l53 252h252z" />
    <glyph glyph-name="dotlessi" unicode="&#x131;" 
d="M684 0h-627l39 186h207l119 559h-207l39 187h414l-158 -746h213z" />
    <glyph glyph-name="IJ" unicode="&#x132;" 
d="M213 -135c36.667 -49.333 92.667 -74 168 -74c45.333 0 84.333 9.16699 117 27.5s60.167 43 82.5 74s41 66.5 56 106.5s26.833 82 35.5 126l252 1180h206l-251 -1180c-34.667 -165.333 -97 -293.333 -187 -384s-207.333 -136 -352 -136
c-122.667 0 -217.667 34.667 -285 104zM498 0h-627l39 186h207l199 932h-207l39 187h627l-39 -187h-213l-199 -932h213z" />
    <glyph glyph-name="ij" unicode="&#x133;" 
d="M562 1053h-252l53 252h252zM529 0h-627l39 186h207l119 559h-207l39 187h414l-158 -746h213zM377 -395c-142 0 -244.331 53 -306.998 159l149 138c24.667 -37.333 52.667 -65.166 84 -83.499s69.666 -27.5 114.999 -27.5c69.333 0 124.833 19.167 166.5 57.5
s69.5 88.833 83.5 151.5l157 745h-211l39 187h418l-197 -932c-13.333 -60 -35 -114.333 -65 -163s-66.833 -90.334 -110.5 -125.001s-92.834 -61.167 -147.501 -79.5s-112.667 -27.5 -174 -27.5zM1120 1053h-252l54 252h251z" />
    <glyph glyph-name="Jcircumflex" unicode="&#x134;" 
d="M889 498c-35.333 -165.333 -97.8301 -293.5 -187.497 -384.5s-206.834 -136.5 -351.501 -136.5c-116 0 -206.667 30.5 -272 91.5s-101 152.167 -107 273.5l201 70c2.66699 -78 21.5 -138.833 56.5 -182.5s89.167 -65.5 162.5 -65.5c45.333 0 84 9.16699 116 27.5
s59.667 42.833 83 73.5s42.166 66.167 56.499 106.5s26.166 82.5 35.499 126.5l172 807h207zM1002 1456l-101 -102l-198 205l-291 -207l-58 100l392 318z" />
    <glyph glyph-name="jcircumflex" unicode="&#x135;" 
d="M160 -395c-142 0 -244.331 53 -306.998 159l149 138c24.667 -37.333 52.667 -65.166 84 -83.499s69.666 -27.5 114.999 -27.5c69.333 0 124.833 19.167 166.5 57.5s69.5 88.833 83.5 151.5l157 745h-211l39 187h418l-197 -932c-13.333 -60 -35 -114.333 -65 -163
s-66.833 -90.334 -110.5 -125.001s-92.834 -61.167 -147.501 -79.5s-112.667 -27.5 -174 -27.5zM1014 1085l-101 -102l-198 205l-291 -207l-58 100l392 318z" />
    <glyph glyph-name="Kcommaaccent" unicode="&#x136;" 
d="M827 0h-241l-213 608l-109 -102l-106 -506h-207l276 1305h207l-108 -512l514 512h266l-569 -541zM561 -109l-248 -264h-190l160 264h278z" />
    <glyph glyph-name="kcommaaccent" unicode="&#x137;" 
d="M831 0h-268l-231 377l-115 -96l-59 -281h-207l276 1305h207l-164 -768l457 395h285l-520 -428zM561 -109l-248 -264h-190l160 264h278z" />
    <glyph glyph-name="kgreenlandic" unicode="&#x138;" 
d="M831 0h-268l-231 377l-115 -96l-59 -281h-207l196 932h207l-84 -395l457 395h285l-520 -428z" />
    <glyph glyph-name="Lacute" unicode="&#x139;" 
d="M784 0h-833l276 1305h207l-237 -1119h626zM952 1596l-485 -244l-57 137l463 287z" />
    <glyph glyph-name="lacute" unicode="&#x13a;" 
d="M686 0h-627l39 186h205l199 932h-205l39 187h412l-238 -1119h215zM952 1596l-485 -244l-57 137l463 287z" />
    <glyph glyph-name="Lcommaaccent" unicode="&#x13b;" 
d="M784 0h-833l276 1305h207l-237 -1119h626zM561 -109l-248 -264h-190l160 264h278z" />
    <glyph glyph-name="lcommaaccent" unicode="&#x13c;" 
d="M686 0h-627l39 186h205l199 932h-205l39 187h412l-238 -1119h215zM561 -109l-248 -264h-190l160 264h278z" />
    <glyph glyph-name="Lcaron" unicode="&#x13d;" 
d="M784 0h-833l276 1305h207l-237 -1119h626zM980 1305l-200 -557h-162l117 557h245z" />
    <glyph glyph-name="lcaron" unicode="&#x13e;" 
d="M686 0h-627l39 186h205l199 932h-205l39 187h412l-238 -1119h215zM1167 1305l-200 -557h-162l117 557h245z" />
    <glyph glyph-name="Ldot" unicode="&#x13f;" 
d="M784 0h-833l276 1305h207l-237 -1119h626zM817 493h-252l54 252h252z" />
    <glyph glyph-name="ldot" unicode="&#x140;" 
d="M686 0h-627l39 186h205l199 932h-205l39 187h412l-238 -1119h215zM1126 352h-252l54 252h252z" />
    <glyph glyph-name="Lslash" unicode="&#x141;" 
d="M784 0h-833l108 520l-182 -57l37 188l186 58l127 596h207l-112 -529l190 62l-39 -189l-190 -61l-86 -402h626z" />
    <glyph glyph-name="lslash" unicode="&#x142;" 
d="M686 0h-627l39 186h205l70 334l-191 -59l41 188l191 60l88 409h-205l39 187h412l-113 -529l186 60l-39 -189l-186 -59l-86 -402h215z" />
    <glyph glyph-name="Nacute" unicode="&#x143;" 
d="M784 0h-239l-187 946l-200 -946h-207l276 1305h260l177 -899l190 899h207zM952 1596l-485 -244l-57 137l463 287z" />
    <glyph glyph-name="nacute" unicode="&#x144;" 
d="M784 0h-206.001l120 575c15.333 72.667 12.333 123 -9 151s-57.666 42 -108.999 42c-76.667 0 -145.667 -31 -207 -93s-103.666 -147.667 -126.999 -257l-88 -418h-207l196 932h207l-49 -234c38 80.667 89.833 143.5 155.5 188.5s139.5 67.5 221.5 67.5
c95.333 0 163.166 -31 203.499 -93s46.833 -157.333 19.5 -286zM871.999 1225l-485 -244l-57 137l463 287z" />
    <glyph glyph-name="Ncommaaccent" unicode="&#x145;" 
d="M784 0h-239l-187 946l-200 -946h-207l276 1305h260l177 -899l190 899h207zM561 -109l-248 -264h-190l160 264h278z" />
    <glyph glyph-name="ncommaaccent" unicode="&#x146;" 
d="M784 0h-206.001l120 575c15.333 72.667 12.333 123 -9 151s-57.666 42 -108.999 42c-76.667 0 -145.667 -31 -207 -93s-103.666 -147.667 -126.999 -257l-88 -418h-207l196 932h207l-49 -234c38 80.667 89.833 143.5 155.5 188.5s139.5 67.5 221.5 67.5
c95.333 0 163.166 -31 203.499 -93s46.833 -157.333 19.5 -286zM560.999 -109l-248 -264h-190l160 264h278z" />
    <glyph glyph-name="Ncaron" unicode="&#x147;" 
d="M784 0h-239l-187 946l-200 -946h-207l276 1305h260l177 -899l190 899h207zM655 1352l-256 317l103 101l201 -207l284 205l60 -103z" />
    <glyph glyph-name="ncaron" unicode="&#x148;" 
d="M784 0h-206.001l120 575c15.333 72.667 12.333 123 -9 151s-57.666 42 -108.999 42c-76.667 0 -145.667 -31 -207 -93s-103.666 -147.667 -126.999 -257l-88 -418h-207l196 932h207l-49 -234c38 80.667 89.833 143.5 155.5 188.5s139.5 67.5 221.5 67.5
c95.333 0 163.166 -31 203.499 -93s46.833 -157.333 19.5 -286zM574.999 981l-256 317l103 101l201 -207l284 205l60 -103z" />
    <glyph glyph-name="napostrophe" unicode="&#x149;" 
d="M784 0h-206.001l120 575c15.333 72.667 12.333 123 -9 151s-57.666 42 -108.999 42c-76.667 0 -145.667 -31 -207 -93s-103.666 -147.667 -126.999 -257l-88 -418h-207l196 932h207l-49 -234c38 80.667 89.833 143.5 155.5 188.5s139.5 67.5 221.5 67.5
c95.333 0 163.166 -31 203.499 -93s46.833 -157.333 19.5 -286zM501.999 1675l-200 -557h-162l117 557h245z" />
    <glyph glyph-name="Eng" unicode="&#x14a;" 
d="M809 125c-34 -165.333 -96.165 -293.333 -186.498 -384s-207.833 -136 -352.5 -136c-122.667 0 -217.334 34.667 -284.001 104l157 156c37.333 -49.333 93.333 -74 168 -74c58.667 0 107.167 16 145.5 48s69.166 72 92.499 120l-191 987l-200 -946h-207l276 1305h260
l177 -899l190 899h207z" />
    <glyph glyph-name="eng" unicode="&#x14b;" 
d="M195 -164c36.667 -30 81 -44.999 133 -44.999c69.333 0 124.833 19.167 166.5 57.5s69.5 88.833 83.5 151.5l120 575c15.333 72.667 12.333 123 -9 151s-57.666 42 -108.999 42c-76.667 0 -145.667 -31 -207 -93s-103.666 -147.667 -126.999 -257l-88 -418h-207l196 932
h207l-49 -234c38 80.667 89.833 143.5 155.5 188.5s139.5 67.5 221.5 67.5c95.333 0 163.166 -31 203.499 -93s46.833 -157.333 19.5 -286l-121 -575c-13.333 -60 -35 -114.333 -65 -163s-66.833 -90.334 -110.5 -125.001s-92.834 -61.167 -147.501 -79.5
s-112.667 -27.5 -174 -27.5c-84.667 0 -155.667 19 -213 57z" />
    <glyph glyph-name="Omacron" unicode="&#x14c;" 
d="M6 653c19.333 87.333 46.665 171.666 81.998 252.999s79.666 153 132.999 215s115.5 111.833 186.5 149.5s151.5 56.5 241.5 56.5s163 -18.833 219 -56.5s97.333 -87.5 124 -149.5s40.334 -133.667 41.001 -215s-8.33301 -165.666 -27 -252.999
c-18 -87.333 -44.833 -171.5 -80.5 -252.5s-79.667 -153 -132 -216s-114.333 -113.333 -186 -151s-153.5 -56.5 -245.5 -56.5c-91.333 0 -164.666 18.833 -219.999 56.5s-96.166 88 -122.499 151s-39.5 135 -39.5 216s8.66699 165.167 26 252.5zM212.999 653
c-12 -58.667 -19.835 -117.335 -23.502 -176.002s0.333008 -111.167 12 -157.5s33.5 -83.833 65.5 -112.5s77.333 -43 136 -43c59.333 0 110.5 14.333 153.5 43s80.5 66.167 112.5 112.5s58.5 98.833 79.5 157.5s37.833 117.334 50.5 176.001c12 58.667 20 117 24 175
s0 110.333 -12 157s-34.167 84.334 -66.5 113.001s-77.166 43 -134.499 43c-95.333 0 -177.166 -43 -245.499 -129s-118.833 -205.667 -151.5 -359zM947.997 1415h-559l37 175h559z" />
    <glyph glyph-name="omacron" unicode="&#x14d;" 
d="M956 465c-16 -72.667 -41.832 -138.667 -77.499 -198s-79.334 -110.5 -131.001 -153.5s-110.334 -76.5 -176.001 -100.5s-135.5 -36 -209.5 -36c-72 0 -135.333 12 -190 36s-99 57.5 -133 100.5s-56.5 94.167 -67.5 153.5s-8.16699 125.333 8.5 198
c14.667 70.667 40.167 136.167 76.5 196.5s80.333 112.333 132 156s110.334 77.334 176.001 101.001s134.5 35.5 206.5 35.5c74 0 138.333 -11.833 193 -35.5s99 -57.334 133 -101.001s56.167 -95.667 66.5 -156s7.83301 -125.833 -7.5 -196.5zM750.001 465
c8 42 9.66309 81.833 4.99609 119.5s-16.667 69.834 -36 96.501s-44.666 47.834 -75.999 63.501s-69 23.5 -113 23.5c-43.333 0 -84.166 -7.83301 -122.499 -23.5s-72.166 -36.834 -101.499 -63.501s-54.5 -58.834 -75.5 -96.501s-35.833 -77.5 -44.5 -119.5
c-9.33301 -44 -11.333 -84 -6 -120s17 -67.667 35 -95s43 -48.5 75 -63.5s69.667 -22.5 113 -22.5c44 0 84.833 7.5 122.5 22.5s71.834 36.167 102.501 63.5s56.167 59 76.5 95s35.5 76 45.5 120zM867.997 1044h-559l37 175h559z" />
    <glyph glyph-name="Obreve" unicode="&#x14e;" 
d="M6 653c19.333 87.333 46.665 171.666 81.998 252.999s79.666 153 132.999 215s115.5 111.833 186.5 149.5s151.5 56.5 241.5 56.5s163 -18.833 219 -56.5s97.333 -87.5 124 -149.5s40.334 -133.667 41.001 -215s-8.33301 -165.666 -27 -252.999
c-18 -87.333 -44.833 -171.5 -80.5 -252.5s-79.667 -153 -132 -216s-114.333 -113.333 -186 -151s-153.5 -56.5 -245.5 -56.5c-91.333 0 -164.666 18.833 -219.999 56.5s-96.166 88 -122.499 151s-39.5 135 -39.5 216s8.66699 165.167 26 252.5zM212.999 653
c-12 -58.667 -19.835 -117.335 -23.502 -176.002s0.333008 -111.167 12 -157.5s33.5 -83.833 65.5 -112.5s77.333 -43 136 -43c59.333 0 110.5 14.333 153.5 43s80.5 66.167 112.5 112.5s58.5 98.833 79.5 157.5s37.833 117.334 50.5 176.001c12 58.667 20 117 24 175
s0 110.333 -12 157s-34.167 84.334 -66.5 113.001s-77.166 43 -134.499 43c-95.333 0 -177.166 -43 -245.499 -129s-118.833 -205.667 -151.5 -359zM1024 1538c-109.333 -90 -227.999 -135 -355.999 -135c-128.667 0 -228.334 45 -299.001 135l145 119
c49.333 -62.667 111.666 -94 186.999 -94c74.667 0 150.334 31.333 227.001 94z" />
    <glyph glyph-name="obreve" unicode="&#x14f;" 
d="M956 465c-16 -72.667 -41.832 -138.667 -77.499 -198s-79.334 -110.5 -131.001 -153.5s-110.334 -76.5 -176.001 -100.5s-135.5 -36 -209.5 -36c-72 0 -135.333 12 -190 36s-99 57.5 -133 100.5s-56.5 94.167 -67.5 153.5s-8.16699 125.333 8.5 198
c14.667 70.667 40.167 136.167 76.5 196.5s80.333 112.333 132 156s110.334 77.334 176.001 101.001s134.5 35.5 206.5 35.5c74 0 138.333 -11.833 193 -35.5s99 -57.334 133 -101.001s56.167 -95.667 66.5 -156s7.83301 -125.833 -7.5 -196.5zM750.001 465
c8 42 9.66309 81.833 4.99609 119.5s-16.667 69.834 -36 96.501s-44.666 47.834 -75.999 63.501s-69 23.5 -113 23.5c-43.333 0 -84.166 -7.83301 -122.499 -23.5s-72.166 -36.834 -101.499 -63.501s-54.5 -58.834 -75.5 -96.501s-35.833 -77.5 -44.5 -119.5
c-9.33301 -44 -11.333 -84 -6 -120s17 -67.667 35 -95s43 -48.5 75 -63.5s69.667 -22.5 113 -22.5c44 0 84.833 7.5 122.5 22.5s71.834 36.167 102.501 63.5s56.167 59 76.5 95s35.5 76 45.5 120zM943.997 1167c-109.333 -90 -227.999 -135 -355.999 -135
c-128.667 0 -228.334 45 -299.001 135l145 119c49.333 -62.667 111.666 -94 186.999 -94c74.667 0 150.334 31.333 227.001 94z" />
    <glyph glyph-name="Ohungarumlaut" unicode="&#x150;" 
d="M6 653c19.333 87.333 46.665 171.666 81.998 252.999s79.666 153 132.999 215s115.5 111.833 186.5 149.5s151.5 56.5 241.5 56.5s163 -18.833 219 -56.5s97.333 -87.5 124 -149.5s40.334 -133.667 41.001 -215s-8.33301 -165.666 -27 -252.999
c-18 -87.333 -44.833 -171.5 -80.5 -252.5s-79.667 -153 -132 -216s-114.333 -113.333 -186 -151s-153.5 -56.5 -245.5 -56.5c-91.333 0 -164.666 18.833 -219.999 56.5s-96.166 88 -122.499 151s-39.5 135 -39.5 216s8.66699 165.167 26 252.5zM212.999 653
c-12 -58.667 -19.835 -117.335 -23.502 -176.002s0.333008 -111.167 12 -157.5s33.5 -83.833 65.5 -112.5s77.333 -43 136 -43c59.333 0 110.5 14.333 153.5 43s80.5 66.167 112.5 112.5s58.5 98.833 79.5 157.5s37.833 117.334 50.5 176.001c12 58.667 20 117 24 175
s0 110.333 -12 157s-34.167 84.334 -66.5 113.001s-77.166 43 -134.499 43c-95.333 0 -177.166 -43 -245.499 -129s-118.833 -205.667 -151.5 -359zM896.997 1395h-172l221 375h217zM523.997 1395h-170l220 375h217z" />
    <glyph glyph-name="ohungarumlaut" unicode="&#x151;" 
d="M956 465c-16 -72.667 -41.832 -138.667 -77.499 -198s-79.334 -110.5 -131.001 -153.5s-110.334 -76.5 -176.001 -100.5s-135.5 -36 -209.5 -36c-72 0 -135.333 12 -190 36s-99 57.5 -133 100.5s-56.5 94.167 -67.5 153.5s-8.16699 125.333 8.5 198
c14.667 70.667 40.167 136.167 76.5 196.5s80.333 112.333 132 156s110.334 77.334 176.001 101.001s134.5 35.5 206.5 35.5c74 0 138.333 -11.833 193 -35.5s99 -57.334 133 -101.001s56.167 -95.667 66.5 -156s7.83301 -125.833 -7.5 -196.5zM750.001 465
c8 42 9.66309 81.833 4.99609 119.5s-16.667 69.834 -36 96.501s-44.666 47.834 -75.999 63.501s-69 23.5 -113 23.5c-43.333 0 -84.166 -7.83301 -122.499 -23.5s-72.166 -36.834 -101.499 -63.501s-54.5 -58.834 -75.5 -96.501s-35.833 -77.5 -44.5 -119.5
c-9.33301 -44 -11.333 -84 -6 -120s17 -67.667 35 -95s43 -48.5 75 -63.5s69.667 -22.5 113 -22.5c44 0 84.833 7.5 122.5 22.5s71.834 36.167 102.501 63.5s56.167 59 76.5 95s35.5 76 45.5 120zM816.997 1024h-172l221 375h217zM443.997 1024h-170l220 375h217z" />
    <glyph glyph-name="OE" unicode="&#x152;" 
d="M834 0h-473.999l25 123c-56 -97.333 -127 -146 -213 -146c-194 0 -243.667 224.667 -149 674c95.333 450.667 240.666 676 435.999 676c42 0 75.667 -13 101 -39s42 -62.667 50 -110l27 127h473l-39 -187h-336l-78 -360h246l-39 -187h-246l-81 -385h335zM434.001 651
c15.333 72.667 27.999 139 37.999 199s16.167 111.5 18.5 154.5s-0.666992 76.5 -9 100.5s-22.833 36 -43.5 36c-20 0 -39.667 -12 -59 -36s-37.5 -57.5 -54.5 -100.5s-33.333 -94.5 -49 -154.5s-31.167 -126.333 -46.5 -199c-14.667 -72 -27.167 -138.167 -37.5 -198.5
s-15.833 -112 -16.5 -155s3.5 -76 12.5 -99s23.5 -34.5 43.5 -34.5c20.667 0 40.167 11.5 58.5 34.5s35.5 56 51.5 99s31.833 94.667 47.5 155s30.834 126.5 45.501 198.5z" />
    <glyph glyph-name="oe" unicode="&#x153;" 
d="M551 385c-14 -64 -16.502 -116.833 -7.50195 -158.5s31.167 -62.5 66.5 -62.5c27.333 0 50.333 8.5 69 25.5s35.334 45.167 50.001 84.5l170 -53c-35.333 -82 -80.333 -143.167 -135 -183.5s-112.667 -60.5 -174 -60.5c-120 0 -182.333 67.667 -187 203
c-57.333 -135.333 -141.666 -203 -252.999 -203c-186 0 -245 163.333 -177 490c70 324.667 198.333 487 385 487c109.333 0 165.333 -64 168 -192c56 128 142.667 192 260 192c67.333 0 115.666 -17.667 144.999 -53s47.333 -80.666 54 -135.999
s5.33398 -116.833 -3.99902 -184.5s-21 -132.834 -35 -195.501h-395zM779.998 571c12.667 62 16.5 110.333 11.5 145s-25.833 52 -62.5 52s-65 -17.333 -85 -52s-37.333 -83 -52 -145h188zM361.998 467c42.667 200.667 34 301 -26 301
c-61.333 0 -113.333 -100.333 -156 -301c-42 -202 -32.333 -303 29 -303c60 0 111 101 153 303z" />
    <glyph glyph-name="Racute" unicode="&#x154;" 
d="M852 0h-262l-228 528h-94l-110 -528h-207l276 1305h430c143.333 0 247.5 -32.833 312.5 -98.5s84.5 -162.834 58.5 -291.501c-12 -57.333 -31.667 -107.833 -59 -151.5s-60.5 -81.167 -99.5 -112.5s-82 -56.166 -129 -74.499s-96.5 -30.833 -148.5 -37.5zM821 918
c14 66.667 2.83105 116.667 -33.502 150s-92.833 50 -169.5 50h-223l-86 -403h223c76.667 0 140.334 16.667 191.001 50s83.334 84.333 98.001 153zM951.998 1596l-485 -244l-57 137l463 287z" />
    <glyph glyph-name="racute" unicode="&#x155;" 
d="M961 711c-22 12 -45.332 21.167 -69.999 27.5s-53.334 9.5 -86.001 9.5c-46.667 0 -91.5 -6.83301 -134.5 -20.5s-82.167 -34.167 -117.5 -61.5s-65.333 -61.5 -90 -102.5s-43 -89.5 -55 -145.5l-50 -232h209l-39 -186h-626l39 186h211l118 559h-211l39 187h418l-49 -234
c53.333 93.333 117.5 159.333 192.5 198s158.167 58 249.5 58c28.667 0 58 -3 88 -9s58 -16.667 84 -32zM872.001 1225l-485 -244l-57 137l463 287z" />
    <glyph glyph-name="Rcommaaccent" unicode="&#x156;" 
d="M852 0h-262l-228 528h-94l-110 -528h-207l276 1305h430c143.333 0 247.5 -32.833 312.5 -98.5s84.5 -162.834 58.5 -291.501c-12 -57.333 -31.667 -107.833 -59 -151.5s-60.5 -81.167 -99.5 -112.5s-82 -56.166 -129 -74.499s-96.5 -30.833 -148.5 -37.5zM821 918
c14 66.667 2.83105 116.667 -33.502 150s-92.833 50 -169.5 50h-223l-86 -403h223c76.667 0 140.334 16.667 191.001 50s83.334 84.333 98.001 153zM560.998 -109l-248 -264h-190l160 264h278z" />
    <glyph glyph-name="rcommaaccent" unicode="&#x157;" 
d="M961 711c-22 12 -45.332 21.167 -69.999 27.5s-53.334 9.5 -86.001 9.5c-46.667 0 -91.5 -6.83301 -134.5 -20.5s-82.167 -34.167 -117.5 -61.5s-65.333 -61.5 -90 -102.5s-43 -89.5 -55 -145.5l-50 -232h209l-39 -186h-626l39 186h211l118 559h-211l39 187h418l-49 -234
c53.333 93.333 117.5 159.333 192.5 198s158.167 58 249.5 58c28.667 0 58 -3 88 -9s58 -16.667 84 -32zM561.001 -109l-248 -264h-190l160 264h278z" />
    <glyph glyph-name="Rcaron" unicode="&#x158;" 
d="M852 0h-262l-228 528h-94l-110 -528h-207l276 1305h430c143.333 0 247.5 -32.833 312.5 -98.5s84.5 -162.834 58.5 -291.501c-12 -57.333 -31.667 -107.833 -59 -151.5s-60.5 -81.167 -99.5 -112.5s-82 -56.166 -129 -74.499s-96.5 -30.833 -148.5 -37.5zM821 918
c14 66.667 2.83105 116.667 -33.502 150s-92.833 50 -169.5 50h-223l-86 -403h223c76.667 0 140.334 16.667 191.001 50s83.334 84.333 98.001 153zM654.998 1352l-256 317l103 101l201 -207l284 205l60 -103z" />
    <glyph glyph-name="rcaron" unicode="&#x159;" 
d="M961 711c-22 12 -45.332 21.167 -69.999 27.5s-53.334 9.5 -86.001 9.5c-46.667 0 -91.5 -6.83301 -134.5 -20.5s-82.167 -34.167 -117.5 -61.5s-65.333 -61.5 -90 -102.5s-43 -89.5 -55 -145.5l-50 -232h209l-39 -186h-626l39 186h211l118 559h-211l39 187h418l-49 -234
c53.333 93.333 117.5 159.333 192.5 198s158.167 58 249.5 58c28.667 0 58 -3 88 -9s58 -16.667 84 -32zM575.001 981l-256 317l103 101l201 -207l284 205l60 -103z" />
    <glyph glyph-name="Sacute" unicode="&#x15a;" 
d="M877 358c-14 -60 -35.999 -113.499 -65.999 -160.499s-66.167 -86.833 -108.5 -119.5s-89.5 -57.667 -141.5 -75s-105.333 -26 -160 -26c-61.333 0 -114.166 11 -158.499 33s-78.833 58.333 -103.5 109l-24 -119h-187l90 426h187
c-10 -42.667 -10.833 -80.334 -2.5 -113.001s22.333 -60.167 42 -82.5s44.667 -39.333 75 -51s63.833 -17.5 100.5 -17.5c61.333 0 114.166 14.333 158.499 43s73.5 74.334 87.5 137.001c6.66699 32.667 6.5 60.667 -0.5 84s-19.333 44.166 -37 62.499
s-40.834 34.333 -69.501 48s-60.667 28.167 -96 43.5c-45.333 16 -89.5 34 -132.5 54s-79.833 44.667 -110.5 74s-53.167 65.5 -67.5 108.5s-14.5 97.167 -0.5 162.5c12 57.333 33 107.5 63 150.5s65.833 79.167 107.5 108.5s87 51.5 136 66.5s99.5 22.5 151.5 22.5
c60 0 108.833 -12.667 146.5 -38s64.167 -59 79.5 -101l24 117h187l-86 -406h-187c16.667 76.667 9.33398 136.5 -21.999 179.5s-81.333 64.5 -150 64.5c-60 0 -112.833 -14 -158.5 -42s-73.5 -67.333 -83.5 -118c-6.66699 -26 -6.5 -48.167 0.5 -66.5s18.667 -35 35 -50
s38.166 -29 65.499 -42s59.333 -27.167 96 -42.5c45.333 -17.333 89.833 -37 133.5 -59s81.5 -49 113.5 -81s55.5 -70.833 70.5 -116.5s15.833 -101.5 2.5 -167.5zM952.001 1596l-485 -244l-57 137l463 287z" />
    <glyph glyph-name="sacute" unicode="&#x15b;" 
d="M866 279c-12 -60.667 -35.8311 -109.996 -71.498 -147.996s-77.334 -68.667 -125.001 -92s-99.167 -39.5 -154.5 -48.5s-108.333 -13.5 -159 -13.5c-84.667 0 -166.167 12.333 -244.5 37s-144.166 57 -197.499 97l123 170c64 -42.667 124.667 -72.834 182 -90.501
s116.666 -26.5 177.999 -26.5c83.333 0 145.833 8.83301 187.5 26.5s65.834 42.167 72.501 73.5c3.33301 15.333 0.5 28 -8.5 38s-24.833 19.167 -47.5 27.5s-53 16.666 -91 24.999s-86.333 17.166 -145 26.499c-46.667 8 -90.167 17.833 -130.5 29.5
s-74.5 28.167 -102.5 49.5s-48.5 48.333 -61.5 81s-14.5 73.667 -4.5 123c10.667 50 33 93.5 67 130.5s74.333 67.5 121 91.5s97.167 41.333 151.5 52s107.5 16 159.5 16c74 0 143.333 -9.5 208 -28.5s119 -46.167 163 -81.5l-117 -160
c-43.333 32.667 -88.666 54.834 -135.999 66.501s-100.333 17.5 -159 17.5c-24.667 0 -50.5 -1.33301 -77.5 -4s-52.5 -7.83398 -76.5 -15.501s-44.833 -18 -62.5 -31s-28.834 -28.833 -33.501 -47.5c-5.33301 -24.667 12.167 -44.834 52.5 -60.501
s111.833 -31.167 214.5 -46.5c56 -8 106.167 -18.167 150.5 -30.5s81.166 -29 110.499 -50s50.166 -48 62.499 -81s12.833 -73.833 1.5 -122.5zM872.002 1225l-485 -244l-57 137l463 287z" />
    <glyph glyph-name="Scircumflex" unicode="&#x15c;" 
d="M877 358c-14 -60 -35.999 -113.499 -65.999 -160.499s-66.167 -86.833 -108.5 -119.5s-89.5 -57.667 -141.5 -75s-105.333 -26 -160 -26c-61.333 0 -114.166 11 -158.499 33s-78.833 58.333 -103.5 109l-24 -119h-187l90 426h187
c-10 -42.667 -10.833 -80.334 -2.5 -113.001s22.333 -60.167 42 -82.5s44.667 -39.333 75 -51s63.833 -17.5 100.5 -17.5c61.333 0 114.166 14.333 158.499 43s73.5 74.334 87.5 137.001c6.66699 32.667 6.5 60.667 -0.5 84s-19.333 44.166 -37 62.499
s-40.834 34.333 -69.501 48s-60.667 28.167 -96 43.5c-45.333 16 -89.5 34 -132.5 54s-79.833 44.667 -110.5 74s-53.167 65.5 -67.5 108.5s-14.5 97.167 -0.5 162.5c12 57.333 33 107.5 63 150.5s65.833 79.167 107.5 108.5s87 51.5 136 66.5s99.5 22.5 151.5 22.5
c60 0 108.833 -12.667 146.5 -38s64.167 -59 79.5 -101l24 117h187l-86 -406h-187c16.667 76.667 9.33398 136.5 -21.999 179.5s-81.333 64.5 -150 64.5c-60 0 -112.833 -14 -158.5 -42s-73.5 -67.333 -83.5 -118c-6.66699 -26 -6.5 -48.167 0.5 -66.5s18.667 -35 35 -50
s38.166 -29 65.499 -42s59.333 -27.167 96 -42.5c45.333 -17.333 89.833 -37 133.5 -59s81.5 -49 113.5 -81s55.5 -70.833 70.5 -116.5s15.833 -101.5 2.5 -167.5zM1002 1456l-101 -102l-198 205l-291 -207l-58 100l392 318z" />
    <glyph glyph-name="scircumflex" unicode="&#x15d;" 
d="M866 279c-12 -60.667 -35.8311 -109.996 -71.498 -147.996s-77.334 -68.667 -125.001 -92s-99.167 -39.5 -154.5 -48.5s-108.333 -13.5 -159 -13.5c-84.667 0 -166.167 12.333 -244.5 37s-144.166 57 -197.499 97l123 170c64 -42.667 124.667 -72.834 182 -90.501
s116.666 -26.5 177.999 -26.5c83.333 0 145.833 8.83301 187.5 26.5s65.834 42.167 72.501 73.5c3.33301 15.333 0.5 28 -8.5 38s-24.833 19.167 -47.5 27.5s-53 16.666 -91 24.999s-86.333 17.166 -145 26.499c-46.667 8 -90.167 17.833 -130.5 29.5
s-74.5 28.167 -102.5 49.5s-48.5 48.333 -61.5 81s-14.5 73.667 -4.5 123c10.667 50 33 93.5 67 130.5s74.333 67.5 121 91.5s97.167 41.333 151.5 52s107.5 16 159.5 16c74 0 143.333 -9.5 208 -28.5s119 -46.167 163 -81.5l-117 -160
c-43.333 32.667 -88.666 54.834 -135.999 66.501s-100.333 17.5 -159 17.5c-24.667 0 -50.5 -1.33301 -77.5 -4s-52.5 -7.83398 -76.5 -15.501s-44.833 -18 -62.5 -31s-28.834 -28.833 -33.501 -47.5c-5.33301 -24.667 12.167 -44.834 52.5 -60.501
s111.833 -31.167 214.5 -46.5c56 -8 106.167 -18.167 150.5 -30.5s81.166 -29 110.499 -50s50.166 -48 62.499 -81s12.833 -73.833 1.5 -122.5zM922.002 1085l-101 -102l-198 205l-291 -207l-58 100l392 318z" />
    <glyph glyph-name="Scedilla" unicode="&#x15e;" 
d="M877 358c-11.333 -51.333 -29.665 -98.168 -54.998 -140.501s-55 -79.666 -89 -111.999s-71.833 -58.333 -113.5 -78s-85.834 -33.5 -132.501 -41.5l-6 -27c-9.33301 -46.667 -26.333 -90 -51 -130s-55 -74.667 -91 -104s-77.333 -52.666 -124 -69.999
s-97.334 -26 -152.001 -26l39 178c58.667 0 104.834 13.333 138.501 40s55.167 64 64.5 112l6 27c-77.333 16 -134.666 60.333 -171.999 133l-24 -119h-187l90 426h187c-10 -42.667 -10.833 -80.334 -2.5 -113.001s22.333 -60.167 42 -82.5s44.667 -39.333 75 -51
s63.833 -17.5 100.5 -17.5c61.333 0 114.166 14.333 158.499 43s73.5 74.334 87.5 137.001c6.66699 32.667 6.5 60.667 -0.5 84s-19.333 44.166 -37 62.499s-40.834 34.333 -69.501 48s-60.667 28.167 -96 43.5c-45.333 16 -89.5 34 -132.5 54s-79.833 44.667 -110.5 74
s-53.167 65.5 -67.5 108.5s-14.5 97.167 -0.5 162.5c12 57.333 33 107.5 63 150.5s65.833 79.167 107.5 108.5s87 51.5 136 66.5s99.5 22.5 151.5 22.5c60 0 108.833 -12.667 146.5 -38s64.167 -59 79.5 -101l24 117h187l-86 -406h-187
c16.667 76.667 9.33398 136.5 -21.999 179.5s-81.333 64.5 -150 64.5c-60 0 -112.833 -14 -158.5 -42s-73.5 -67.333 -83.5 -118c-6.66699 -26 -6.5 -48.167 0.5 -66.5s18.667 -35 35 -50s38.166 -29 65.499 -42s59.333 -27.167 96 -42.5
c45.333 -17.333 89.833 -37 133.5 -59s81.5 -49 113.5 -81s55.5 -70.833 70.5 -116.5s15.833 -101.5 2.5 -167.5z" />
    <glyph glyph-name="scedilla" unicode="&#x15f;" 
d="M866 279c-9.33301 -48 -26.3301 -88.8301 -50.9971 -122.497s-54.334 -62 -89.001 -85s-72.5 -41.333 -113.5 -55s-82.833 -23.167 -125.5 -28.5l-6 -29c-9.33301 -46.667 -26.333 -90 -51 -130s-55 -74.667 -91 -104s-77.333 -52.666 -124 -69.999
s-97.334 -26 -152.001 -26l39 178c58.667 0 104.834 13.333 138.501 40s55.167 64 64.5 112l4 21c-76 4 -148.833 17.5 -218.5 40.5s-128.5 53.167 -176.5 90.5l123 170c64 -42.667 124.667 -72.834 182 -90.501s116.666 -26.5 177.999 -26.5
c83.333 0 145.833 8.83301 187.5 26.5s65.834 42.167 72.501 73.5c3.33301 15.333 0.5 28 -8.5 38s-24.833 19.167 -47.5 27.5s-53 16.666 -91 24.999s-86.333 17.166 -145 26.499c-46.667 8 -90.167 17.833 -130.5 29.5s-74.5 28.167 -102.5 49.5s-48.5 48.333 -61.5 81
s-14.5 73.667 -4.5 123c10.667 50 33 93.5 67 130.5s74.333 67.5 121 91.5s97.167 41.333 151.5 52s107.5 16 159.5 16c74 0 143.333 -9.5 208 -28.5s119 -46.167 163 -81.5l-117 -160c-43.333 32.667 -88.666 54.834 -135.999 66.501s-100.333 17.5 -159 17.5
c-24.667 0 -50.5 -1.33301 -77.5 -4s-52.5 -7.83398 -76.5 -15.501s-44.833 -18 -62.5 -31s-28.834 -28.833 -33.501 -47.5c-5.33301 -24.667 12.167 -44.834 52.5 -60.501s111.833 -31.167 214.5 -46.5c56 -8 106.167 -18.167 150.5 -30.5s81.166 -29 110.499 -50
s50.166 -48 62.499 -81s12.833 -73.833 1.5 -122.5z" />
    <glyph glyph-name="Scaron" unicode="&#x160;" 
d="M877 358c-14 -60 -35.999 -113.499 -65.999 -160.499s-66.167 -86.833 -108.5 -119.5s-89.5 -57.667 -141.5 -75s-105.333 -26 -160 -26c-61.333 0 -114.166 11 -158.499 33s-78.833 58.333 -103.5 109l-24 -119h-187l90 426h187
c-10 -42.667 -10.833 -80.334 -2.5 -113.001s22.333 -60.167 42 -82.5s44.667 -39.333 75 -51s63.833 -17.5 100.5 -17.5c61.333 0 114.166 14.333 158.499 43s73.5 74.334 87.5 137.001c6.66699 32.667 6.5 60.667 -0.5 84s-19.333 44.166 -37 62.499
s-40.834 34.333 -69.501 48s-60.667 28.167 -96 43.5c-45.333 16 -89.5 34 -132.5 54s-79.833 44.667 -110.5 74s-53.167 65.5 -67.5 108.5s-14.5 97.167 -0.5 162.5c12 57.333 33 107.5 63 150.5s65.833 79.167 107.5 108.5s87 51.5 136 66.5s99.5 22.5 151.5 22.5
c60 0 108.833 -12.667 146.5 -38s64.167 -59 79.5 -101l24 117h187l-86 -406h-187c16.667 76.667 9.33398 136.5 -21.999 179.5s-81.333 64.5 -150 64.5c-60 0 -112.833 -14 -158.5 -42s-73.5 -67.333 -83.5 -118c-6.66699 -26 -6.5 -48.167 0.5 -66.5s18.667 -35 35 -50
s38.166 -29 65.499 -42s59.333 -27.167 96 -42.5c45.333 -17.333 89.833 -37 133.5 -59s81.5 -49 113.5 -81s55.5 -70.833 70.5 -116.5s15.833 -101.5 2.5 -167.5zM655.001 1352l-256 317l103 101l201 -207l284 205l60 -103z" />
    <glyph glyph-name="scaron" unicode="&#x161;" 
d="M866 279c-12 -60.667 -35.8311 -109.996 -71.498 -147.996s-77.334 -68.667 -125.001 -92s-99.167 -39.5 -154.5 -48.5s-108.333 -13.5 -159 -13.5c-84.667 0 -166.167 12.333 -244.5 37s-144.166 57 -197.499 97l123 170c64 -42.667 124.667 -72.834 182 -90.501
s116.666 -26.5 177.999 -26.5c83.333 0 145.833 8.83301 187.5 26.5s65.834 42.167 72.501 73.5c3.33301 15.333 0.5 28 -8.5 38s-24.833 19.167 -47.5 27.5s-53 16.666 -91 24.999s-86.333 17.166 -145 26.499c-46.667 8 -90.167 17.833 -130.5 29.5
s-74.5 28.167 -102.5 49.5s-48.5 48.333 -61.5 81s-14.5 73.667 -4.5 123c10.667 50 33 93.5 67 130.5s74.333 67.5 121 91.5s97.167 41.333 151.5 52s107.5 16 159.5 16c74 0 143.333 -9.5 208 -28.5s119 -46.167 163 -81.5l-117 -160
c-43.333 32.667 -88.666 54.834 -135.999 66.501s-100.333 17.5 -159 17.5c-24.667 0 -50.5 -1.33301 -77.5 -4s-52.5 -7.83398 -76.5 -15.501s-44.833 -18 -62.5 -31s-28.834 -28.833 -33.501 -47.5c-5.33301 -24.667 12.167 -44.834 52.5 -60.501
s111.833 -31.167 214.5 -46.5c56 -8 106.167 -18.167 150.5 -30.5s81.166 -29 110.499 -50s50.166 -48 62.499 -81s12.833 -73.833 1.5 -122.5zM575.002 981.004l-256 317l103 101l201 -207l284 205l60 -103z" />
    <glyph glyph-name="Tcommaaccent" unicode="&#x162;" 
d="M1008 829h-185l62 289h-176l-199 -932h207l-39 -186h-621l39 186h207l199 932h-178l-62 -289h-184l100 476h930zM561 -109l-248 -264h-190l160 264h278z" />
    <glyph glyph-name="tcommaaccent" unicode="&#x163;" 
d="M905 297c-31.333 -98 -86.1689 -175.833 -164.502 -233.5s-167.5 -86.5 -267.5 -86.5c-54.667 0 -102.5 9 -143.5 27s-74 43 -99 75s-41.667 70.5 -50 115.5s-7.16602 94.167 3.50098 147.5l86 403h-211l39 187h211l80 373h207l-80 -373h391l-39 -187h-391l-86 -403
c-12 -60 -6.5 -104.667 16.5 -134s58.5 -44 106.5 -44c58.667 0 105.834 17 141.501 51s61.5 75 77.5 123zM560.997 -109l-248 -264h-190l160 264h278z" />
    <glyph glyph-name="Tcaron" unicode="&#x164;" 
d="M1008 829h-185l62 289h-176l-199 -932h207l-39 -186h-621l39 186h207l199 932h-178l-62 -289h-184l100 476h930zM655 1352l-256 317l103 101l201 -207l284 205l60 -103z" />
    <glyph glyph-name="tcaron" unicode="&#x165;" 
d="M905 297c-31.333 -98 -86.1689 -175.833 -164.502 -233.5s-167.5 -86.5 -267.5 -86.5c-54.667 0 -102.5 9 -143.5 27s-74 43 -99 75s-41.667 70.5 -50 115.5s-7.16602 94.167 3.50098 147.5l86 403h-211l39 187h211l80 373h207l-80 -373h391l-39 -187h-391l-86 -403
c-12 -60 -6.5 -104.667 16.5 -134s58.5 -44 106.5 -44c58.667 0 105.834 17 141.501 51s61.5 75 77.5 123zM1247 1675l-200 -557h-162l117 557h245z" />
    <glyph glyph-name="Tbar" unicode="&#x166;" 
d="M768 571h-176l-82 -385h207l-39 -186h-621l39 186h207l82 385h-176l37 174h176l80 373h-178l-62 -289h-184l100 476h930l-100 -476h-185l62 289h-176l-80 -373h176z" />
    <glyph glyph-name="tbar" unicode="&#x167;" 
d="M905 297c-31.333 -98 -86.1689 -175.833 -164.502 -233.5s-167.5 -86.5 -267.5 -86.5c-54.667 0 -102.5 9 -143.5 27s-74 43 -99 75s-41.667 70.5 -50 115.5s-7.16602 94.167 3.50098 147.5l9 43h-211l38 174h211l39 186h-211l39 187h211l80 373h207l-80 -373h391
l-39 -187h-391l-39 -186h209l-39 -174h-209l-8 -43c-12 -60 -6.5 -104.667 16.5 -134s58.5 -44 106.5 -44c58.667 0 105.834 17 141.501 51s61.5 75 77.5 123z" />
    <glyph glyph-name="Utilde" unicode="&#x168;" 
d="M883 465c-16.667 -74 -39.3301 -141.001 -67.9971 -201.001s-64.834 -111.167 -108.501 -153.5s-94.167 -75.166 -151.5 -98.499s-122.333 -35 -195 -35c-72 0 -131.5 11.667 -178.5 35s-82.833 56.166 -107.5 98.499s-39 93.833 -43 154.5s2 128 18 202l178 838h207
l-178 -840c-6.66699 -32.667 -11.334 -66.5 -14.001 -101.5s-0.333984 -67.5 6.99902 -97.5s23.333 -54.5 48 -73.5s59.334 -28.5 104.001 -28.5c45.333 0 83.666 9.5 114.999 28.5s58 43.167 80 72.5s39.167 61.833 51.5 97.5s21.833 69.834 28.5 102.501l178 840h207z
M1120 1616c-44.667 -64 -93.6641 -114.167 -146.997 -150.5s-110.666 -54.5 -171.999 -54.5c-32.667 0 -59.334 6.16699 -80.001 18.5s-39.5 25.666 -56.5 39.999s-34 27.666 -51 39.999s-37.833 18.5 -62.5 18.5c-34 0 -65 -10.5 -93 -31.5s-57 -50.167 -87 -87.5l-107 70
c45.333 62.667 94.666 112.167 147.999 148.5s110.666 54.5 171.999 54.5c32.667 0 59.167 -6.16699 79.5 -18.5s39.166 -25.666 56.499 -39.999s34.5 -27.666 51.5 -39.999s37.833 -18.5 62.5 -18.5c34 0 65 10.5 93 31.5s57 50.833 87 89.5z" />
    <glyph glyph-name="utilde" unicode="&#x169;" 
d="M147 932h207.001l-123 -576c-14.667 -72 -11.167 -122 10.5 -150s58.5 -42 110.5 -42c76.667 0 145.667 31 207 93s103.666 147.667 126.999 257l88 418h207l-197 -932h-206l49 233c-38.667 -80 -90.667 -142.667 -156 -188s-139 -68 -221 -68
c-96 0 -164 31.167 -204 93.5s-47 157.5 -21 285.5zM1040 1245c-44.667 -64 -93.6641 -114.167 -146.997 -150.5s-110.666 -54.5 -171.999 -54.5c-32.667 0 -59.334 6.16699 -80.001 18.5s-39.5 25.666 -56.5 39.999s-34 27.666 -51 39.999s-37.833 18.5 -62.5 18.5
c-34 0 -65 -10.5 -93 -31.5s-57 -50.167 -87 -87.5l-107 70c45.333 62.667 94.666 112.167 147.999 148.5s110.666 54.5 171.999 54.5c32.667 0 59.167 -6.16699 79.5 -18.5s39.166 -25.666 56.499 -39.999s34.5 -27.666 51.5 -39.999s37.833 -18.5 62.5 -18.5
c34 0 65 10.5 93 31.5s57 50.833 87 89.5z" />
    <glyph glyph-name="Umacron" unicode="&#x16a;" 
d="M883 465c-16.667 -74 -39.3301 -141.001 -67.9971 -201.001s-64.834 -111.167 -108.501 -153.5s-94.167 -75.166 -151.5 -98.499s-122.333 -35 -195 -35c-72 0 -131.5 11.667 -178.5 35s-82.833 56.166 -107.5 98.499s-39 93.833 -43 154.5s2 128 18 202l178 838h207
l-178 -840c-6.66699 -32.667 -11.334 -66.5 -14.001 -101.5s-0.333984 -67.5 6.99902 -97.5s23.333 -54.5 48 -73.5s59.334 -28.5 104.001 -28.5c45.333 0 83.666 9.5 114.999 28.5s58 43.167 80 72.5s39.167 61.833 51.5 97.5s21.833 69.834 28.5 102.501l178 840h207z
M948.004 1415h-559l37 175h559z" />
    <glyph glyph-name="umacron" unicode="&#x16b;" 
d="M147 932h207.001l-123 -576c-14.667 -72 -11.167 -122 10.5 -150s58.5 -42 110.5 -42c76.667 0 145.667 31 207 93s103.666 147.667 126.999 257l88 418h207l-197 -932h-206l49 233c-38.667 -80 -90.667 -142.667 -156 -188s-139 -68 -221 -68
c-96 0 -164 31.167 -204 93.5s-47 157.5 -21 285.5zM868.001 1044h-559l37 175h559z" />
    <glyph glyph-name="Ubreve" unicode="&#x16c;" 
d="M883 465c-16.667 -74 -39.3301 -141.001 -67.9971 -201.001s-64.834 -111.167 -108.501 -153.5s-94.167 -75.166 -151.5 -98.499s-122.333 -35 -195 -35c-72 0 -131.5 11.667 -178.5 35s-82.833 56.166 -107.5 98.499s-39 93.833 -43 154.5s2 128 18 202l178 838h207
l-178 -840c-6.66699 -32.667 -11.334 -66.5 -14.001 -101.5s-0.333984 -67.5 6.99902 -97.5s23.333 -54.5 48 -73.5s59.334 -28.5 104.001 -28.5c45.333 0 83.666 9.5 114.999 28.5s58 43.167 80 72.5s39.167 61.833 51.5 97.5s21.833 69.834 28.5 102.501l178 840h207z
M1024 1538c-109.333 -90 -227.999 -135 -355.999 -135c-128.667 0 -228.334 45 -299.001 135l145 119c49.333 -62.667 111.666 -94 186.999 -94c74.667 0 150.334 31.333 227.001 94z" />
    <glyph glyph-name="ubreve" unicode="&#x16d;" 
d="M147 932h207.001l-123 -576c-14.667 -72 -11.167 -122 10.5 -150s58.5 -42 110.5 -42c76.667 0 145.667 31 207 93s103.666 147.667 126.999 257l88 418h207l-197 -932h-206l49 233c-38.667 -80 -90.667 -142.667 -156 -188s-139 -68 -221 -68
c-96 0 -164 31.167 -204 93.5s-47 157.5 -21 285.5zM944.001 1167c-109.333 -90 -227.999 -135 -355.999 -135c-128.667 0 -228.334 45 -299.001 135l145 119c49.333 -62.667 111.666 -94 186.999 -94c74.667 0 150.334 31.333 227.001 94z" />
    <glyph glyph-name="Uring" unicode="&#x16e;" 
d="M883 465c-16.667 -74 -39.3301 -141.001 -67.9971 -201.001s-64.834 -111.167 -108.501 -153.5s-94.167 -75.166 -151.5 -98.499s-122.333 -35 -195 -35c-72 0 -131.5 11.667 -178.5 35s-82.833 56.166 -107.5 98.499s-39 93.833 -43 154.5s2 128 18 202l178 838h207
l-178 -840c-6.66699 -32.667 -11.334 -66.5 -14.001 -101.5s-0.333984 -67.5 6.99902 -97.5s23.333 -54.5 48 -73.5s59.334 -28.5 104.001 -28.5c45.333 0 83.666 9.5 114.999 28.5s58 43.167 80 72.5s39.167 61.833 51.5 97.5s21.833 69.834 28.5 102.501l178 840h207z
M490.004 1628c6.66699 32 18.5 61.5 35.5 88.5s38.167 50.833 63.5 71.5s52.666 36.834 81.999 48.501s59.666 17.5 90.999 17.5s59.666 -5.83301 84.999 -17.5s45.833 -27.834 61.5 -48.501s26.5 -44.5 32.5 -71.5s5.66699 -56.5 -1 -88.5
c-6.66699 -31.333 -18.5 -60.666 -35.5 -87.999s-38.167 -51.166 -63.5 -71.499s-52.666 -36.333 -81.999 -48s-59.666 -17.5 -90.999 -17.5s-59.666 5.83301 -84.999 17.5s-45.833 27.667 -61.5 48s-26.667 44.166 -33 71.499s-5.83301 56.666 1.5 87.999zM623.004 1628
c-5.33301 -25.333 -1.33203 -47 12.001 -65s33 -27 59 -27s50 9 72 27s35.667 39.667 41 65c5.33301 26 1.16602 48 -12.501 66s-33.5 27 -59.5 27s-49.833 -9 -71.5 -27s-35.167 -40 -40.5 -66z" />
    <glyph glyph-name="uring" unicode="&#x16f;" 
d="M147 932h207.001l-123 -576c-14.667 -72 -11.167 -122 10.5 -150s58.5 -42 110.5 -42c76.667 0 145.667 31 207 93s103.666 147.667 126.999 257l88 418h207l-197 -932h-206l49 233c-38.667 -80 -90.667 -142.667 -156 -188s-139 -68 -221 -68
c-96 0 -164 31.167 -204 93.5s-47 157.5 -21 285.5zM410.001 1257c6.66699 32 18.5 61.5 35.5 88.5s38.167 50.833 63.5 71.5s52.666 36.834 81.999 48.501s59.666 17.5 90.999 17.5s59.666 -5.83301 84.999 -17.5s45.833 -27.834 61.5 -48.501s26.5 -44.5 32.5 -71.5
s5.66699 -56.5 -1 -88.5c-6.66699 -31.333 -18.5 -60.666 -35.5 -87.999s-38.167 -51.166 -63.5 -71.499s-52.666 -36.333 -81.999 -48s-59.666 -17.5 -90.999 -17.5s-59.666 5.83301 -84.999 17.5s-45.833 27.667 -61.5 48s-26.667 44.166 -33 71.499
s-5.83301 56.666 1.5 87.999zM543.001 1257c-5.33301 -25.333 -1.33203 -47 12.001 -65s33 -27 59 -27s50 9 72 27s35.667 39.667 41 65c5.33301 26 1.16602 48 -12.501 66s-33.5 27 -59.5 27s-49.833 -9 -71.5 -27s-35.167 -40 -40.5 -66z" />
    <glyph glyph-name="Uhungarumlaut" unicode="&#x170;" 
d="M883 465c-16.667 -74 -39.3301 -141.001 -67.9971 -201.001s-64.834 -111.167 -108.501 -153.5s-94.167 -75.166 -151.5 -98.499s-122.333 -35 -195 -35c-72 0 -131.5 11.667 -178.5 35s-82.833 56.166 -107.5 98.499s-39 93.833 -43 154.5s2 128 18 202l178 838h207
l-178 -840c-6.66699 -32.667 -11.334 -66.5 -14.001 -101.5s-0.333984 -67.5 6.99902 -97.5s23.333 -54.5 48 -73.5s59.334 -28.5 104.001 -28.5c45.333 0 83.666 9.5 114.999 28.5s58 43.167 80 72.5s39.167 61.833 51.5 97.5s21.833 69.834 28.5 102.501l178 840h207z
M897.004 1395h-172l221 375h217zM524.004 1395h-170l220 375h217z" />
    <glyph glyph-name="uhungarumlaut" unicode="&#x171;" 
d="M147 932h207.001l-123 -576c-14.667 -72 -11.167 -122 10.5 -150s58.5 -42 110.5 -42c76.667 0 145.667 31 207 93s103.666 147.667 126.999 257l88 418h207l-197 -932h-206l49 233c-38.667 -80 -90.667 -142.667 -156 -188s-139 -68 -221 -68
c-96 0 -164 31.167 -204 93.5s-47 157.5 -21 285.5zM817.001 1024h-172l221 375h217zM444.001 1024h-170l220 375h217z" />
    <glyph glyph-name="Uogonek" unicode="&#x172;" 
d="M551 -379c-90 0 -156.832 19.8359 -200.499 59.5029s-57.5 99.167 -41.5 178.5c10 43.333 30.667 82.666 62 117.999h-11c-72 0 -131.5 11.667 -178.5 35s-82.833 56.166 -107.5 98.499s-39 93.833 -43 154.5s2 128 18 202l178 838h207l-178 -840
c-6.66699 -32.667 -11.334 -66.5 -14.001 -101.5s-0.333984 -67.5 6.99902 -97.5s23.333 -54.5 48 -73.5s59.334 -28.5 104.001 -28.5c45.333 0 83.666 9.5 114.999 28.5s58 43.167 80 72.5s39.167 61.833 51.5 97.5s21.833 69.834 28.5 102.501l178 840h207l-178 -840
c-26 -120 -69 -220.333 -129 -301s-138 -135.334 -234 -164.001c-32.667 -28.667 -53 -63.334 -61 -104.001c-10 -42.667 -2.66699 -74.5 22 -95.5s58.334 -31.5 101.001 -31.5z" />
    <glyph glyph-name="uogonek" unicode="&#x173;" 
d="M815 -379c-90 0 -156.832 19.834 -200.499 59.501s-57.5 99.167 -41.5 178.5c6 27.333 16.5 52.833 31.5 76.5s32.5 45.167 52.5 64.5h-79l49 233c-38.667 -80 -90.667 -142.667 -156 -188s-139 -68 -221 -68c-96 0 -164 31.167 -204 93.5s-47 157.5 -21 285.5l122 576
h207l-123 -576c-14.667 -72 -11.167 -122 10.5 -150s58.5 -42 110.5 -42c76.667 0 145.667 31 207 93s103.666 147.667 126.999 257l88 418h207l-197 -932c-32.667 -28.667 -53 -63.334 -61 -104.001c-9.33301 -42.667 -1.83301 -74.5 22.5 -95.5s57.833 -31.5 100.5 -31.5z
" />
    <glyph glyph-name="Wcircumflex" unicode="&#x174;" 
d="M1174 1305l-480 -1305h-213l4 563l-231 -563h-213l74 1305h215l-66 -879l201 506h199l-15 -506l309 879h216zM1002 1456l-101 -102l-198 205l-291 -207l-58 100l392 318z" />
    <glyph glyph-name="wcircumflex" unicode="&#x175;" 
d="M1059 932l-336 -932h-256l20 561l-219 -561h-256l58 932h202l-49 -623l232 623h219l-31 -623l213 623h203zM922 1085l-101 -102l-198 205l-291 -207l-58 100l392 318z" />
    <glyph glyph-name="Ycircumflex" unicode="&#x176;" 
d="M1092 1118h-95l-413 -586l-74 -346h209l-39 -186h-625l39 186h209l74 346l-164 586h-94l39 187h411l-39 -187h-90l84 -383l246 383h-90l39 187h411zM1002 1456l-101 -102l-198 205l-291 -207l-58 100l392 318z" />
    <glyph glyph-name="ycircumflex" unicode="&#x177;" 
d="M1022 932l-637 -1114c-48 -80.667 -103.667 -136 -167 -166s-134.666 -45 -213.999 -45c-27.333 0 -56 2.66699 -86 8s-60.667 14.333 -92 27l82 190c26 -10.667 50.5 -18.167 73.5 -22.5s44.167 -6.5 63.5 -6.5c61.333 0 109.666 27.333 144.999 82l56 90l-154 957h215
l107 -705l387 705h221zM922 1085l-101 -102l-198 205l-291 -207l-58 100l392 318z" />
    <glyph glyph-name="Ydieresis" unicode="&#x178;" 
d="M1092 1118h-95l-413 -586l-74 -346h209l-39 -186h-625l39 186h209l74 346l-164 586h-94l39 187h411l-39 -187h-90l84 -383l246 383h-90l39 187h411zM983 1424h-252l54 252h251zM610 1424h-251l53 252h252z" />
    <glyph glyph-name="Zacute" unicode="&#x179;" 
d="M784 0h-833l39 184l782 934h-397l-62 -284h-186l100 471h817l-38 -187l-766 -932h401l61 287h183zM952 1596l-485 -244l-57 137l463 287z" />
    <glyph glyph-name="zacute" unicode="&#x17a;" 
d="M784 0h-833l39 184l649 561h-348l-41 -188h-182l79 375h816l-39 -187l-652 -559h369l39 185h182zM872 1225l-485 -244l-57 137l463 287z" />
    <glyph glyph-name="Zdotaccent" unicode="&#x17b;" 
d="M784 0h-833l39 184l782 934h-397l-62 -284h-186l100 471h817l-38 -187l-766 -932h401l61 287h183zM797 1424h-252l53 252h252z" />
    <glyph glyph-name="zdotaccent" unicode="&#x17c;" 
d="M784 0h-833l39 184l649 561h-348l-41 -188h-182l79 375h816l-39 -187l-652 -559h369l39 185h182zM717 1053h-252l53 252h252z" />
    <glyph glyph-name="Zcaron" unicode="&#x17d;" 
d="M784 0h-833l39 184l782 934h-397l-62 -284h-186l100 471h817l-38 -187l-766 -932h401l61 287h183zM655 1352l-256 317l103 101l201 -207l284 205l60 -103z" />
    <glyph glyph-name="zcaron" unicode="&#x17e;" 
d="M784 0h-833l39 184l649 561h-348l-41 -188h-182l79 375h816l-39 -187l-652 -559h369l39 185h182zM575 981l-256 317l103 101l201 -207l284 205l60 -103z" />
    <glyph glyph-name="longs" unicode="&#x17f;" 
d="M510 186l212.997 0.000976562l-39 -186h-627l39 186h207l119 559h-207l39 187h207c27.333 128 87.333 225.833 180 293.5s206 101.5 340 101.5c20.667 0 42.167 -1 64.5 -3s44.5 -4.33301 66.5 -7l-39 -182c-38 4 -73.333 6 -106 6
c-53.333 0 -97.166 -3.83301 -131.499 -11.5s-62.666 -20 -84.999 -37s-39.666 -38.833 -51.999 -65.5s-22.5 -58.334 -30.5 -95.001z" />
    <glyph glyph-name="florin" unicode="&#x192;" 
d="M422 745l-207.004 0.000976562l39 187h207c27.333 128 87.333 225.833 180 293.5s206 101.5 340 101.5c20.667 0 42.167 -1 64.5 -3s44.5 -4.33301 66.5 -7l-39 -182c-38 4 -73.333 6 -106 6c-53.333 0 -97.166 -3.83301 -131.499 -11.5s-62.666 -20 -84.999 -37
s-39.666 -38.833 -51.999 -65.5s-22.5 -58.334 -30.5 -95.001h362l-39 -187h-362l-162 -761c-27.333 -127.333 -87 -222.333 -179 -285s-205 -94 -339 -94c-20.667 0 -41.5 0.666992 -62.5 2s-43.167 3.33301 -66.5 6l39 184c36.667 -4 71.334 -6 104.001 -6
c97.333 0 167.5 15.333 210.5 46s71.833 79.667 86.5 147z" />
    <glyph glyph-name="AEacute" unicode="&#x1fc;" 
d="M297 0l65 311h-169l-142 -311h-213l641 1305h631l-39 -187h-330l-77 -360h280l-39 -187h-280l-82 -385h329l-38 -186h-537zM274 494h127l109 516zM952 1600l-485 -244l-57 137l463 287z" />
    <glyph glyph-name="aeacute" unicode="&#x1fd;" 
d="M379 131c-35.333 -43.333 -73.1729 -79.8379 -113.506 -109.505s-87.166 -44.5 -140.499 -44.5c-41.333 0 -75.166 7.66699 -101.499 23s-47.333 35.5 -63 60.5s-25.667 54.333 -30 88s-2.16602 68.834 6.50098 105.501c10.667 53.333 28.667 100.5 54 141.5
s55.333 75.167 90 102.5s72.834 47.833 114.501 61.5s83.834 20.5 126.501 20.5c14.667 0 26.834 -0.333008 36.501 -1s21.834 -2.66699 36.501 -6l13 60c10.667 49.333 8.83398 84.5 -5.49902 105.5s-36.5 31.5 -66.5 31.5c-23.333 0 -50.333 -6.16699 -81 -18.5
s-62.334 -38.166 -95.001 -77.499l-99 119c49.333 57.333 102.333 98.5 159 123.5s105.667 37.5 147 37.5c47.333 0 87.833 -9.5 121.5 -28.5s53.167 -52.5 58.5 -100.5c32.667 45.333 68.167 78.166 106.5 98.499s80.5 30.5 126.5 30.5c62.667 0 108 -16.667 136 -50
s45.833 -76.666 53.5 -129.999s6.66699 -113.666 -3 -180.999s-21.834 -136 -36.501 -206h-387c-18 -83.333 -18.833 -140.666 -2.5 -171.999s39.5 -47 69.5 -47c22 0 41.833 6.16699 59.5 18.5s32.834 32.833 45.501 61.5l162 -58c-38.667 -72 -82.5 -125.5 -131.5 -160.5
s-107.833 -52.5 -176.5 -52.5c-18.667 0 -38 2.5 -58 7.5s-38.833 13.333 -56.5 25s-33.334 27.334 -47.001 47.001s-23.167 44.5 -28.5 74.5zM761.993 568.995c13.333 79.333 15.667 132.667 7 160s-26 41 -52 41c-28.667 0 -54 -15 -76 -45s-41.667 -82 -59 -156h180z
M355.994 390.996c-8 1.33301 -16.498 2.33301 -25.498 3s-20.833 1 -35.5 1c-32.667 0 -64.334 -11.5 -95.001 -34.5s-50.334 -55.167 -59.001 -96.5c-6.66699 -34 -4.83398 -58.833 5.49902 -74.5s26.5 -23.5 48.5 -23.5c36.667 0 68.334 16.333 95.001 49
s44.667 71 54 115zM871.996 1227l-485 -244l-57 137l463 287z" />
    <glyph glyph-name="Oslashacute" unicode="&#x1fe;" 
d="M6 653c19.333 87.333 46.666 171.667 81.999 253s79.666 153 132.999 215s115.5 111.833 186.5 149.5s151.5 56.5 241.5 56.5c88.667 0 160.334 -17.333 215.001 -52s95.667 -82 123 -142l162 133l-47 -222l-74 -61c10.667 -101.333 3.33398 -211.333 -21.999 -330
c-18 -87.333 -44.833 -171.5 -80.5 -252.5s-79.667 -153 -132 -216s-114.333 -113.333 -186 -151s-153.5 -56.5 -245.5 -56.5c-86 0 -155.833 16.167 -209.5 48.5s-94.167 76.5 -121.5 132.5l-164 -138l45 222l74 61c-8.66699 52 -10.5 107.667 -5.5 167
s13.5 120.333 25.5 183zM213 653.001c-6.66699 -31.333 -12.501 -62.001 -17.501 -92.001s-8.16699 -60 -9.5 -90l625 514c-13.333 46.667 -35.833 84.334 -67.5 113.001s-76.167 43 -133.5 43c-95.333 0 -177.166 -43 -245.499 -129s-118.833 -205.667 -151.5 -359z
M402.999 164c59.333 0 110.5 14.332 153.5 42.999s80.5 66.167 112.5 112.5s58.5 98.833 79.5 157.5s37.833 117.334 50.5 176.001c6.66699 27.333 11.667 54 15 80s6.33301 52.667 9 80l-616 -510c13.333 -42 35.333 -75.667 66 -101s74 -38 130 -38zM951.999 1600
l-485 -244l-57 137l463 287z" />
    <glyph glyph-name="oslashacute" unicode="&#x1ff;" 
d="M-61 180l47.001 32.999c-12.667 35.333 -20 74.166 -22 116.499s2.33301 87.5 13 135.5c15.333 70.667 41.5 136.167 78.5 196.5s81.333 112.333 133 156s110.334 77.334 176.001 101.001s134.5 35.5 206.5 35.5c66 0 124.167 -10.167 174.5 -30.5
s93.166 -48.166 128.499 -83.499l162 114l-43 -202l-47 -33c11.333 -36.667 18 -76.167 20 -118.5s-2 -87.5 -12 -135.5c-16 -72.667 -41.833 -138.667 -77.5 -198s-79.334 -110.5 -131.001 -153.5s-110 -76.5 -175 -100.5s-134.5 -36 -208.5 -36
c-66.667 0 -125.5 10 -176.5 30s-93.833 47.667 -128.5 83l-159 -113zM748.001 464.999c8 42 10 81.667 6 119l-516 -365c18.667 -17.333 42 -30.833 70 -40.5s59.667 -14.5 95 -14.5c44 0 84.833 7.5 122.5 22.5s71.5 36.167 101.5 63.5s55.167 59 75.5 95
s35.5 76 45.5 120zM184.001 464.999c-9.33301 -44 -11.334 -82.998 -6.00098 -116.998l512 363c-38 38 -91.333 57 -160 57c-43.333 0 -84.166 -7.83301 -122.499 -23.5s-72.5 -36.834 -102.5 -63.501s-55.5 -58.834 -76.5 -96.501s-35.833 -77.5 -44.5 -119.5zM872 1227
l-485 -244l-57 137l463 287z" />
    <glyph glyph-name="Scommaaccent" unicode="&#x218;" 
d="M877 358c-14 -60 -35.999 -113.499 -65.999 -160.499s-66.167 -86.833 -108.5 -119.5s-89.5 -57.667 -141.5 -75s-105.333 -26 -160 -26c-61.333 0 -114.166 11 -158.499 33s-78.833 58.333 -103.5 109l-24 -119h-187l90 426h187
c-10 -42.667 -10.833 -80.334 -2.5 -113.001s22.333 -60.167 42 -82.5s44.667 -39.333 75 -51s63.833 -17.5 100.5 -17.5c61.333 0 114.166 14.333 158.499 43s73.5 74.334 87.5 137.001c6.66699 32.667 6.5 60.667 -0.5 84s-19.333 44.166 -37 62.499
s-40.834 34.333 -69.501 48s-60.667 28.167 -96 43.5c-45.333 16 -89.5 34 -132.5 54s-79.833 44.667 -110.5 74s-53.167 65.5 -67.5 108.5s-14.5 97.167 -0.5 162.5c12 57.333 33 107.5 63 150.5s65.833 79.167 107.5 108.5s87 51.5 136 66.5s99.5 22.5 151.5 22.5
c60 0 108.833 -12.667 146.5 -38s64.167 -59 79.5 -101l24 117h187l-86 -406h-187c16.667 76.667 9.33398 136.5 -21.999 179.5s-81.333 64.5 -150 64.5c-60 0 -112.833 -14 -158.5 -42s-73.5 -67.333 -83.5 -118c-6.66699 -26 -6.5 -48.167 0.5 -66.5s18.667 -35 35 -50
s38.166 -29 65.499 -42s59.333 -27.167 96 -42.5c45.333 -17.333 89.833 -37 133.5 -59s81.5 -49 113.5 -81s55.5 -70.833 70.5 -116.5s15.833 -101.5 2.5 -167.5zM561.001 -108.999l-248 -264h-190l160 264h278z" />
    <glyph glyph-name="scommaaccent" unicode="&#x219;" 
d="M866 279c-12 -60.667 -35.8311 -109.996 -71.498 -147.996s-77.334 -68.667 -125.001 -92s-99.167 -39.5 -154.5 -48.5s-108.333 -13.5 -159 -13.5c-84.667 0 -166.167 12.333 -244.5 37s-144.166 57 -197.499 97l123 170c64 -42.667 124.667 -72.834 182 -90.501
s116.666 -26.5 177.999 -26.5c83.333 0 145.833 8.83301 187.5 26.5s65.834 42.167 72.501 73.5c3.33301 15.333 0.5 28 -8.5 38s-24.833 19.167 -47.5 27.5s-53 16.666 -91 24.999s-86.333 17.166 -145 26.499c-46.667 8 -90.167 17.833 -130.5 29.5
s-74.5 28.167 -102.5 49.5s-48.5 48.333 -61.5 81s-14.5 73.667 -4.5 123c10.667 50 33 93.5 67 130.5s74.333 67.5 121 91.5s97.167 41.333 151.5 52s107.5 16 159.5 16c74 0 143.333 -9.5 208 -28.5s119 -46.167 163 -81.5l-117 -160
c-43.333 32.667 -88.666 54.834 -135.999 66.501s-100.333 17.5 -159 17.5c-24.667 0 -50.5 -1.33301 -77.5 -4s-52.5 -7.83398 -76.5 -15.501s-44.833 -18 -62.5 -31s-28.834 -28.833 -33.501 -47.5c-5.33301 -24.667 12.167 -44.834 52.5 -60.501
s111.833 -31.167 214.5 -46.5c56 -8 106.167 -18.167 150.5 -30.5s81.166 -29 110.499 -50s50.166 -48 62.499 -81s12.833 -73.833 1.5 -122.5zM561.002 -108.996l-248 -264h-190l160 264h278z" />
    <glyph glyph-name="uni021A" unicode="&#x21a;" 
d="M1008 829h-185l62 289h-176l-199 -932h207l-39 -186h-621l39 186h207l199 932h-178l-62 -289h-184l100 476h930zM561 -109l-248 -264h-190l160 264h278z" />
    <glyph glyph-name="uni021B" unicode="&#x21b;" 
d="M905 297c-31.333 -98 -86.1689 -175.833 -164.502 -233.5s-167.5 -86.5 -267.5 -86.5c-54.667 0 -102.5 9 -143.5 27s-74 43 -99 75s-41.667 70.5 -50 115.5s-7.16602 94.167 3.50098 147.5l86 403h-211l39 187h211l80 373h207l-80 -373h391l-39 -187h-391l-86 -403
c-12 -60 -6.5 -104.667 16.5 -134s58.5 -44 106.5 -44c58.667 0 105.834 17 141.501 51s61.5 75 77.5 123zM560.997 -109l-248 -264h-190l160 264h278z" />
    <glyph glyph-name="circumflex" unicode="&#x2c6;" 
d="M922 1085l-101 -102l-198 205l-291 -207l-58 100l392 318z" />
    <glyph glyph-name="caron" unicode="&#x2c7;" 
d="M575 981l-256 317l103 101l201 -207l284 205l60 -103z" />
    <glyph glyph-name="breve" unicode="&#x2d8;" 
d="M944 1167c-109.333 -90 -227.999 -135 -355.999 -135c-128.667 0 -228.334 45 -299.001 135l145 119c49.333 -62.667 111.666 -94 186.999 -94c74.667 0 150.334 31.333 227.001 94z" />
    <glyph glyph-name="dotaccent" unicode="&#x2d9;" 
d="M717 1053h-252l53 252h252z" />
    <glyph glyph-name="ring" unicode="&#x2da;" 
d="M410 1257c6.66699 32 18.5 61.5 35.5 88.5s38.167 50.833 63.5 71.5s52.666 36.834 81.999 48.501s59.666 17.5 90.999 17.5s59.666 -5.83301 84.999 -17.5s45.833 -27.834 61.5 -48.501s26.5 -44.5 32.5 -71.5s5.66699 -56.5 -1 -88.5
c-6.66699 -31.333 -18.5 -60.666 -35.5 -87.999s-38.167 -51.166 -63.5 -71.499s-52.666 -36.333 -81.999 -48s-59.666 -17.5 -90.999 -17.5s-59.666 5.83301 -84.999 17.5s-45.833 27.667 -61.5 48s-26.667 44.166 -33 71.499s-5.83301 56.666 1.5 87.999zM543 1257
c-5.33301 -25.333 -1.33203 -47 12.001 -65s33 -27 59 -27s50 9 72 27s35.667 39.667 41 65c5.33301 26 1.16602 48 -12.501 66s-33.5 27 -59.5 27s-49.833 -9 -71.5 -27s-35.167 -40 -40.5 -66z" />
    <glyph glyph-name="ogonek" unicode="&#x2db;" 
d="M813 -379c-90 0 -156.833 19.835 -200.5 59.502s-57.5 99.167 -41.5 178.5c10 43.333 30 82.166 60 116.499s62.667 60.833 98 79.5l53 -55c-32.667 -28.667 -53 -63.334 -61 -104.001c-9.33301 -42.667 -1.83301 -74.5 22.5 -95.5s57.833 -31.5 100.5 -31.5z" />
    <glyph glyph-name="tilde" unicode="&#x2dc;" 
d="M1040 1245c-44.667 -64 -93.6641 -114.167 -146.997 -150.5s-110.666 -54.5 -171.999 -54.5c-32.667 0 -59.334 6.16699 -80.001 18.5s-39.5 25.666 -56.5 39.999s-34 27.666 -51 39.999s-37.833 18.5 -62.5 18.5c-34 0 -65 -10.5 -93 -31.5s-57 -50.167 -87 -87.5
l-107 70c45.333 62.667 94.666 112.167 147.999 148.5s110.666 54.5 171.999 54.5c32.667 0 59.167 -6.16699 79.5 -18.5s39.166 -25.666 56.499 -39.999s34.5 -27.666 51.5 -39.999s37.833 -18.5 62.5 -18.5c34 0 65 10.5 93 31.5s57 50.833 87 89.5z" />
    <glyph glyph-name="hungarumlaut" unicode="&#x2dd;" 
d="M817 1024h-172l221 375h217zM444 1024h-170l220 375h217z" />
    <glyph glyph-name="tonos" unicode="&#x384;" 
d="M874 1675l-200 -557h-162l117 557h245z" />
    <glyph glyph-name="dieresistonos" unicode="&#x385;" 
d="M1071 1118h-252l53 252h252zM391 1118h-252l54 252h251zM874 1675l-200 -557h-162l117 557h245z" />
    <glyph glyph-name="Alphatonos" unicode="&#x386;" 
d="M678 0l-29 311h-432l-158 -311h-217l684 1305h238l131 -1305h-217zM311 494h322l-45 538zM502 1675l-200 -557h-162l117 557h245z" />
    <glyph glyph-name="Epsilontonos" unicode="&#x388;" 
d="M316 1675l-200 -557h-162l117 557h245zM784 0h-833l276 1305h834l-39 -187h-627l-78 -360h490l-39 -187h-489l-82 -385h626z" />
    <glyph glyph-name="Etatonos" unicode="&#x389;" 
d="M316 1675l-200 -557h-162l117 557h245zM784 0h-206l120 571h-419l-121 -571h-207l276 1305h207l-117 -547h420l117 547h207z" />
    <glyph glyph-name="Iotatonos" unicode="&#x38a;" 
d="M782 0h-626l39 186h206l199 932h-125l39 187h545l-39 -187h-213l-199 -932h213zM501 1675l-200 -557h-162l117 557h245z" />
    <glyph glyph-name="Omicrontonos" unicode="&#x38c;" 
d="M316 1675l-200 -557h-162l117 557h245zM6 653c19.333 87.333 46.665 171.666 81.998 252.999s79.666 153 132.999 215s115.5 111.833 186.5 149.5s151.5 56.5 241.5 56.5s163 -18.833 219 -56.5s97.333 -87.5 124 -149.5s40.334 -133.667 41.001 -215
s-8.33301 -165.666 -27 -252.999c-18 -87.333 -44.833 -171.5 -80.5 -252.5s-79.667 -153 -132 -216s-114.333 -113.333 -186 -151s-153.5 -56.5 -245.5 -56.5c-91.333 0 -164.666 18.833 -219.999 56.5s-96.166 88 -122.499 151s-39.5 135 -39.5 216
s8.66699 165.167 26 252.5zM212.999 653c-12 -58.667 -19.835 -117.335 -23.502 -176.002s0.333008 -111.167 12 -157.5s33.5 -83.833 65.5 -112.5s77.333 -43 136 -43c59.333 0 110.5 14.333 153.5 43s80.5 66.167 112.5 112.5s58.5 98.833 79.5 157.5
s37.833 117.334 50.5 176.001c12 58.667 20 117 24 175s0 110.333 -12 157s-34.167 84.334 -66.5 113.001s-77.166 43 -134.499 43c-95.333 0 -177.166 -43 -245.499 -129s-118.833 -205.667 -151.5 -359z" />
    <glyph glyph-name="Upsilontonos" unicode="&#x38e;" 
d="M1190 1118h-94l-414 -586l-74 -346h209l-39 -186h-624l39 186h208l74 346l-164 586h-24l39 187h342l-39 -187h-90l84 -383l245 383h-90l39 187h412zM315 1675l-200 -557h-162l117 557h245z" />
    <glyph glyph-name="Omegatonos" unicode="&#x38f;" 
d="M316 1675l-200 -557h-162l117 557h245zM1010 741c-20.667 -96.667 -57.998 -190.333 -111.998 -281s-128.667 -167 -224 -229l-10 -45h208l-38 -186h-373l76 358c39.333 16.667 74 39 104 67s56 59.333 78 94s39.833 71.5 53.5 110.5s23.834 76.167 30.501 111.5
c10.667 46.667 16 93.834 16 141.501s-7.16699 90.667 -21.5 129s-36.5 69.5 -66.5 93.5s-70.333 36 -121 36c-48.667 0 -93.167 -12 -133.5 -36s-75.833 -55.167 -106.5 -93.5s-56.667 -81.333 -78 -129s-37.333 -94.834 -48 -141.501
c-7.33301 -35.333 -12.333 -72.5 -15 -111.5s-0.5 -75.833 6.5 -110.5s19.333 -66 37 -94s43.5 -50.333 77.5 -67l-76 -358h-372l39 186h213l10 45c-70 57.333 -113.833 131.833 -131.5 223.5s-16.167 187.167 4.5 286.5c16 75.333 42.167 148.5 78.5 219.5
s80.833 133.5 133.5 187.5s112.667 97.333 180 130s140.666 49 219.999 49s145.666 -16.333 198.999 -49s94.666 -76 123.999 -130s47 -116.5 53 -187.5s1 -144.167 -15 -219.5z" />
    <glyph glyph-name="iotadieresistonos" unicode="&#x390;" 
d="M686 14c-57.333 -24.667 -113.331 -36.999 -167.998 -36.999c-78 0 -136.667 19.833 -176 59.5s-51 96.5 -35 170.5l115 538h-176l39 187h383l-142 -664c-9.33301 -44.667 -6.83301 -73.834 7.5 -87.501s35.166 -20.5 62.499 -20.5c14.667 0 29.667 2 45 6
s27.666 8.66699 36.999 14zM1071 1118h-252l53 252h252zM391.002 1118h-252l54 252h251zM874.002 1675l-200 -557h-162l117 557h245z" />
    <glyph glyph-name="Alpha" unicode="&#x391;" 
d="M678 0l-29 311h-432l-158 -311h-217l684 1305h238l131 -1305h-217zM311 494h322l-45 538z" />
    <glyph glyph-name="Beta" unicode="&#x392;" 
d="M907 358c-26 -118.667 -85.332 -208 -177.999 -268s-213.334 -90 -362.001 -90h-416l276 1305h394c54 0 106.333 -4.5 157 -13.5s94.167 -25.833 130.5 -50.5s63 -59.167 80 -103.5s17.833 -101.833 2.5 -172.5c-14.667 -66 -44.5 -126.333 -89.5 -181
s-103.833 -94 -176.5 -118c78 -26 132.333 -62.333 163 -109s37 -113 19 -199zM780.001 938c8.66699 38 8.16895 69 -1.49805 93s-24.334 42.5 -44.001 55.5s-42.834 21.5 -69.501 25.5s-54.334 6 -83.001 6h-187l-78 -360h187c28.667 0 57.334 2 86.001 6
s55.667 12.5 81 25.5s47.833 31.5 67.5 55.5s33.5 55 41.5 93zM707.003 379c13.333 65.333 0.5 113.667 -38.5 145s-99.5 47 -181.5 47h-208l-82 -385h209c81.333 0 148.333 15.833 201 47.5s86 80.167 100 145.5z" />
    <glyph glyph-name="Gamma" unicode="&#x393;" 
d="M227 1305h883l-39 -187h-676l-237 -1118h-207z" />
    <glyph glyph-name="uni0394" unicode="&#x394;" 
d="M-158 0l684 1305h238l131 -1305h-1053zM154 184h508l-74 848z" />
    <glyph glyph-name="Epsilon" unicode="&#x395;" 
d="M784 0h-833l276 1305h834l-39 -187h-627l-78 -360h490l-39 -187h-489l-82 -385h626z" />
    <glyph glyph-name="Zeta" unicode="&#x396;" 
d="M784 0h-833l39 184l782 934h-397l-62 -284h-186l100 471h817l-38 -187l-766 -932h401l61 287h183z" />
    <glyph glyph-name="Eta" unicode="&#x397;" 
d="M784 0h-206l120 571h-419l-121 -571h-207l276 1305h207l-117 -547h420l117 547h207z" />
    <glyph glyph-name="Theta" unicode="&#x398;" 
d="M291 758h471l-39 -187h-471zM6 653c19.333 87.333 46.665 171.666 81.998 252.999s79.666 153 132.999 215s115.5 111.833 186.5 149.5s151.5 56.5 241.5 56.5s163 -18.833 219 -56.5s97.333 -87.5 124 -149.5s40.334 -133.667 41.001 -215
s-8.33301 -165.666 -27 -252.999c-18 -87.333 -44.833 -171.5 -80.5 -252.5s-79.667 -153 -132 -216s-114.333 -113.333 -186 -151s-153.5 -56.5 -245.5 -56.5c-91.333 0 -164.666 18.833 -219.999 56.5s-96.166 88 -122.499 151s-39.5 135 -39.5 216
s8.66699 165.167 26 252.5zM212.999 653c-12 -58.667 -19.835 -117.335 -23.502 -176.002s0.333008 -111.167 12 -157.5s33.5 -83.833 65.5 -112.5s77.333 -43 136 -43c59.333 0 110.5 14.333 153.5 43s80.5 66.167 112.5 112.5s58.5 98.833 79.5 157.5
s37.833 117.334 50.5 176.001c12 58.667 20 117 24 175s0 110.333 -12 157s-34.167 84.334 -66.5 113.001s-77.166 43 -134.499 43c-95.333 0 -177.166 -43 -245.499 -129s-118.833 -205.667 -151.5 -359z" />
    <glyph glyph-name="Iota" unicode="&#x399;" 
d="M684 0h-627l39 186h207l199 932h-207l39 187h627l-39 -187h-213l-199 -932h213z" />
    <glyph glyph-name="Kappa" unicode="&#x39a;" 
d="M827 0h-241l-213 608l-109 -102l-106 -506h-207l276 1305h207l-108 -512l514 512h266l-569 -541z" />
    <glyph glyph-name="Lambda" unicode="&#x39b;" 
d="M676 0l-88 1032l-529 -1032h-217l684 1305h236l131 -1305h-217z" />
    <glyph glyph-name="Mu" unicode="&#x39c;" 
d="M784 0h-206l186 883l-232 -469h-159l-29 469l-186 -883h-207l276 1305h246l45 -590l295 590h248z" />
    <glyph glyph-name="Nu" unicode="&#x39d;" 
d="M784 0h-239l-187 946l-200 -946h-207l276 1305h260l177 -899l190 899h207z" />
    <glyph glyph-name="Xi" unicode="&#x39e;" 
d="M-29 334h187l-31 -148h559l31 148h186l-69 -334h-932zM885 1118h-559l-33 -149h-187l72 336h932l-72 -336h-186zM248 758h559l-39 -187h-559z" />
    <glyph glyph-name="Omicron" unicode="&#x39f;" 
d="M6 653c19.333 87.333 46.665 171.666 81.998 252.999s79.666 153 132.999 215s115.5 111.833 186.5 149.5s151.5 56.5 241.5 56.5s163 -18.833 219 -56.5s97.333 -87.5 124 -149.5s40.334 -133.667 41.001 -215s-8.33301 -165.666 -27 -252.999
c-18 -87.333 -44.833 -171.5 -80.5 -252.5s-79.667 -153 -132 -216s-114.333 -113.333 -186 -151s-153.5 -56.5 -245.5 -56.5c-91.333 0 -164.666 18.833 -219.999 56.5s-96.166 88 -122.499 151s-39.5 135 -39.5 216s8.66699 165.167 26 252.5zM212.999 653
c-12 -58.667 -19.835 -117.335 -23.502 -176.002s0.333008 -111.167 12 -157.5s33.5 -83.833 65.5 -112.5s77.333 -43 136 -43c59.333 0 110.5 14.333 153.5 43s80.5 66.167 112.5 112.5s58.5 98.833 79.5 157.5s37.833 117.334 50.5 176.001c12 58.667 20 117 24 175
s0 110.333 -12 157s-34.167 84.334 -66.5 113.001s-77.166 43 -134.499 43c-95.333 0 -177.166 -43 -245.499 -129s-118.833 -205.667 -151.5 -359z" />
    <glyph glyph-name="Pi" unicode="&#x3a0;" 
d="M784 0h-206l237 1118h-420l-237 -1118h-207l276 1305h834z" />
    <glyph glyph-name="Rho" unicode="&#x3a1;" 
d="M1028 915c-28.667 -130.667 -89.333 -227.832 -182 -291.499s-210 -95.5 -352 -95.5h-226l-110 -528h-207l276 1305h430c143.333 0 247.5 -32.833 312.5 -98.5s84.5 -162.834 58.5 -291.501zM821.001 918.002c14 66.667 2.83105 116.667 -33.502 150
s-91.833 50 -166.5 50h-226l-86 -403h226c74.667 0 137.334 16.667 188.001 50s83.334 84.333 98.001 153z" />
    <glyph glyph-name="Sigma" unicode="&#x3a3;" 
d="M784 0h-839l39 186l393 465l-195 467l39 187h840l-94 -441h-187l56 254h-402l187 -467l-385 -465h401l53 256h187z" />
    <glyph glyph-name="Tau" unicode="&#x3a4;" 
d="M1008 829h-185l62 289h-176l-199 -932h207l-39 -186h-621l39 186h207l199 932h-178l-62 -289h-184l100 476h930z" />
    <glyph glyph-name="Upsilon" unicode="&#x3a5;" 
d="M1092 1118h-95l-413 -586l-74 -346h209l-39 -186h-625l39 186h209l74 346l-164 586h-94l39 187h411l-39 -187h-90l84 -383l246 383h-90l39 187h411z" />
    <glyph glyph-name="Phi" unicode="&#x3a6;" 
d="M999 666c-13.333 -64.667 -34.999 -123.831 -64.999 -177.498s-66.5 -101 -109.5 -142s-91.5 -75.5 -145.5 -103.5s-111 -47 -171 -57l-39 -186h-205l39 186c-113.333 22 -195.166 75.667 -245.499 161s-61.833 191.666 -34.5 318.999c12 62.667 32.667 120.667 62 174
s65.166 100.666 107.499 141.999s90.166 76 143.499 104s110 47.667 170 59l35 160h204l-32 -158c56 -11.333 104.833 -30.5 146.5 -57.5s75 -61.667 100 -104s41 -90.5 48 -144.5s4.16699 -112.333 -8.5 -175zM793.001 666.003c13.333 68 9.5 127.667 -11.5 179
s-58.167 87 -111.5 107l-121 -573c61.333 20.667 113.5 56.167 156.5 106.5s72.167 110.5 87.5 180.5zM229.001 666.003c-14.667 -68.667 -12.5 -128.167 6.5 -178.5s55.167 -85.833 108.5 -106.5l121 569c-61.333 -20 -112.5 -55.667 -153.5 -107
s-68.5 -110.333 -82.5 -177z" />
    <glyph glyph-name="Chi" unicode="&#x3a7;" 
d="M854 0h-426l39 186h74l-76 295l-199 -295h74l-39 -186h-422l39 186h113l354 473l-152 459h-94l39 187h414l-39 -187h-84l72 -289l196 289h-82l39 187h416l-39 -187h-100l-348 -459l153 -473h117z" />
    <glyph glyph-name="Psi" unicode="&#x3a8;" 
d="M1014 856c-18 -84.667 -41.668 -158.004 -71.001 -220.004s-64.5 -114.5 -105.5 -157.5s-86.333 -77.167 -136 -102.5s-103.834 -42 -162.501 -50l-68 -326h-207l68 326c-109.333 17.333 -187.166 68.333 -233.499 153s-51.833 210.334 -16.5 377.001l96 449h207
l-96 -449c-18 -83.333 -21.167 -154.666 -9.5 -213.999s42.834 -100.666 93.501 -123.999l168 787h207l-168 -787c61.333 23.333 110.333 64.333 147 123s64 130.334 82 215.001l96 449h205z" />
    <glyph glyph-name="uni03A9" unicode="&#x3a9;" 
d="M1010 741c-20.667 -96.667 -57.998 -190.333 -111.998 -281s-128.667 -167 -224 -229l-10 -45h208l-38 -186h-373l76 358c39.333 16.667 74 39 104 67s56 59.333 78 94s39.833 71.5 53.5 110.5s23.834 76.167 30.501 111.5c10.667 46.667 16 93.834 16 141.501
s-7.16699 90.667 -21.5 129s-36.5 69.5 -66.5 93.5s-70.333 36 -121 36c-48.667 0 -93.167 -12 -133.5 -36s-75.833 -55.167 -106.5 -93.5s-56.667 -81.333 -78 -129s-37.333 -94.834 -48 -141.501c-7.33301 -35.333 -12.333 -72.5 -15 -111.5s-0.5 -75.833 6.5 -110.5
s19.333 -66 37 -94s43.5 -50.333 77.5 -67l-76 -358h-372l39 186h213l10 45c-70 57.333 -113.833 131.833 -131.5 223.5s-16.167 187.167 4.5 286.5c16 75.333 42.167 148.5 78.5 219.5s80.833 133.5 133.5 187.5s112.667 97.333 180 130s140.666 49 219.999 49
s145.666 -16.333 198.999 -49s94.666 -76 123.999 -130s47 -116.5 53 -187.5s1 -144.167 -15 -219.5z" />
    <glyph glyph-name="Iotadieresis" unicode="&#x3aa;" 
d="M684 0h-627l39 186h207l199 932h-207l39 187h627l-39 -187h-213l-199 -932h213zM983 1424h-252l54 252h251zM610 1424h-251l53 252h252z" />
    <glyph glyph-name="Upsilondieresis" unicode="&#x3ab;" 
d="M1092 1118h-95l-413 -586l-74 -346h209l-39 -186h-625l39 186h209l74 346l-164 586h-94l39 187h411l-39 -187h-90l84 -383l246 383h-90l39 187h411zM983 1424h-252l54 252h251zM610 1424h-251l53 252h252z" />
    <glyph glyph-name="alphatonos" unicode="&#x3ac;" 
d="M186 465c-8 -35.333 -11.998 -70.833 -11.998 -106.5s5.16699 -67.834 15.5 -96.501s26 -52.167 47 -70.5s49.5 -27.5 85.5 -27.5c30 0 59 9.16699 87 27.5s54.5 41.833 79.5 70.5s48.167 60.834 69.5 96.501s41.333 71.167 60 106.5
c-4 35.333 -8.66699 71.166 -14 107.499s-14.833 68.833 -28.5 97.5s-30.667 52.167 -51 70.5s-45.5 27.5 -75.5 27.5c-36 0 -68.333 -9.16699 -97 -27.5s-53.834 -41.833 -75.501 -70.5s-40.334 -61.167 -56.001 -97.5s-27.167 -72.166 -34.5 -107.499zM-19.998 465
c13.333 62.667 34.3359 123.332 63.0029 181.999s64.5 110.834 107.5 156.501s92.5 82.167 148.5 109.5s117.333 41 184 41c80.667 0 140.167 -18.667 178.5 -56s65.5 -92.333 81.5 -165l84 199h209l-229 -467l33 -465h-209l-2 197
c-46.667 -72.667 -97.334 -127.5 -152.001 -164.5s-122.334 -55.5 -203.001 -55.5c-66.667 0 -121.834 13.667 -165.501 41s-77.5 63.666 -101.5 108.999s-38 97.333 -42 156s1 119.334 15 182.001zM874.005 1675l-200 -557h-162l117 557h245z" />
    <glyph glyph-name="epsilontonos" unicode="&#x3ad;" 
d="M47 676c8 42 27.5029 80.4971 58.5029 115.497s69.333 64.333 115 88s97.5 42 155.5 55s119 19.5 183 19.5c102.667 0 183.667 -16.667 243 -50s102.666 -83.333 129.999 -150l-174 -105c-34 79.333 -114.667 119 -242 119c-73.333 0 -134.333 -9.83301 -183 -29.5
s-76.334 -46.167 -83.001 -79.5c-5.33301 -22.667 7.66699 -43 39 -61s81.666 -27 150.999 -27h197l-41 -186h-199c-69.333 0 -123.5 -11 -162.5 -33s-61.167 -45.667 -66.5 -71c-8 -36 9.5 -64.5 52.5 -85.5s102.5 -31.5 178.5 -31.5c66 0 125.5 11.167 178.5 33.5
s92.5 51.5 118.5 87.5l140 -109c-57.333 -66.667 -124 -116.5 -200 -149.5s-167.333 -49.5 -274 -49.5c-66.667 0 -127 6.5 -181 19.5s-99 31.833 -135 56.5s-62.167 54.834 -78.5 90.501s-19.833 75.834 -10.5 120.501c9.33301 48 37.333 91.833 84 131.5
s102 65.5 166 77.5c-64 10.667 -109 35.834 -135 75.501s-34.333 82.167 -25 127.5zM874.003 1675l-200 -557h-162l117 557h245z" />
    <glyph glyph-name="etatonos" unicode="&#x3ae;" 
d="M416 774c26 52 66.998 94.998 122.998 128.998s113.333 51 172 51c95.333 0 158.333 -31 189 -93s32.334 -156.333 5.00098 -283l-200 -951h-207l200 951c16.667 76 16.834 126.667 0.500977 152s-41.5 38 -75.5 38c-57.333 0 -107.833 -24.5 -151.5 -73.5
s-75.834 -120.833 -96.501 -215.5l-101 -479h-206l143 682c6.66699 28.667 3.83398 50.167 -8.49902 64.5s-29.833 21.5 -52.5 21.5c-14 0 -25.833 -1 -35.5 -3l-32.5 -7l-4 168c23.333 9.33301 50.666 16.333 81.999 21s62 7 92 7c26 0 49.833 -3.66699 71.5 -11
s40.334 -18.166 56.001 -32.499s27 -33.166 34 -56.499s7.83301 -50 2.5 -80zM873.998 1675l-200 -557h-162l117 557h245z" />
    <glyph glyph-name="iotatonos" unicode="&#x3af;" 
d="M686 14c-57.333 -24.667 -113.331 -36.999 -167.998 -36.999c-78 0 -136.667 19.833 -176 59.5s-51 96.5 -35 170.5l115 538h-176l39 187h383l-142 -664c-9.33301 -44.667 -6.83301 -73.834 7.5 -87.501s35.166 -20.5 62.499 -20.5c14.667 0 29.667 2 45 6
s27.666 8.66699 36.999 14zM874.002 1675l-200 -557h-162l117 557h245z" />
    <glyph glyph-name="upsilondieresistonos" unicode="&#x3b0;" 
d="M362 -23c-62.667 0 -117.832 8 -165.499 24s-86.5 40 -116.5 72s-49.833 71.5 -59.5 118.5s-7.5 102.5 6.5 166.5l120 574h207l-121 -574c-14.667 -65.333 -4.33398 -114 30.999 -146s83.333 -48 144 -48c47.333 0 89.5 10.5 126.5 31.5s69.167 48.667 96.5 83
s49.5 72.333 66.5 114s29.5 82.167 37.5 121.5c15.333 72.667 23.333 138.334 24 197.001s-7.33301 114 -24 166l215 75c14 -64 20.333 -132.833 19 -206.5s-10.333 -151.5 -27 -233.5c-13.333 -62.667 -35.833 -125.834 -67.5 -189.501s-71.667 -121 -120 -172
s-105.333 -92.667 -171 -125s-139.5 -48.5 -221.5 -48.5zM1071 1118h-252l53 252h252zM391.002 1118h-252l54 252h251zM874.002 1675l-200 -557h-162l117 557h245z" />
    </font>
</defs>
</svg>
